<mxfile host="app.diagrams.net" modified="2023-09-01T13:31:31.851Z" agent="Mozilla/5.0 (Macintosh; Intel Mac OS X 10_15_7) AppleWebKit/537.36 (KHTML, like Gecko) Chrome/116.0.0.0 Safari/537.36" etag="owvKmHQ4nY4BK1C-p6zQ" version="21.6.9" type="device">
  <diagram id="CqnBA_BF6wK8e6Pgfekp" name="Graphical abstract">
    <mxGraphModel dx="2856" dy="3410" grid="1" gridSize="10" guides="1" tooltips="1" connect="1" arrows="1" fold="1" page="1" pageScale="1" pageWidth="1169" pageHeight="827" background="#FFFFFF" math="1" shadow="0">
      <root>
        <mxCell id="0" />
        <mxCell id="1" parent="0" />
        <mxCell id="kIMGEz0QDYV-E_OhELrM-1" value="" style="shape=internalStorage;whiteSpace=wrap;html=1;backgroundOutline=1;fillColor=#fff2cc;strokeColor=#d6b656;" vertex="1" parent="1">
          <mxGeometry x="-1125.28" y="-2286.58" width="220.28" height="111.91" as="geometry" />
        </mxCell>
        <mxCell id="kIMGEz0QDYV-E_OhELrM-2" value="" style="shape=internalStorage;whiteSpace=wrap;html=1;backgroundOutline=1;fillColor=#dae8fc;strokeColor=#6c8ebf;" vertex="1" parent="1">
          <mxGeometry x="-1125.28" y="-2373.67" width="220.28" height="106.63" as="geometry" />
        </mxCell>
        <mxCell id="kIMGEz0QDYV-E_OhELrM-3" value="&lt;span style=&quot;font-size: 10px;&quot;&gt;b&lt;/span&gt;&lt;sub style=&quot;font-size: 10px;&quot;&gt;1&lt;/sub&gt;&lt;br style=&quot;font-size: 10px;&quot;&gt;&lt;span style=&quot;font-size: 10px;&quot;&gt;b&lt;/span&gt;&lt;sub style=&quot;font-size: 10px;&quot;&gt;2&lt;/sub&gt;&lt;br style=&quot;font-size: 10px;&quot;&gt;&lt;span style=&quot;font-size: 10px;&quot;&gt;b&lt;/span&gt;&lt;sub style=&quot;font-size: 10px;&quot;&gt;3&lt;/sub&gt;&lt;br style=&quot;font-size: 10px;&quot;&gt;&lt;span style=&quot;font-size: 10px;&quot;&gt;...&lt;/span&gt;&lt;br style=&quot;font-size: 10px;&quot;&gt;&lt;span style=&quot;font-size: 10px;&quot;&gt;b&lt;sub&gt;B&lt;/sub&gt;&lt;/span&gt;" style="text;html=1;strokeColor=none;fillColor=none;align=center;verticalAlign=middle;whiteSpace=wrap;rounded=0;" vertex="1" parent="1">
          <mxGeometry x="-1125.911818181818" y="-2267.0378313253013" width="19.090909090909093" height="80.45783132530119" as="geometry" />
        </mxCell>
        <mxCell id="kIMGEz0QDYV-E_OhELrM-4" value="g&lt;sub&gt;1&lt;/sub&gt;&amp;nbsp;g&lt;sub&gt;2&lt;/sub&gt;&amp;nbsp;g&lt;sub&gt;3&lt;/sub&gt; ... g&lt;sub&gt;y&lt;/sub&gt;" style="text;html=1;strokeColor=none;fillColor=none;align=center;verticalAlign=middle;whiteSpace=wrap;rounded=0;" vertex="1" parent="1">
          <mxGeometry x="-1002.55" y="-2373.67" width="107.83" height="13.37" as="geometry" />
        </mxCell>
        <mxCell id="kIMGEz0QDYV-E_OhELrM-5" value="a&lt;sub style=&quot;font-size: 10px;&quot;&gt;1&lt;/sub&gt;&lt;br style=&quot;font-size: 10px;&quot;&gt;a&lt;sub style=&quot;font-size: 10px;&quot;&gt;2&lt;/sub&gt;&lt;br style=&quot;font-size: 10px;&quot;&gt;a&lt;sub style=&quot;font-size: 10px;&quot;&gt;3&lt;/sub&gt;&lt;br style=&quot;font-size: 10px;&quot;&gt;...&lt;br style=&quot;font-size: 10px;&quot;&gt;a&lt;sub style=&quot;font-size: 10px;&quot;&gt;A&lt;/sub&gt;" style="text;html=1;strokeColor=none;fillColor=none;align=center;verticalAlign=middle;whiteSpace=wrap;rounded=0;fontSize=10;" vertex="1" parent="1">
          <mxGeometry x="-1125.2836363636363" y="-2351.293012048193" width="19.181818181818183" height="84.25301204819276" as="geometry" />
        </mxCell>
        <mxCell id="kIMGEz0QDYV-E_OhELrM-6" value="y other genes" style="text;html=1;align=center;verticalAlign=middle;resizable=0;points=[];autosize=1;strokeColor=none;fillColor=none;" vertex="1" parent="1">
          <mxGeometry x="-998.6363636363636" y="-2399.406" width="100" height="30" as="geometry" />
        </mxCell>
        <mxCell id="kIMGEz0QDYV-E_OhELrM-7" value="M samples&lt;br&gt;Condition A + Condition B" style="text;html=1;align=center;verticalAlign=middle;resizable=0;points=[];autosize=1;strokeColor=none;fillColor=none;rotation=-90;" vertex="1" parent="1">
          <mxGeometry x="-1229" y="-2286.582771084337" width="160" height="40" as="geometry" />
        </mxCell>
        <mxCell id="kIMGEz0QDYV-E_OhELrM-8" value="&lt;font size=&quot;1&quot; style=&quot;&quot;&gt;&lt;b style=&quot;font-size: 12px;&quot;&gt;Mode 1. Differential co-expresssion (DC)&lt;/b&gt;&lt;/font&gt;" style="text;html=1;align=center;verticalAlign=middle;resizable=0;points=[];autosize=1;strokeColor=none;fillColor=none;fontSize=18;" vertex="1" parent="1">
          <mxGeometry x="-890" y="-2435" width="250" height="40" as="geometry" />
        </mxCell>
        <mxCell id="kIMGEz0QDYV-E_OhELrM-9" value="&lt;div style=&quot;font-size: 14px;&quot;&gt;&lt;b&gt;Step 1.&amp;nbsp; &lt;/b&gt;Compute condition-specific&lt;/div&gt;&lt;div style=&quot;font-size: 14px;&quot;&gt;&lt;span style=&quot;background-color: initial;&quot;&gt;associations&lt;/span&gt;&lt;/div&gt;" style="text;html=1;align=center;verticalAlign=middle;resizable=0;points=[];autosize=1;strokeColor=none;fillColor=none;" vertex="1" parent="1">
          <mxGeometry x="-888" y="-2480" width="250" height="50" as="geometry" />
        </mxCell>
        <mxCell id="kIMGEz0QDYV-E_OhELrM-10" value="&lt;font size=&quot;1&quot; style=&quot;&quot;&gt;&lt;b style=&quot;font-size: 12px;&quot;&gt;Mode 3. Differential regulation from TFs (DCR)&lt;/b&gt;&lt;/font&gt;" style="text;html=1;align=center;verticalAlign=middle;resizable=0;points=[];autosize=1;strokeColor=none;fillColor=none;fontSize=18;" vertex="1" parent="1">
          <mxGeometry x="-919" y="-2023.67" width="290" height="40" as="geometry" />
        </mxCell>
        <mxCell id="kIMGEz0QDYV-E_OhELrM-11" style="edgeStyle=orthogonalEdgeStyle;rounded=0;orthogonalLoop=1;jettySize=auto;html=1;exitX=0.5;exitY=1;exitDx=0;exitDy=0;fontSize=9;" edge="1" parent="1" source="kIMGEz0QDYV-E_OhELrM-4" target="kIMGEz0QDYV-E_OhELrM-4">
          <mxGeometry relative="1" as="geometry" />
        </mxCell>
        <mxCell id="kIMGEz0QDYV-E_OhELrM-12" value="&lt;font color=&quot;#006600&quot;&gt;x transcription factors&lt;/font&gt;" style="text;html=1;align=center;verticalAlign=middle;resizable=0;points=[];autosize=1;strokeColor=none;fillColor=none;" vertex="1" parent="1">
          <mxGeometry x="-1122.5463636363636" y="-2399.406" width="140" height="30" as="geometry" />
        </mxCell>
        <mxCell id="kIMGEz0QDYV-E_OhELrM-13" value="&lt;font color=&quot;#006600&quot;&gt;Tf&lt;sub style=&quot;&quot;&gt;1&lt;/sub&gt;&amp;nbsp;Tf&lt;sub style=&quot;&quot;&gt;2&lt;/sub&gt;&amp;nbsp;Tf&lt;sub style=&quot;&quot;&gt;3&amp;nbsp;&lt;/sub&gt;... Tf&lt;/font&gt;&lt;sub&gt;&lt;font color=&quot;#006600&quot;&gt;x&lt;/font&gt;&lt;br&gt;&lt;/sub&gt;" style="text;html=1;strokeColor=none;fillColor=none;align=center;verticalAlign=middle;whiteSpace=wrap;rounded=0;" vertex="1" parent="1">
          <mxGeometry x="-1106.82" y="-2369.41" width="107.83" height="13.37" as="geometry" />
        </mxCell>
        <mxCell id="kIMGEz0QDYV-E_OhELrM-14" value="&lt;font size=&quot;1&quot; style=&quot;&quot;&gt;&lt;b style=&quot;font-size: 12px;&quot;&gt;Mode 2. Differential regulation (DR)&lt;/b&gt;&lt;/font&gt;" style="text;html=1;align=center;verticalAlign=middle;resizable=0;points=[];autosize=1;strokeColor=none;fillColor=none;fontSize=18;" vertex="1" parent="1">
          <mxGeometry x="-875" y="-2192.67" width="220" height="40" as="geometry" />
        </mxCell>
        <mxCell id="kIMGEz0QDYV-E_OhELrM-15" value="" style="group" vertex="1" connectable="0" parent="1">
          <mxGeometry x="-877" y="-2152.67" width="212" height="127" as="geometry" />
        </mxCell>
        <mxCell id="kIMGEz0QDYV-E_OhELrM-16" value="" style="shape=internalStorage;whiteSpace=wrap;html=1;backgroundOutline=1;fillColor=#fff2cc;strokeColor=#d6b656;" vertex="1" parent="kIMGEz0QDYV-E_OhELrM-15">
          <mxGeometry x="12" width="200" height="115" as="geometry" />
        </mxCell>
        <mxCell id="kIMGEz0QDYV-E_OhELrM-17" value="" style="shape=internalStorage;whiteSpace=wrap;html=1;backgroundOutline=1;fillColor=#dae8fc;strokeColor=#6c8ebf;" vertex="1" parent="kIMGEz0QDYV-E_OhELrM-15">
          <mxGeometry x="2" y="12" width="200" height="115" as="geometry" />
        </mxCell>
        <mxCell id="kIMGEz0QDYV-E_OhELrM-18" value="g&lt;sub&gt;1&lt;/sub&gt;&amp;nbsp;g&lt;sub&gt;2&lt;/sub&gt;&amp;nbsp;g&lt;sub&gt;3&lt;/sub&gt; ... g&lt;sub&gt;y&lt;/sub&gt;" style="text;html=1;strokeColor=none;fillColor=none;align=center;verticalAlign=middle;whiteSpace=wrap;rounded=0;" vertex="1" parent="kIMGEz0QDYV-E_OhELrM-15">
          <mxGeometry x="122" y="16.259999999999877" width="83.9" height="13.37" as="geometry" />
        </mxCell>
        <mxCell id="kIMGEz0QDYV-E_OhELrM-19" value="&lt;font color=&quot;#006600&quot;&gt;Tf&lt;sub&gt;1&lt;/sub&gt;&amp;nbsp;Tf&lt;sub&gt;2&lt;/sub&gt;&amp;nbsp;Tf&lt;sub&gt;3&amp;nbsp;&lt;/sub&gt;... Tf&lt;/font&gt;&lt;sub&gt;&lt;font color=&quot;#006600&quot;&gt;x&lt;/font&gt;&lt;br&gt;&lt;/sub&gt;" style="text;html=1;strokeColor=none;fillColor=none;align=center;verticalAlign=middle;whiteSpace=wrap;rounded=0;" vertex="1" parent="kIMGEz0QDYV-E_OhELrM-15">
          <mxGeometry x="23.639999999999986" y="16.259999999999877" width="98.36" height="13.37" as="geometry" />
        </mxCell>
        <mxCell id="kIMGEz0QDYV-E_OhELrM-20" value="&lt;font color=&quot;#006600&quot;&gt;Tf&lt;sub&gt;1&lt;br&gt;&lt;/sub&gt;Tf&lt;sub&gt;2&lt;br&gt;&lt;/sub&gt;Tf&lt;sub&gt;3&lt;br&gt;&lt;/sub&gt;...&lt;br&gt;Tf&lt;/font&gt;&lt;sub&gt;&lt;font color=&quot;#006600&quot;&gt;x&lt;/font&gt;&lt;br&gt;&lt;/sub&gt;" style="text;html=1;strokeColor=none;fillColor=none;align=center;verticalAlign=middle;whiteSpace=wrap;rounded=0;" vertex="1" parent="kIMGEz0QDYV-E_OhELrM-15">
          <mxGeometry y="32.69999999999993" width="27" height="87.86" as="geometry" />
        </mxCell>
        <mxCell id="kIMGEz0QDYV-E_OhELrM-21" value="" style="verticalLabelPosition=bottom;verticalAlign=top;html=1;shape=mxgraph.basic.rect;fillColor2=none;strokeWidth=1;size=0;indent=5;fontSize=9;fontColor=#006600;opacity=50;" vertex="1" parent="kIMGEz0QDYV-E_OhELrM-15">
          <mxGeometry x="53.5" y="42.25999999999999" width="10" height="10" as="geometry" />
        </mxCell>
        <mxCell id="kIMGEz0QDYV-E_OhELrM-22" value="" style="verticalLabelPosition=bottom;verticalAlign=top;html=1;shape=mxgraph.basic.rect;fillColor2=none;strokeWidth=1;size=0;indent=5;fontSize=9;fontColor=#006600;opacity=50;" vertex="1" parent="kIMGEz0QDYV-E_OhELrM-15">
          <mxGeometry x="69.32" y="42.25999999999999" width="10" height="10" as="geometry" />
        </mxCell>
        <mxCell id="kIMGEz0QDYV-E_OhELrM-23" value="" style="verticalLabelPosition=bottom;verticalAlign=top;html=1;shape=mxgraph.basic.rect;fillColor2=none;strokeWidth=1;size=0;indent=0;fontSize=9;fontColor=#006600;opacity=50;flipH=0;flipV=1;" vertex="1" parent="kIMGEz0QDYV-E_OhELrM-15">
          <mxGeometry x="127.5" y="52.25999999999999" width="10" height="10" as="geometry" />
        </mxCell>
        <mxCell id="kIMGEz0QDYV-E_OhELrM-24" value="" style="verticalLabelPosition=bottom;verticalAlign=top;html=1;shape=mxgraph.basic.rect;fillColor2=none;strokeWidth=1;size=0;indent=0;fontSize=9;fontColor=#006600;opacity=50;flipH=0;flipV=1;" vertex="1" parent="kIMGEz0QDYV-E_OhELrM-15">
          <mxGeometry x="127.5" y="72.2600000000001" width="10" height="10" as="geometry" />
        </mxCell>
        <mxCell id="kIMGEz0QDYV-E_OhELrM-25" value="" style="verticalLabelPosition=bottom;verticalAlign=top;html=1;shape=mxgraph.basic.rect;fillColor2=none;strokeWidth=1;size=0;indent=0;fontSize=9;fontColor=#006600;opacity=50;flipH=0;flipV=1;" vertex="1" parent="kIMGEz0QDYV-E_OhELrM-15">
          <mxGeometry x="140.5" y="101.25999999999999" width="10" height="10" as="geometry" />
        </mxCell>
        <mxCell id="kIMGEz0QDYV-E_OhELrM-26" value="" style="verticalLabelPosition=bottom;verticalAlign=top;html=1;shape=mxgraph.basic.rect;fillColor2=none;strokeWidth=1;size=0;indent=0;fontSize=9;fontColor=#006600;opacity=50;flipH=0;flipV=1;" vertex="1" parent="kIMGEz0QDYV-E_OhELrM-15">
          <mxGeometry x="158.5" y="101.25999999999999" width="10" height="10" as="geometry" />
        </mxCell>
        <mxCell id="kIMGEz0QDYV-E_OhELrM-27" value="" style="group" vertex="1" connectable="0" parent="1">
          <mxGeometry x="-877" y="-1984.67" width="212" height="127" as="geometry" />
        </mxCell>
        <mxCell id="kIMGEz0QDYV-E_OhELrM-28" value="" style="shape=internalStorage;whiteSpace=wrap;html=1;backgroundOutline=1;fillColor=#fff2cc;strokeColor=#d6b656;" vertex="1" parent="kIMGEz0QDYV-E_OhELrM-27">
          <mxGeometry x="12" width="198" height="120" as="geometry" />
        </mxCell>
        <mxCell id="kIMGEz0QDYV-E_OhELrM-29" value="" style="shape=internalStorage;whiteSpace=wrap;html=1;backgroundOutline=1;fillColor=#dae8fc;strokeColor=#6c8ebf;" vertex="1" parent="kIMGEz0QDYV-E_OhELrM-27">
          <mxGeometry x="2" y="12" width="200" height="115" as="geometry" />
        </mxCell>
        <mxCell id="kIMGEz0QDYV-E_OhELrM-30" value="g&lt;sub&gt;1&lt;/sub&gt;&amp;nbsp;g&lt;sub&gt;2&lt;/sub&gt;&amp;nbsp;g&lt;sub&gt;3&lt;/sub&gt; ... g&lt;sub&gt;y&lt;/sub&gt;" style="text;html=1;strokeColor=none;fillColor=none;align=center;verticalAlign=middle;whiteSpace=wrap;rounded=0;" vertex="1" parent="kIMGEz0QDYV-E_OhELrM-27">
          <mxGeometry x="122" y="16.259999999999877" width="83.9" height="13.37" as="geometry" />
        </mxCell>
        <mxCell id="kIMGEz0QDYV-E_OhELrM-31" value="&lt;font color=&quot;#006600&quot;&gt;Tf&lt;sub&gt;1&lt;/sub&gt;&amp;nbsp;Tf&lt;sub&gt;2&lt;/sub&gt;&amp;nbsp;Tf&lt;sub&gt;3&amp;nbsp;&lt;/sub&gt;... Tf&lt;/font&gt;&lt;sub&gt;&lt;font color=&quot;#006600&quot;&gt;x&lt;/font&gt;&lt;br&gt;&lt;/sub&gt;" style="text;html=1;strokeColor=none;fillColor=none;align=center;verticalAlign=middle;whiteSpace=wrap;rounded=0;" vertex="1" parent="kIMGEz0QDYV-E_OhELrM-27">
          <mxGeometry x="23.639999999999986" y="16.259999999999877" width="98.36" height="13.37" as="geometry" />
        </mxCell>
        <mxCell id="kIMGEz0QDYV-E_OhELrM-32" value="&lt;font color=&quot;#006600&quot;&gt;Tf&lt;sub&gt;1&lt;br&gt;&lt;/sub&gt;Tf&lt;sub&gt;2&lt;br&gt;&lt;/sub&gt;Tf&lt;sub&gt;3&lt;br&gt;&lt;/sub&gt;...&lt;br&gt;Tf&lt;/font&gt;&lt;sub&gt;&lt;font color=&quot;#006600&quot;&gt;x&lt;/font&gt;&lt;br&gt;&lt;/sub&gt;" style="text;html=1;strokeColor=none;fillColor=none;align=center;verticalAlign=middle;whiteSpace=wrap;rounded=0;" vertex="1" parent="kIMGEz0QDYV-E_OhELrM-27">
          <mxGeometry y="32.69999999999993" width="27" height="87.86" as="geometry" />
        </mxCell>
        <mxCell id="kIMGEz0QDYV-E_OhELrM-33" value="" style="verticalLabelPosition=bottom;verticalAlign=top;html=1;shape=mxgraph.basic.orthogonal_triangle;fontSize=9;fontColor=#006600;opacity=50;" vertex="1" parent="kIMGEz0QDYV-E_OhELrM-27">
          <mxGeometry x="22" y="37.700000000000045" width="180" height="89.3" as="geometry" />
        </mxCell>
        <mxCell id="kIMGEz0QDYV-E_OhELrM-34" value="&lt;div style=&quot;text-align: left; font-size: 14px;&quot;&gt;&lt;b&gt;Step 2.&amp;nbsp; &lt;/b&gt;Assess differential associations&lt;/div&gt;" style="text;html=1;align=center;verticalAlign=middle;resizable=0;points=[];autosize=1;strokeColor=none;fillColor=none;" vertex="1" parent="1">
          <mxGeometry x="-634" y="-2480" width="270" height="30" as="geometry" />
        </mxCell>
        <mxCell id="kIMGEz0QDYV-E_OhELrM-35" value="&lt;b&gt;Association metrics:&lt;/b&gt;&lt;br&gt;entropy, pearson&#39;s r, spearman&#39;s s" style="text;html=1;align=center;verticalAlign=middle;resizable=0;points=[];autosize=1;strokeColor=none;fillColor=none;" vertex="1" parent="1">
          <mxGeometry x="-599" y="-2436" width="200" height="41" as="geometry" />
        </mxCell>
        <mxCell id="kIMGEz0QDYV-E_OhELrM-36" value="" style="shape=internalStorage;whiteSpace=wrap;html=1;backgroundOutline=1;fillColor=#fff2cc;strokeColor=#d6b656;" vertex="1" parent="1">
          <mxGeometry x="-865" y="-2395" width="200" height="194.74" as="geometry" />
        </mxCell>
        <mxCell id="kIMGEz0QDYV-E_OhELrM-37" value="" style="shape=internalStorage;whiteSpace=wrap;html=1;backgroundOutline=1;fillColor=#dae8fc;strokeColor=#6c8ebf;" vertex="1" parent="1">
          <mxGeometry x="-875" y="-2383.09" width="200" height="194.74" as="geometry" />
        </mxCell>
        <mxCell id="kIMGEz0QDYV-E_OhELrM-38" value="g&lt;sub&gt;1&lt;/sub&gt;&amp;nbsp;g&lt;sub&gt;2&lt;/sub&gt;&amp;nbsp;g&lt;sub&gt;3&lt;/sub&gt; ... g&lt;sub&gt;y&lt;/sub&gt;" style="text;html=1;strokeColor=none;fillColor=none;align=center;verticalAlign=middle;whiteSpace=wrap;rounded=0;" vertex="1" parent="1">
          <mxGeometry x="-755" y="-2378.83" width="83.9" height="13.37" as="geometry" />
        </mxCell>
        <mxCell id="kIMGEz0QDYV-E_OhELrM-39" value="&lt;font color=&quot;#006600&quot;&gt;Tf&lt;sub&gt;1&lt;/sub&gt;&amp;nbsp;Tf&lt;sub&gt;2&lt;/sub&gt;&amp;nbsp;Tf&lt;sub&gt;3&amp;nbsp;&lt;/sub&gt;... Tf&lt;/font&gt;&lt;sub&gt;&lt;font color=&quot;#006600&quot;&gt;x&lt;/font&gt;&lt;br&gt;&lt;/sub&gt;" style="text;html=1;strokeColor=none;fillColor=none;align=center;verticalAlign=middle;whiteSpace=wrap;rounded=0;" vertex="1" parent="1">
          <mxGeometry x="-853.36" y="-2378.83" width="98.36" height="13.37" as="geometry" />
        </mxCell>
        <mxCell id="kIMGEz0QDYV-E_OhELrM-40" value="&lt;font color=&quot;#006600&quot;&gt;Tf&lt;sub&gt;1&lt;br&gt;&lt;/sub&gt;Tf&lt;sub&gt;2&lt;br&gt;&lt;/sub&gt;Tf&lt;sub&gt;3&lt;br&gt;&lt;/sub&gt;...&lt;br&gt;Tf&lt;/font&gt;&lt;sub&gt;&lt;font color=&quot;#006600&quot;&gt;x&lt;/font&gt;&lt;br&gt;&lt;/sub&gt;" style="text;html=1;strokeColor=none;fillColor=none;align=center;verticalAlign=middle;whiteSpace=wrap;rounded=0;" vertex="1" parent="1">
          <mxGeometry x="-877" y="-2362.3900000000003" width="27" height="87.86" as="geometry" />
        </mxCell>
        <mxCell id="kIMGEz0QDYV-E_OhELrM-41" value="g&lt;sub&gt;1&lt;br&gt;&lt;/sub&gt;g&lt;sub&gt;2&lt;br&gt;&lt;/sub&gt;g&lt;sub&gt;3&lt;br&gt;&lt;/sub&gt;...&lt;br&gt;g&lt;sub&gt;y&lt;/sub&gt;" style="text;html=1;strokeColor=none;fillColor=none;align=center;verticalAlign=middle;whiteSpace=wrap;rounded=0;" vertex="1" parent="1">
          <mxGeometry x="-875" y="-2278.16" width="20" height="88.81" as="geometry" />
        </mxCell>
        <mxCell id="kIMGEz0QDYV-E_OhELrM-42" value="" style="verticalLabelPosition=bottom;verticalAlign=top;html=1;shape=mxgraph.basic.orthogonal_triangle;fontSize=9;fontColor=#006600;opacity=50;" vertex="1" parent="1">
          <mxGeometry x="-855" y="-2362.3900000000003" width="180" height="174.04" as="geometry" />
        </mxCell>
        <mxCell id="kIMGEz0QDYV-E_OhELrM-43" value="&lt;div&gt;&lt;span style=&quot;background-color: initial;&quot;&gt;\[\ \Delta r = \left| r_a - r_b \right|\]&lt;/span&gt;&lt;br&gt;&lt;/div&gt;&lt;div&gt;&lt;br style=&quot;color: rgb(154 , 199 , 191) ; font-family: &amp;quot;helvetica&amp;quot; ; font-size: 12px ; font-style: normal ; font-weight: 400 ; letter-spacing: normal ; text-align: center ; text-indent: 0px ; text-transform: none ; word-spacing: 0px ; background-color: rgb(248 , 249 , 250)&quot;&gt;&lt;/div&gt;" style="text;whiteSpace=wrap;html=1;fontSize=12;" vertex="1" parent="1">
          <mxGeometry x="-544" y="-2345" width="136" height="42" as="geometry" />
        </mxCell>
        <mxCell id="kIMGEz0QDYV-E_OhELrM-44" value="&lt;b&gt;Differential metrics&lt;/b&gt;&lt;br&gt;&lt;br&gt;Absolute difference in association" style="text;html=1;align=center;verticalAlign=middle;resizable=0;points=[];autosize=1;strokeColor=none;fillColor=none;" vertex="1" parent="1">
          <mxGeometry x="-597.5" y="-2388" width="197" height="55" as="geometry" />
        </mxCell>
        <mxCell id="kIMGEz0QDYV-E_OhELrM-45" value="&lt;div&gt;&lt;font color=&quot;#000000&quot;&gt;\[\ s = r_{ab} - 2 \times (r_a + r_b)\]&lt;/font&gt;&lt;/div&gt;&lt;div&gt;&lt;br style=&quot;color: rgb(154 , 199 , 191) ; font-family: &amp;quot;helvetica&amp;quot; ; font-size: 12px ; font-style: normal ; font-weight: 400 ; letter-spacing: normal ; text-align: center ; text-indent: 0px ; text-transform: none ; word-spacing: 0px ; background-color: rgb(248 , 249 , 250)&quot;&gt;&lt;/div&gt;" style="text;whiteSpace=wrap;html=1;fontSize=12;" vertex="1" parent="1">
          <mxGeometry x="-567" y="-2288.58" width="136" height="42" as="geometry" />
        </mxCell>
        <mxCell id="kIMGEz0QDYV-E_OhELrM-46" value="&lt;font style=&quot;font-size: 14px;&quot;&gt;&lt;b style=&quot;text-align: left;&quot;&gt;Step 3.&amp;nbsp;&amp;nbsp;&lt;/b&gt;Estimate p-value for differential metrics&lt;/font&gt;" style="text;html=1;align=center;verticalAlign=middle;resizable=0;points=[];autosize=1;strokeColor=none;fillColor=none;" vertex="1" parent="1">
          <mxGeometry x="-659" y="-2244.5299999999997" width="320" height="30" as="geometry" />
        </mxCell>
        <mxCell id="kIMGEz0QDYV-E_OhELrM-47" value="&lt;font style=&quot;font-size: 14px;&quot;&gt;&lt;b style=&quot;text-align: left;&quot;&gt;Step 4.&amp;nbsp;&amp;nbsp;&lt;/b&gt;Correct for multiple testing&lt;br&gt;&lt;font style=&quot;font-size: 14px;&quot;&gt;and select differential edges&lt;/font&gt;&lt;/font&gt;" style="text;html=1;align=center;verticalAlign=middle;resizable=0;points=[];autosize=1;strokeColor=none;fillColor=none;" vertex="1" parent="1">
          <mxGeometry x="-297" y="-2480" width="240" height="50" as="geometry" />
        </mxCell>
        <mxCell id="kIMGEz0QDYV-E_OhELrM-48" value="" style="group;fontSize=14;" vertex="1" connectable="0" parent="1">
          <mxGeometry x="-1106.97" y="-2120.67" width="180" height="180" as="geometry" />
        </mxCell>
        <mxCell id="kIMGEz0QDYV-E_OhELrM-49" value="&lt;font style=&quot;font-size: 9px;&quot;&gt;TF&lt;sub&gt;2&lt;/sub&gt;&lt;/font&gt;" style="ellipse;whiteSpace=wrap;html=1;aspect=fixed;strokeColor=#666666;strokeWidth=1;fillColor=#f5f5f5;fontColor=#333333;" vertex="1" parent="kIMGEz0QDYV-E_OhELrM-48">
          <mxGeometry x="53.513513513513516" y="48.64864864864865" width="27.56756756756757" height="27.56756756756757" as="geometry" />
        </mxCell>
        <mxCell id="kIMGEz0QDYV-E_OhELrM-50" style="rounded=0;orthogonalLoop=1;jettySize=auto;html=1;endArrow=openThin;endFill=0;strokeWidth=2;strokeColor=#666666;endSize=3;" edge="1" parent="kIMGEz0QDYV-E_OhELrM-48" source="kIMGEz0QDYV-E_OhELrM-51" target="kIMGEz0QDYV-E_OhELrM-49">
          <mxGeometry relative="1" as="geometry" />
        </mxCell>
        <mxCell id="kIMGEz0QDYV-E_OhELrM-51" value="&lt;font style=&quot;font-size: 9px;&quot;&gt;TF&lt;sub&gt;1&lt;/sub&gt;&lt;/font&gt;" style="ellipse;whiteSpace=wrap;html=1;aspect=fixed;strokeColor=#666666;strokeWidth=1;fillColor=#f5f5f5;fontColor=#333333;" vertex="1" parent="kIMGEz0QDYV-E_OhELrM-48">
          <mxGeometry x="81.08108108108108" y="81.08108108108108" width="27.56756756756757" height="27.56756756756757" as="geometry" />
        </mxCell>
        <mxCell id="kIMGEz0QDYV-E_OhELrM-52" value="&lt;font style=&quot;font-size: 9px;&quot;&gt;TF&lt;sub&gt;3&lt;/sub&gt;&lt;/font&gt;" style="ellipse;whiteSpace=wrap;html=1;aspect=fixed;strokeColor=#666666;strokeWidth=1;fillColor=#f5f5f5;fontColor=#333333;" vertex="1" parent="kIMGEz0QDYV-E_OhELrM-48">
          <mxGeometry x="108.64864864864866" y="48.64864864864865" width="27.56756756756757" height="27.56756756756757" as="geometry" />
        </mxCell>
        <mxCell id="kIMGEz0QDYV-E_OhELrM-53" style="edgeStyle=none;rounded=0;orthogonalLoop=1;jettySize=auto;html=1;endArrow=openThin;endFill=0;strokeColor=#666666;strokeWidth=2;endSize=3;" edge="1" parent="kIMGEz0QDYV-E_OhELrM-48" source="kIMGEz0QDYV-E_OhELrM-51" target="kIMGEz0QDYV-E_OhELrM-52">
          <mxGeometry relative="1" as="geometry" />
        </mxCell>
        <mxCell id="kIMGEz0QDYV-E_OhELrM-54" value="&lt;font style=&quot;font-size: 9px;&quot;&gt;TF&lt;sub&gt;4&lt;/sub&gt;&lt;/font&gt;" style="ellipse;whiteSpace=wrap;html=1;aspect=fixed;strokeColor=#666666;strokeWidth=1;fillColor=#f5f5f5;fontColor=#333333;" vertex="1" parent="kIMGEz0QDYV-E_OhELrM-48">
          <mxGeometry x="108.64864864864866" y="113.51351351351352" width="27.56756756756757" height="27.56756756756757" as="geometry" />
        </mxCell>
        <mxCell id="kIMGEz0QDYV-E_OhELrM-55" style="edgeStyle=none;rounded=0;orthogonalLoop=1;jettySize=auto;html=1;entryX=0;entryY=0;entryDx=0;entryDy=0;endArrow=openThin;endFill=0;strokeColor=#666666;strokeWidth=2;endSize=3;" edge="1" parent="kIMGEz0QDYV-E_OhELrM-48" source="kIMGEz0QDYV-E_OhELrM-51" target="kIMGEz0QDYV-E_OhELrM-54">
          <mxGeometry relative="1" as="geometry" />
        </mxCell>
        <mxCell id="kIMGEz0QDYV-E_OhELrM-56" value="&lt;font style=&quot;font-size: 9px;&quot;&gt;TF&lt;sub&gt;5&lt;/sub&gt;&lt;/font&gt;" style="ellipse;whiteSpace=wrap;html=1;aspect=fixed;strokeColor=#666666;strokeWidth=1;fillColor=#f5f5f5;fontColor=#333333;" vertex="1" parent="kIMGEz0QDYV-E_OhELrM-48">
          <mxGeometry x="53.513513513513516" y="113.51351351351352" width="27.56756756756757" height="27.56756756756757" as="geometry" />
        </mxCell>
        <mxCell id="kIMGEz0QDYV-E_OhELrM-57" style="edgeStyle=none;rounded=0;orthogonalLoop=1;jettySize=auto;html=1;entryX=1;entryY=0;entryDx=0;entryDy=0;endArrow=openThin;endFill=0;strokeColor=#666666;strokeWidth=2;endSize=3;" edge="1" parent="kIMGEz0QDYV-E_OhELrM-48" source="kIMGEz0QDYV-E_OhELrM-51" target="kIMGEz0QDYV-E_OhELrM-56">
          <mxGeometry relative="1" as="geometry" />
        </mxCell>
        <mxCell id="kIMGEz0QDYV-E_OhELrM-58" value="&lt;font style=&quot;font-size: 9px;&quot;&gt;g&lt;sub&gt;3&lt;/sub&gt;&lt;/font&gt;" style="ellipse;whiteSpace=wrap;html=1;aspect=fixed;strokeColor=#666666;strokeWidth=1;fillColor=#f5f5f5;fontColor=#333333;" vertex="1" parent="kIMGEz0QDYV-E_OhELrM-48">
          <mxGeometry x="129.72972972972974" width="27.56756756756757" height="27.56756756756757" as="geometry" />
        </mxCell>
        <mxCell id="kIMGEz0QDYV-E_OhELrM-59" style="edgeStyle=none;rounded=0;orthogonalLoop=1;jettySize=auto;html=1;endArrow=openThin;endFill=0;strokeColor=#666666;strokeWidth=2;endSize=3;" edge="1" parent="kIMGEz0QDYV-E_OhELrM-48" source="kIMGEz0QDYV-E_OhELrM-52" target="kIMGEz0QDYV-E_OhELrM-58">
          <mxGeometry relative="1" as="geometry" />
        </mxCell>
        <mxCell id="kIMGEz0QDYV-E_OhELrM-60" value="&lt;font style=&quot;font-size: 9px; line-height: 1;&quot;&gt;g&lt;sub&gt;4&lt;/sub&gt;&lt;/font&gt;" style="ellipse;whiteSpace=wrap;html=1;aspect=fixed;strokeColor=#666666;strokeWidth=1;fillColor=#f5f5f5;fontColor=#333333;" vertex="1" parent="kIMGEz0QDYV-E_OhELrM-48">
          <mxGeometry x="162.16216216216216" y="48.64864864864865" width="27.56756756756757" height="27.56756756756757" as="geometry" />
        </mxCell>
        <mxCell id="kIMGEz0QDYV-E_OhELrM-61" style="edgeStyle=none;rounded=0;orthogonalLoop=1;jettySize=auto;html=1;entryX=0;entryY=0.5;entryDx=0;entryDy=0;endArrow=openThin;endFill=0;strokeColor=#666666;strokeWidth=2;endSize=3;" edge="1" parent="kIMGEz0QDYV-E_OhELrM-48" source="kIMGEz0QDYV-E_OhELrM-52" target="kIMGEz0QDYV-E_OhELrM-60">
          <mxGeometry relative="1" as="geometry" />
        </mxCell>
        <mxCell id="kIMGEz0QDYV-E_OhELrM-62" value="&lt;font style=&quot;font-size: 9px;&quot;&gt;g&lt;sub&gt;5&lt;/sub&gt;&lt;/font&gt;" style="ellipse;whiteSpace=wrap;html=1;aspect=fixed;strokeColor=#666666;strokeWidth=1;fillColor=#f5f5f5;fontColor=#333333;" vertex="1" parent="kIMGEz0QDYV-E_OhELrM-48">
          <mxGeometry x="162.16216216216216" y="113.51351351351352" width="27.56756756756757" height="27.56756756756757" as="geometry" />
        </mxCell>
        <mxCell id="kIMGEz0QDYV-E_OhELrM-63" style="edgeStyle=none;rounded=0;orthogonalLoop=1;jettySize=auto;html=1;endArrow=openThin;endFill=0;strokeColor=#666666;strokeWidth=2;endSize=3;" edge="1" parent="kIMGEz0QDYV-E_OhELrM-48" source="kIMGEz0QDYV-E_OhELrM-54" target="kIMGEz0QDYV-E_OhELrM-62">
          <mxGeometry relative="1" as="geometry" />
        </mxCell>
        <mxCell id="kIMGEz0QDYV-E_OhELrM-64" value="&lt;font style=&quot;font-size: 9px;&quot;&gt;g&lt;sub&gt;6&lt;/sub&gt;&lt;/font&gt;" style="ellipse;whiteSpace=wrap;html=1;aspect=fixed;strokeColor=#666666;strokeWidth=1;fillColor=#f5f5f5;fontColor=#333333;" vertex="1" parent="kIMGEz0QDYV-E_OhELrM-48">
          <mxGeometry x="129.72972972972974" y="162.16216216216216" width="27.56756756756757" height="27.56756756756757" as="geometry" />
        </mxCell>
        <mxCell id="kIMGEz0QDYV-E_OhELrM-65" style="edgeStyle=none;rounded=0;orthogonalLoop=1;jettySize=auto;html=1;endArrow=openThin;endFill=0;strokeColor=#666666;strokeWidth=2;endSize=3;" edge="1" parent="kIMGEz0QDYV-E_OhELrM-48" source="kIMGEz0QDYV-E_OhELrM-54" target="kIMGEz0QDYV-E_OhELrM-64">
          <mxGeometry relative="1" as="geometry" />
        </mxCell>
        <mxCell id="kIMGEz0QDYV-E_OhELrM-66" value="&lt;font style=&quot;font-size: 9px;&quot;&gt;g&lt;sub&gt;7&lt;/sub&gt;&lt;/font&gt;" style="ellipse;whiteSpace=wrap;html=1;aspect=fixed;strokeColor=#666666;strokeWidth=1;fillColor=#f5f5f5;fontColor=#333333;" vertex="1" parent="kIMGEz0QDYV-E_OhELrM-48">
          <mxGeometry x="32.432432432432435" y="162.16216216216216" width="27.56756756756757" height="27.56756756756757" as="geometry" />
        </mxCell>
        <mxCell id="kIMGEz0QDYV-E_OhELrM-67" style="edgeStyle=none;rounded=0;orthogonalLoop=1;jettySize=auto;html=1;endArrow=openThin;endFill=0;strokeColor=#666666;strokeWidth=2;endSize=3;" edge="1" parent="kIMGEz0QDYV-E_OhELrM-48" source="kIMGEz0QDYV-E_OhELrM-56" target="kIMGEz0QDYV-E_OhELrM-66">
          <mxGeometry relative="1" as="geometry" />
        </mxCell>
        <mxCell id="kIMGEz0QDYV-E_OhELrM-68" value="&lt;font style=&quot;font-size: 9px;&quot;&gt;g&lt;sub&gt;8&lt;/sub&gt;&lt;/font&gt;" style="ellipse;whiteSpace=wrap;html=1;aspect=fixed;strokeColor=#666666;strokeWidth=1;fillColor=#f5f5f5;fontColor=#333333;" vertex="1" parent="kIMGEz0QDYV-E_OhELrM-48">
          <mxGeometry y="113.51351351351352" width="27.56756756756757" height="27.56756756756757" as="geometry" />
        </mxCell>
        <mxCell id="kIMGEz0QDYV-E_OhELrM-69" style="edgeStyle=none;rounded=0;orthogonalLoop=1;jettySize=auto;html=1;entryX=1;entryY=0.5;entryDx=0;entryDy=0;endArrow=openThin;endFill=0;strokeColor=#666666;strokeWidth=2;endSize=3;" edge="1" parent="kIMGEz0QDYV-E_OhELrM-48" source="kIMGEz0QDYV-E_OhELrM-56" target="kIMGEz0QDYV-E_OhELrM-68">
          <mxGeometry relative="1" as="geometry" />
        </mxCell>
        <mxCell id="kIMGEz0QDYV-E_OhELrM-70" value="&lt;font style=&quot;font-size: 9px;&quot;&gt;g&lt;sub&gt;2&lt;/sub&gt;&lt;/font&gt;" style="ellipse;whiteSpace=wrap;html=1;aspect=fixed;strokeColor=#666666;strokeWidth=1;fillColor=#f5f5f5;fontColor=#333333;" vertex="1" parent="kIMGEz0QDYV-E_OhELrM-48">
          <mxGeometry x="32.432432432432435" width="27.56756756756757" height="27.56756756756757" as="geometry" />
        </mxCell>
        <mxCell id="kIMGEz0QDYV-E_OhELrM-71" style="edgeStyle=none;rounded=0;orthogonalLoop=1;jettySize=auto;html=1;endArrow=openThin;endFill=0;strokeColor=#666666;strokeWidth=2;endSize=3;" edge="1" parent="kIMGEz0QDYV-E_OhELrM-48" source="kIMGEz0QDYV-E_OhELrM-49" target="kIMGEz0QDYV-E_OhELrM-70">
          <mxGeometry relative="1" as="geometry" />
        </mxCell>
        <mxCell id="kIMGEz0QDYV-E_OhELrM-72" value="&lt;font style=&quot;font-size: 9px;&quot;&gt;g&lt;sub&gt;1&lt;/sub&gt;&lt;/font&gt;" style="ellipse;whiteSpace=wrap;html=1;aspect=fixed;strokeColor=#666666;strokeWidth=1;fillColor=#f5f5f5;fontColor=#333333;" vertex="1" parent="kIMGEz0QDYV-E_OhELrM-48">
          <mxGeometry y="48.64864864864865" width="27.56756756756757" height="27.56756756756757" as="geometry" />
        </mxCell>
        <mxCell id="kIMGEz0QDYV-E_OhELrM-73" style="edgeStyle=none;rounded=0;orthogonalLoop=1;jettySize=auto;html=1;endArrow=openThin;endFill=0;strokeColor=#666666;strokeWidth=2;endSize=3;" edge="1" parent="kIMGEz0QDYV-E_OhELrM-48" source="kIMGEz0QDYV-E_OhELrM-49" target="kIMGEz0QDYV-E_OhELrM-72">
          <mxGeometry relative="1" as="geometry" />
        </mxCell>
        <mxCell id="kIMGEz0QDYV-E_OhELrM-74" value="&lt;div style=&quot;text-align: left&quot;&gt;&lt;b&gt;&lt;font style=&quot;font-size: 15px;&quot;&gt;input&lt;/font&gt;&lt;/b&gt;&lt;/div&gt;" style="text;html=1;align=center;verticalAlign=middle;resizable=0;points=[];autosize=1;strokeColor=none;fillColor=none;" vertex="1" parent="1">
          <mxGeometry x="-1037.55" y="-2456" width="55" height="30" as="geometry" />
        </mxCell>
        <mxCell id="kIMGEz0QDYV-E_OhELrM-124" value="&lt;b&gt;Differential co-expression&lt;/b&gt;" style="text;html=1;align=center;verticalAlign=middle;resizable=0;points=[];autosize=1;strokeColor=none;fillColor=none;" vertex="1" parent="1">
          <mxGeometry x="-279.09263157894736" y="-2422.61701986755" width="170" height="30" as="geometry" />
        </mxCell>
        <mxCell id="kIMGEz0QDYV-E_OhELrM-125" value="&lt;b&gt;Differential regulation&lt;/b&gt;" style="text;html=1;align=center;verticalAlign=middle;resizable=0;points=[];autosize=1;strokeColor=none;fillColor=none;" vertex="1" parent="1">
          <mxGeometry x="-269.82105263157894" y="-2240.842185430464" width="150" height="30" as="geometry" />
        </mxCell>
        <mxCell id="kIMGEz0QDYV-E_OhELrM-126" value="&lt;b&gt;Differential regulation from TFs&lt;/b&gt;" style="text;html=1;align=center;verticalAlign=middle;resizable=0;points=[];autosize=1;strokeColor=none;fillColor=none;" vertex="1" parent="1">
          <mxGeometry x="-293" y="-2057.484569536424" width="200" height="30" as="geometry" />
        </mxCell>
        <mxCell id="kIMGEz0QDYV-E_OhELrM-129" value="" style="group" vertex="1" connectable="0" parent="1">
          <mxGeometry x="-610" y="-2205" width="269" height="361" as="geometry" />
        </mxCell>
        <mxCell id="kIMGEz0QDYV-E_OhELrM-130" value="" style="shape=image;verticalLabelPosition=bottom;labelBackgroundColor=default;verticalAlign=top;aspect=fixed;imageAspect=0;image=data:image/png,iVBORw0KGgoAAAANSUhEUgAAAk0AAAG5CAIAAAAcc5edAAAAAXNSR0IArs4c6QAAIABJREFUeAHt3Ql4FEXaB/DqZCYnycQkZIaBcMQFBMJlwHApQU4Bg7CKCsbwgRIMBsIhwuKnQZcg7C73ISoS5BB2WYJ8oBJQiSIoEECOcAkBwhHCkftOpr9n0ktvM5lMppM5qrv/8+TR7uruqvf9VZFK9/T0MCzLErwgAAEIQAACMhVwkWleSAsCEIAABCBgFMA8h3EAAQhAAAJyFsA8J+feRW4QgAAEIIB5DmMAAhCAAATkLIB5Ts69i9wgAAEIQADzHMYABCAAAQjIWQDznJx7F7lBAAIQgIBKsQQGg+HWrVs+Pj4MwygWAYlDAAIQkIEAy7IFBQV6vd7FxczJm3LnuVu3bgUHB8ugg5ECBCAAAQgQQjIzM5s1a1aTQrnznI+PD+fi6+tb0wUl0hYoKiJ6vTGFW7eIt7e0c0H09hDACLGHqvPqzM/PDw4O5n6r14xCufMcd7nSt/pV0wUl0hZwdf1P/L6+mOek3ZV2ih4jxE6wTq22tjehzFzKdGqcaBwCEIAABCBgSwHMc7bURF0QgAAEIECbgHKvW9LWE4jHlgIqFYmONlaowgi3pat86sIIkU9f1p0Jo9jv5cnPz9doNHl5ebgPpe5hgj0gAAEIUCxg+fc5rltS3HUIDQIQgAAEGiyAqzoNJkQFFAqwLCkuNsbl5UXwHAAKO8jpIWGEOL0LHBgAzucciI2mHCZQXEwaNTL+cLOdw9pFQ1IRwAiRSk/ZIk7Mc7ZQRB0QgAAEIECrAOY5WnsGcUEAAhCAgC0EMM/ZQhF1QAACEIAArQKY52jtGcQFAQhAAAK2EMA8ZwtF1AEBCEAAArQKYJ6jtWcQFwQgAAEI2EIAn5+zhSLqoE3A1ZW8+KIxKP6x9LRFiHicK4AR4lx/x7aO537huV+OHXFoDQIQgICtBSw/9wvnc7b2Rn0QcLbAxyfuCUOY3TVQuIplCChNwGnvz/3000/PP/+8Xq9nGGbnzp28O8uyCQkJer3e09MzIiLi7Nmz/KaysrK4uLjAwEBvb+/IyMgbN27wm3JycqKiojTVr6ioqNzcXH4TFiAAAQhAQMkCTpvnioqKOnfuvHLlShP9RYsWLV68eOXKlUePHtXpdAMHDiwoKOD2iY+PT05O3rp168GDBwsLC4cPH15VVcVtGjNmzMmTJ7+rfp08eTIqKsqkWqwqS6CoyPhYS4YhRUXKShzZWimAEWIllCx2c9p1y+eqXyaGLMsuXbp07ty5o0aNIoRs2LBBq9Vu2bIlJiYmLy9v3bp1GzduHDBgACFk06ZNwcHB+/fvHzx48Llz57777rtff/01PDycEPLZZ5/17NnzwoULbdu2Nam/rPrFFebn55tsxSoEIMALCC9+4sonz4IFKQo47XzOLFZGRkZWVtagQYO4re7u7n379j106BAhJC0traKigt+k1+tDQ0O5TYcPH9ZoNNwkRwjp0aOHRqPhNpm0smDBAu7apkajCQ4ONtmKVQhIV+DjE/f4H+lmgcghYA8Buua5rKwsQohWq+VT1Wq1XGFWVpabm9tjjz1mdlNQUBBfTggJCgrijhIWEkLmzJmT9/CVmZlpshWrEIAABCAgPwGnXbe0QMkIvjCMZVnhqvAo4SaTfYSbhIe4V7+EJViGAAQgAAF5C9B1PqfT6QghwlOx7Oxs7vROp9OVl5fn5OTw/SHcdOfOHb6cEHL37l3hSaFwE5YhAAEIQEBRAnTNc61atdLpdPv27eP6oLy8PDU1tVevXoSQsLAwtVrNb7p9+/aZM2e4TT179szLyzty5Ah31G+//ZaXl8dtUlRfIlkIQAACEKgp4LTrloWFhX/88QcXUEZGxsmTJ/39/Zs3bx4fH5+YmNi6+pWYmOjl5TVmzBhCiEajmTBhwowZMwICAvz9/WfOnNmxY0fu3st27doNGTLkzTffXLt2LSFk4sSJw4cPr3mzZc3kUSJbAVdXMnSoMTs890u2fdywxDBCGuYnraOdNs8dO3asX79+HNb06dMJIdHR0UlJSbNmzSopKYmNjc3JyQkPD09JSfHx8eF2W7JkiUqlGj16dElJSf/+/ZOSklwf/hbbvHnzlClTuLsxIyMja34sT1q9gmgbKuDhQfbsaWglcjneyk8ICHeTS+q154ERUruN/Lbg+ZZ4vqX8RrUSM7JylrLwSTgLNVg4SonWyJk+ATzfkr4+QUQQoEPAwtxGR4CIAgI2EKDrPhQbJIQqIECI8XFf3t7GHzz3C+PBrABGiFkWmRY67f05mXoiLWoEioupCQWBUCmAEUJlt9gjKJzP2UMVdUIAAhCAAC0CmOdo6QnEAQEIQAAC9hDAPGcPVdQJAQhAAAK0CGCeo6UnEAcEIAABCNhDAPOcPVRRJwQgAAEI0CKA+y1p6QnEYUsBFxfSt6+xQhf8JWdLV/nUhREin76sOxPMc3UbYQ/pCXh6kgMHpBc2InaYAEaIw6gpaAh/7VLQCQgBAhCAAATsJoB5zm60qBgCEIAABCgQwDxHQScgBJsLFBWRxo2NP3jul81t5VEhRog8+tG6LPD+nHVO2EtyAvfuSS5kBOxQAYwQh3I7szGczzlTH21DAAIQgIC9BTDP2VsY9UMAAhCAgDMFMM85Ux9tQwACEICAvQUwz9lbGPVDAAIQgIAzBTDPOVMfbUMAAhCAgL0FcL+lvYVRvzMEXFxIt27GhvHcL2fwS6BNjBAJdJLNQsQ8ZzNKVESRgKcnOXqUongQCm0CGCG09Yg948F1S3vqom4IQAACEHC2AOY5Z/cA2ocABCAAAXsK4LqlPXVRt7MEiotJ+/bGxtPTiZeXs6KQTbsfn3jk4TKzuwZKPjWMEMl3oYgEMM+JwMKukhFgWXLtmjFalpVMzAjUkQIYIY7UdnZbmOec3QNoHwJWCwjPq+RwUmV14tgRAg0RwPtzDdHDsRCAAAQgQLsA5jnaewjxQQACEIBAQwQwzzVED8dCAAIQgADtAnh/jvYeQnwQsKGA8B0+G1aLqiBAswDmOZp7B7HVV4Bh/vO5AoapbxU4TtYCGCGy7l6T5DDPmYBgVRYCXl7k7FlZZIIk7COAEWIfVzprxTxHZ78gKgjUIeDEK5DCpvHxhjr6CZspEMB9KBR0AkKAAAQgAAG7CWCesxstKnaiQHEx6dDB+FNc7MQo0DS9Ahgh9PaN7SPDdUvbm6JG5wuwrPHJlnjul/N7gtYIMEJo7Rl7xIXzOXuook4IQAACEKBFAPMcLT2BOCAAAQhAwB4CuG5pD1XUCQHbCAjvbLRNjagFAsoTwPmc8vocGUMAAhBQkgDmOSX1NnKFAAQgoDwBXLdUXp8rIWOGIS1aGBPFc7+U0N31yBEjpB5okj0E85xkuw6BWxDw8iJXr1rYjk1KF8AIUdIIwHVLJfU2coUABCCgPAGczymvz5Ex3QK4x5Lu/kF00hPA+Zz0+gwR1y1QUkK6dzf+lJTUvTP2UKAARoiSOh3nc0rqbeXkajCQY8eM6RoMykkamYoQwAgRgSX5XXE+J/kuRAIQgAAEIGBBAPOcBRxsggAEIAAByQtgnpN8FyIBCEAAAhCwIIB5zgIONkEAAhCAgOQFMM9JvguRAAQgAAEIWBDA/ZYWcLBJygKBgVKOHrHbXwAjxP7GlLSAeY6SjkAYNhXw9iZ379q0RlQmLwGMEHn1p+VscN3Ssg+2QgACEICAtAUwz0m7/xA9BCAAAQhYFsA8Z9kHW6UpUFJCIiKMP3julzQ70O5RY4TYnZiiBvD+HEWdgVBsJmAwkNRUY2147pfNTK2qSPgQ6tldKb4VCCPEqv6UyU7Unc9VVla+9957rVq18vT0DAkJ+fDDDw0Pf1WxLJuQkKDX6z09PSMiIs6ePct3QllZWVxcXGBgoLe3d2Rk5I0bN/hNWIAABCAAASULUDfPLVy48JNPPlm5cuW5c+cWLVr0t7/9bcWKFVwPLVq0aPHixStXrjx69KhOpxs4cGBBQQG3KT4+Pjk5eevWrQcPHiwsLBw+fHhVVZWS+xW5QwACEIAAJ0DddcvDhw+PGDFi2LBhhJCWLVt+9dVXx6ofPM+y7NKlS+fOnTtq1ChCyIYNG7Ra7ZYtW2JiYvLy8tatW7dx48YBAwYQQjZt2hQcHLx///7BgwejmyEAAQhAQOEC1J3P9enT5/vvv7948SIh5Pfffz948ODQoUMJIRkZGVlZWYMGDeI6zN3dvW/fvocOHSKEpKWlVVRU8Jv0en1oaCi3yaR3y8rK8gUvk61YhQAEIAAB+QlQdz737rvv5uXlPfHEE66urlVVVfPnz3/11VcJIVlZWYQQrVbL94FWq7127Rq3yc3N7bHHHhNu4vbnS7iFBQsWzJs3z6QQqxCAAAQgIGMB6ua5bdu2bdq0acuWLR06dDh58mR8fLxer4+Ojub6gGEYvjNYlhWu8uWEkNo2zZkzZ/r06dye+fn5wcHBwqOwLCsBLy+a05HMfYk0IzYwNrpHSAOTw+FCAermuXfeeWf27NmvvPIKIaRjx47Xrl1bsGBBdHS0TqfjTt2aNGnCJZCdnc2d3ul0uvLy8pycHP6ULjs7u1evXsI8uWX36lfNcpTITcDbmxQVyS0p5GNDAYwQG2JSXxV1788VFxe7uPw3KldXV+5zBa1atdLpdPv27eNIy8vLU1NTucksLCxMrVbzm27fvn3mzBmz8xz13YEAIQABCEDAxgLUnc89//zz8+fPb968eYcOHU6cOLF48eLx48cTQhiGiY+PT0xMbF39SkxM9PLyGjNmDCFEo9FMmDBhxowZAQEB/v7+M2fO7NixI3fvpY21UB0EIAABCEhNgLp5bsWKFf/7v/8bGxubnZ2t1+tjYmLef/99TnXWrFklJSWxsbE5OTnh4eEpKSk+Pj7cpiVLlqhUqtGjR5eUlPTv3z8pKcnV1VVqfYF4bSdQWkr+/Gdjdf/+N/HwsF29qEkuAhghculJa/JgWJa1Zj/57ZOfn6/RaPLy8nx9feWXndIzKioijRoZEQoLibc3hRoW7kMRbqIwcpOQTB7uJQzeZJPJgU5epX6EONlHas1b/n3+33fCpJYX4oUABCAAAQjULUDddcu6Q8YeEIAANQLCEzhqgkIgEHhEAOdzj3BgBQIQgAAEZCaAeU5mHYp0IAABCEDgEQHMc49wYAUCEIAABGQmgHlOZh2KdCAAAQhA4BEB3IfyCAdWZCLg7U0o+8AM7tega2jRN0Lo8pFXNDifk1d/IhsIQAACEHhUAOdzj3pgDQIOF8CpnsPJ0aCyBHA+p6z+Vkq2paXkpZeMP6WlSkkZeYoSwAgRxSXxnTHPSbwDEb5Zgaoqsn278aeqyux2FCpdACNESSMA85ySehu5QgACEFCeAN6fU16fI2MIOETA5H1Hqh/r7BAQNOIsAZzPOUse7UIAAhCAgCMEMM85QhltQAACEICAswQwzzlLHu1CAAIQgIAjBDDPOUIZbUAAAhCAgLMEcB+Ks+TRrj0FvLyM3yROCPHysmczqFuyAhghku26egSOea4eaDiEegGGId7e1EeJAJ0ngBHiPHvHt4zrlo43R4sQgAAEIOA4AcxzjrNGS44TKCsj48YZf8rKHNcoWpKQAEaIhDqrwaFinmswISqgUKCykmzYYPyprKQwOoTkfAGMEOf3geMiwDznOGu0BAEIQAACjhfAPOd4c7QIAQhAAAKOE8A85zhrtAQBCEAAAo4XwOcKHG+OFiGgRAHhY53xTGcljgDn5YzzOefZo2UIQAACELC/AOY5+xujBQhAAAIQcJ4Arls6zx4t20/Ay4tkZxurx3O/7Ics6ZoxQiTdfSKDxzwnEgy7S0KAYUjjxpKIFEE6RwAjxDnuzmlV9HXLiooK50SKViEAAQhAAALiBUTPc3q9fubMmRcuXBDfFo6AgKMEysrI5MnGHzz3y1HkEmsHI0RiHdagcBmWZUVV4OLiwjAMIeTpp5+eOHHiiy++6ObmJqoGSnbOz8/XaDR5eXm+vr6UhIQwbCZQVEQaNTLWVlhIyRcXCO+qt1makq3I+Z8roG+ESLYzqQjc8u9z0edzu3fvjoyMdHV1/emnn6KiovR6/fTp08+dO0dFrggCAhCAAAQg8KiA6Hlu6NChycnJmZmZ8+fPDwkJefDgwbJly0JDQ5955plNmzaVlpY+Wj/WIAABCEAAAs4UED3PccFqtdo5c+ZcunRp//79L730klqtPnjwYHR0tF6vnzp16pkzZ5yZE9qGAAQgAAEIPBSo5zz38HDy7LPPbt269ebNm3//+9+feOKJ3NzclStXdu7cuXfv3hs3biwvL+f3xAIEIAABCEDA8QINnee4iAMCAvr37x8REaFSqdjq1+HDh8eNGxcSErJp0ybHZ4UWIQABCEAAApxAQz8nXlRU9NVXX3366adpaWmEEJZl+/XrFxMTc+vWrbVr1164cCE6Orq8vHz8+PEQh4DSBHCPpdJ6HPnSKVD/ee7YsWOfffbZ1q1bCwsLWZYNCAiIjo6OiYlp3bo1l2p8fPwnn3wSGxu7ePFizHN0dr9so/L0JBkZxuw8PWWbIxJriABGSEP0pHas6M/P5efnb968+bPPPvv999+5z9716tVr0qRJL730kru7e830O3XqdPHiRQrvw7T8eYuaiaAEAmIFcD5npZjzP05nZaDYjVYBy7/PRZ/P6fX6kpISlmV9fX1fe+21SZMmhYaGWsjd398fjwqz4INNEIAABCBgVwHR81xxcXFYWFhMTMyYMWO8rHgY/LJly3Jzc+2aAyqHgKlAeTmZO9dYOH8+kebzekwzwrptBTBCbOtJd22ir1seO3asW7dudCdlVXSWz3OtqgI7UStAx1OdcN3SygHihOuWdIwQK32wW50Cln+fi/5cgTwmuTrVsAMEIAABCMhDQPQ8l5mZuXz58u+//95s/vv371++fPnNmzfNbkUhBCAAAQhAwMECoue5zz//fNq0aQ8ePDAbaG5u7rRp07744guzW1EIAQhAAAIQcLCA6Hnu22+/dXNzGzlypNlAR4wY4ebm9s0335jdikIIQAACEICAgwVEz3PXrl1r3ry5SmX+Rk21Wt28efOrV686OA00BwEIQAACEDArYH66MrsrV5iXl9eyZUsLO/j5+V27ds3CDtgEAbkK4AZLufYs8pK0gOh5LjAw8PLly7XlzLLs5cuXH3vssdp2QDkEHCHg6Um4L4fCc78cwS3BNjBCJNhp9Q5Z9HXL7t275+Tk/POf/zTb5Pbt2x88eIDPHpjFQaHjBFxcSIcOxh8X0SPccUGiJScKYIQ4Ed/hTYv+LTB+/HiWZWNiYvbt22cS7f79+ydOnMgwDJ7abCKDVQhAAAIQcJaA6OuWzz///KhRo3bs2DFkyJBu3br17t3bz88vNzf3l19+OXbsGMuyI0aMqO1uTGcliXYVJ1BeThITjVn/5S947pfiet+ahDFCrFGSyz6in/tFCCkrK4uNjU1KSmJZlmEYjoJbHjdu3KpVqzw8POj3sfycGPrjR4SWBJz0VCfch2KpU2rfhud+1W6DLVYJWP59Lvp8jhDi7u6+bt266dOnb9++/fTp0/n5+b6+vp06dfrzn//coUMHq4LCThCAAAQgAAGHCNRnnuMC61D9ckiQaAQCEIAABCBQTwHR96HUsx0cBgEIQAACEHCGQP3P55wRLdqEAARkKCB8X9MJ79XJUBQpPSJQn/O5wsLCjz76qHv37n5+fiqVyrXGq7angj3Scu0rN2/efO211wICAry8vLp06ZKWlsbty7JsQkKCXq/39PSMiIg4e/YsX0dZWVlcXFxgYKC3t3dkZOSNGzf4TViAAAQgAAElC4ie5+7evdutW7eEhIS0tLT8/HyDwcDWeBkMhnqb5uTk9O7dW61Wf/vtt+np6f/4xz/8/Py42hYtWrR48eKVK1cePXpUp9MNHDiwoKCA2xQfH5+cnLx169aDBw8WFhYOHz68qqqq3jHgQAhAAAIQkI2A6OuW77///sWLF7Va7axZs3r27KnVal1s+siJhQsXBgcHr1+/niPmn6XJsuzSpUvnzp07atQoQsiGDRu0Wu2WLVtiYmLy8vLWrVu3cePGAQMGEEI2bdoUHBy8f//+wYMHm/RTWfWLK8zPzzfZilX5CHh4kCNHjOlI4SMu8mGXUCYYIRLqrAaHKnqe27Nnj6ur67ffftulS5cGt26mgl27dg0ePPill15KTU1t2rRpbGzsm2++SQjJyMjIysoaNGgQd4y7u3vfvn0PHToUExOTlpZWUVHBb9Lr9aGhoYcOHao5zy1YsGDevHlmWkWRzARcXUn37o7JSfjekmNaRCs2EHDgCLFBtKiiYQKir1tmZ2eHhITYaZIjhFy5cmXNmjWtW7feu3fvpEmTpkyZ8uWXXxJCsrKyCCFarZbPV6vVcoVZWVlubm7Ch0fzm/iduYU5c+bkPXxlZmaabMUqBCAAAQjIT0D0+Vzjxo0bNWpkPwiDwdCtW7fE6oc2de3a9ezZs2vWrHn99de5FvnHrxBChE9jMYmntk3u1S+TnbEqQ4HycrJsmTGvqVPx3C8Z9m/DU8IIabihdGoQfT43ZMiQ9PT03NxcO+XYpEmT9u3b85W3a9fu+vXrhBCdTsef1XFbs7OzudM7nU5XXl6ek5PDH8Vv4kuwoCyBigoya5bxp6JCWYkjWysFMEKshJLFbqLnuQ8++MDLyysuLs5ONzT27t37woULvO3FixdbtGhBCGnVqpVOp+O/JKG8vDw1NbVXr16EkLCwMLVazW+6ffv2mTNnuE18PViAAAQgAAFlCoi+bnnlypWEhISZM2empaVNnDixbdu23t7eNe2eeeaZmoXWlEybNq1Xr16JiYmjR48+cuTIp9UvQgjDMPHx8YmJia2rX4mJiV5eXmPGjCGEaDSaCRMmzJgxIyAgwN/ff+bMmR07duTuvbSmRewDAQhAAAIyFhA9z0VERHBvkp0/f37GjBlmaRiGqaysNLupzsLu3bsnJyfPmTPnww8/bNWq1dKlS8eOHcsdNWvWrJKSktjY2JycnPDw8JSUFB8fH27TkiVLVCrV6NGjS0pK+vfvn5SU5OrqWmdb2AECEIAABGQvIPp7eVq2bCm8GaQ2oIyMjNo2UVJu+XscKAkSYdRTwIHfy4PPFdSzj2o5zEHP/XLgCKklURTbUsDy73PR53NXr161ZXSoCwIQgAAEIGBPAdHznD2DQd0QgAAEHhEQni476FTvkfaxIgcBzHNy6EXkYCrg4UF+/NFYiOd+mdLQvi6c2OwYK0aIHXGpq7qe85zBYNixY8f333+fmZlZUlLy/fffc5mlpaUVFRX16dPHtg+9pI4NAVEu4OpKIiIojxHhOVMAI8SZ+o5uuz7zXHp6+osvvnjhwgWWZbk7/vmoN23atHz58v379/fr148vxAIEIAABCEDAWQKiPyd+9+7dgQMHnj9/vnPnzh988MGf/vQnYehjx45lWXbXrl3CQixDwNECFRVk1SrjD56H4mh6ibSHESKRjrJJmKLP5xYtWnT79u2oqKj169e7uLjs37//8uXLfCjdunVr1KjRoUOH+BIsQMAJAuXl5O23je2OG0fUaicEgCYpF8AIobyDbBqe6PO53bt3u7u7r1ixorZ34EJCQm7evGnTIFEZBCAAAQhAoJ4Cos/nrl271rp1a19f39oa9PT0vHfvXm1bUQ4BqQs46IZAqTMhfghQIyD6fE6tVpeWllqIPzs7m38cl4XdsAkCEIAABCDgAAHR89zjjz9+7dq1Bw8emA3u0qVLGRkZwi/WMbsbCiEAAQhAAAKOERA9zw0bNqyiomLu3Lk146uqqpoyZQrDMC+88ELNrSiBAAQgAAEIOF5A9Dw3bdq0wMDATz/99M9//nNKSkpZWRkh5MGDB19//XWfPn327t0bHBw8ceJEx2eCFiEAAQhAAAI1BUTfh+Lv779r167nn38+OTl5586dXI2NGzcmhLAsGxgYmJycbPYb6Wq2jRII2EvA3Z3s3m2s3N3dXk2gXkkLYIRIuvtEBi/6fI4Q0qNHj1OnTsXGxjZu3Jh9+PLz83vjjTdOnDjRtWtXkTFgdwjYWkClIsOGGX9Uov+Ss3UoqI9KAYwQKrvFTkHV87dAkyZNVla/bt++nZOT06hRo2bNmtX2iTo7hY5qIQABCEAAAnUK1HOe4+ttUv3iV7EAASoEKirI5s3GSMaOxfNQqOgR2oLACKGtR+wZj+jvE7dnMA6t2/L3zzo0FDRmcwFbf1s0Phtu8y6qR4W2/P45W4+QeqSDQ2woYPn3uejzuS+//NKa4F5//XVrdsM+EIAABCAAAbsKiJ7nxo0bxzBMnTFhnquTCDtAAAIQgIADBETPc88880zNea68vPzy5cvZ2dnu7u49evRwQNxoAgIQgAAEIGCNgOh57sCBA7XVm5yc/MYbb7Rt2/aTTz6pbR+UQwACEIAABBwpIHqesxDcyJEjPTw8hg8f3qdPn9dee83CntgEAQhAAAIQcIxAfT4nbiGy5557rmnTpqtWrbKwDzZBAAIQgAAEHCZgy/M5LmitVnv27FmHJYCGIGBGwN2d/POfxnI898uMDoqqBwZGiGIGgo3nuaqqqj/++EMxekiUVgGVirz0Eq3BIS4KBDBCKOgEh4Vgy+uW5eXlU6dOzcvL69Spk8MSQEMQgAAEIAABCwKiz+fGjx9fszqWZe/cuXP8+PG7d+8yDDNjxoya+6AEAo4TqKwkycnG5kaOrN+jnPEAFMd1llNaavAIcUrUaLR+AqLnuaSkJIap9WlhjRo1WrRo0ciRI+sXDY6CgG0EysrI6NHGqgoL6zfP2SYM1EKtAEYItV1jh8BEz3MffPBBzTAYhvH29m7Tps2zzz6LL5+r6YMSCEAAAhBwloBt5jlnRY92IQABCEAAApYFbHkfiuWWsBUCEIAABCDgeAHMc443R4sQgAAEIOA4AdHXLa38Xh47FijdAAAgAElEQVSTDPD1BSYgWIUABCAAAccIiJ7nrPxeHpPoMc+ZgGAVAhCAAAQcIyB6nuO+l+fQoUMVFRUqlapZs2ZarfbOnTs3btyorKx0c3Pr2bOnY0JHKxCoVcDNjaxfb9zq5lbrPtigZAGMECX1vuh57scff3z55ZdVKlVCQsLkyZN9fX05rvz8/FWrVs2fPz8oKGjbtm1KMkSu9Amo1WTcOPrCQkTUCGCEUNMVDghE9Dy3fPnyf//73zt27BgxYoQwPl9f3zlz5nTo0GHkyJErVqyIi4sTbsUyBCAAAQhAwCkCou+3TEpKCg4ONpnk+NAjIyODg4O/+OILvgQLEHCCQGUl2bPH+FNZ6YTW0ST9Ahgh9PeR7SIUfT536dKlDh06WAggKCjo3LlzFnbAJgjYXaCsjAwfbmwFz/2yu7U0G8AIkWa/1S9q0fOcm5vbhQsXysrK3M19s1dpaemFCxfUanX9osFREIAABGoTMHm49uyugbXtiXIICAVEX7fs0aNHQUHBtGnThLXwyzNmzCgoKMAtlzwIFiAAAQhAwLkCos/n/vKXv6SkpKxdu/aXX36Ji4sLDQ3lPldw9uzZ5cuXnzlzxsXFZc6cOc7NCq1DAAIQgAAEOAHR81yfPn3WrVs3adKk06dPx8TECB1ZlnVzc1u9enWfPn2E5ViGAAQgAAEIOEtA9HVLQkh0dPTJkyfHjx+v0+nYhy+dTjd+/Hiu3FnJoF0IQAACEICAiYDo8znu+LZt237++eeEkPz8/IKCAh8fH/4D4yYNYBUCEIAABCDgRIF6znN8xL7VL34VCxCgQsDNjaxcaYwEz/2ioj/oCwIjhL4+sV9E9Z/nKisr09LSMjMzi4uL8Zhm+/UQaq6PgFpNJk+uz4E4RiECGCEK6ejqNOvz/hzLsvPnz9dqtb169Xr55Zf/53/+hxd78803Q0JCLl++zJdgAQIQgAAEIOBEAdHzHMuyL7300vvvv5+bm9u8efNGjRoJox8yZMjVq1e//vprYSGWIeBogaoqcuCA8aeqytFNoz1JCGCESKKbbBSk6Hnuyy+/3LFjR0hIyJEjRzIyMjp16iSMZMiQIS4uLt99952wEMsQcLRAaSnp18/4U1rq6KbRnqMEPj5xj/8R3SZGiGgyCR8gep5bv349wzBfffVVWFhYzby9vb1DQkKuXr1acxNKIAABCEAAAo4XED3PnTp1qlmzZt26dast1oCAgNu3b9e2FeUQgAAEIAABRwqInueKi4sDAgIshFhSUmJhKzZBAAIQgAAEHCkgep7TarVXrlypLcTi4uLz588HBwfXtgPKIQABCEAAAo4UED3PPf300wUFBZs3bzYb5cqVK8vLy/v162d2KwohAAEIQAACDhYQPc/FxcWxLDtlypRdu3YJYzUYDCtWrHjvvfdcXV3ffvtt4SYsQwACEIAABJwlIPp5KOHh4XPnzp0/f/7IkSN1Oh33btzzzz//22+/3b9/n2XZBQsWtGvXzln5oF0IGAXUarJo0X8WIAKBmgIYITVN5Fsi+nyOEPLRRx998skn/v7+t2/fzs3NZVl2z5499+7d8/PzW7NmzbvvvmsrrgULFjAMEx8fz1XIsmxCQoJer/f09IyIiDh79izfUFlZWVxcXGBgoLe3d2Rk5I0bN/hNWFCigJsbeecd4w+eb6nE7rciZ4wQK5Bks4vo8zku84kTJ77++us//PDD77//npOT06hRo06dOg0cONDb29tWNEePHv3000+Fn0NftGjR4sWLk5KS2rRp89e//nXgwIEXLlzw8fEhhMTHx//f//3f1q1bAwICZsyYMXz48LS0NFdXV1sFg3ogAAEIQECiAgzLsqJCnz59OsMwiYmJ7u7uog4UtXNhYeGTTz65evXqv/71r126dFm6dCnLsnq9Pj4+njtfLCsr02q1CxcujImJycvLa9y48caNG19++WVCyK1bt4KDg7/55pvBgwdbaDQ/P1+j0eTl5eEbhSwoSXVTVRU5ftwY/JNPknr9ufPxiXtSzV2Rcc/uGigu7waPEHHNYW87C1j+fS76uuXy5cv37t1r10mOEDJ58uRhw4YNGDCAx8nIyMjKyho0aBBX4u7u3rdv30OHDhFC0tLSKioq+E16vT40NJTbxB/OLZSVleULXiZbsSofgdJS8tRTxh8890s+nWrTTDBCbMpJeWWir1sGBQV5eXnZNautW7ceP3786NGjwlaysrIIIVqtli/UarXXrl0jhGRlZbm5uT322GPCTdz+fAm3sGDBgnnz5pkUYhUCEIAABGQsIHqe69279969e8vKyux0SpeZmTl16tSUlBQPD4+a7gzD8IUsywpX+XJCSG2b5syZM336dG7P/Px8fJ5diIZlXKvEGICALAVEX7ecNWtWaWnpe++9ZyeOtLS07OzssLAwVfUrNTV1+fLlKpWKO5MTnqVlZ2dzhTqdrry8PCcnhw+J38SXcAvu7u7cF6Dja9BNZLAKAQhAQK4Couc5rVb78ccfL1u2bOjQodu3bz937tx1c696e/Xv3//06dMnH766des2duzYkydPhoSE6HS6ffv2cTWXl5enpqb26tWLEBIWFqZWq/lNt2/fPnPmDLep3mHgQAhAAAIQkIeA6OuWrVq14jLfW/0yq8AwTGVlpdlNdRb6+PiEhobyu3l7ewcEBHAl8fHxiYmJratfiYmJXl5eY8aMIYRoNJoJEybMmDEjICDA399/5syZHTt2FN7DwteGBQhAAAIQUJqA6HnOms8hWLNPPaBnzZpVUlISGxubk5MTHh6ekpLCfXiOELJkyRKVSjV69OiSkpL+/fsnJSXhw3P1EMYhEIAABOQnYNXn53766SeNRtO5c2c55W/58xZyylSJuZSXk8REY+J/+Yv1j0TBfSjSHSqiPz9XrxEiXR/ZR27597lV53MRERFPP/10amqqEOvDDz9s0aJFdHS0sBDLEKBCwM2NJCRQEQmCoFMAI4TOfrFPVFbNc9yd+iYBJCQk9OnTB/OcCQtWJSSAEzgJdRZChUC9Bayd5+rdAA6EgBMEDAZy7pyx3XbtiIvom4qdEDCadLAARoiDwZ3aHOY5p/KjcTsJlJQQ7q7dwkJiu2eL2ylYVNtwAZNT87rfrsMIaTi6dGrAn7rS6StECgEIQAAC4gUwz4k3wxEQgAAEICAdAcxz0ukrRAoBCEAAAuIFrH1/7vTp088++6xJ/WYLCSEMw3z//fcmO2MVAhCAAAQg4HgBa+e5vLy8AwcOmMRntpCb50z2xCoEIAABCEDAKQJWzXP4kJxT+gaNQgACEIBAwwWsmufWr1/f8JZQAwQcJ6BWk5kzjc2p1Y5rFC1JSAAjREKd1eBQrZrnGtwKKoCAYwXc3Mjf/ubYJtGapAQwQiTVXQ0MFvdbNhAQh0MAAhCAANUCOJ+junsQXD0FDAZy/brx2ObNTZ77ZfLgjHrWj8OkLlD7CJF6Zoi/pgDmuZomKJG+QEkJ4b4QGM/9kn5n2iUDjBC7sFJaKeY5SjsGYUEAAvUWEJ611/2sy3o3gwMlIoD35yTSUQgTAhCAAATqJYB5rl5sOAgCEIAABCQigHlOIh2FMCEAAQhAoF4CmOfqxYaDIAABCEBAIgKY5yTSUQgTAhCAAATqJYD7LevFhoMoF1CpSGysMUYVRjjlXeWk8DBCnATvlGbxW8Ap7GjUzgLu7mTVKju3geqlLIARIuXeExs7rluKFcP+EIAABCAgJQGcz0mptxCrtQIsS+7dM+4cGEgYxtqjsJ9yBDBClNPXhGCeU1JvKyfX4mISFGRMF8/9Uk6ni8oUI0QUl8R3xnVLiXcgwocABCAAAYsCmOcs8mAjBCAAAQhIXADznMQ7EOFDAAIQgIBFAbw/Z5EHG6UvIHx0vfSzQQYQgIBoAZzPiSbDARCAAAQgICEBzHMS6iyECgEIQAACogVw3VI0GQ6QgIBKRaKjjXHiuV8S6C37hmhy4fo/X7uKEWJfdbpqxzxHV38gGtsIuLuTpKSHVRU8XMD/IfBQ4JER8rAQ/5epAK5byrRjkRYEIAABCFQL4HwOA0GOAixLiouNiXl5yTE95NRgAeEIwZPhGsxJeQWY5yjvIIRXL4HiYtKokfHIwsJ6HY+D5C4gHCHe3nLPVun54bql0kcA8ocABCAgbwHMc/LuX2QHAQhAQOkCmOeUPgKQPwQgAAF5C2Cek3f/IjsIQAACShfAPKf0EYD8IQABCMhbAPOcvPsX2UEAAhBQugA+V6D0ESDP/F1dyYsvGlNzdZVngsiqgQIYIQ0ElNThmOck1V0I1koBDw/yr3893BcfoXsogf/zAo+MEL4UC/IUwHVLefYrsoIABCAAAU4A8xxGAgQgAAEIyFkA85yce1e5uRUVEYYx/hQVKRcBmVsQwAixgCO7TZjnZNelSAgCEIAABAQCmOcEGFiEAAQgAAHZCeB+S9l1qSITMvnOaHVJ0Yxqh3/8fo944mn0ihwTtSTNDRV+hNSyF4plJYDzOVl1J5KBAAQgAAETAcxzJiBYhQAEIAABWQlgnpNVdyIZCEAAAhAwEcD7cyYgWJWDgMHF9Y8+AwghBhc890sOHWrzHLgR8idfNzwZzua2FFbIsCxLYVgOCCk/P1+j0eTl5fn6+jqgOTRhVwGT+1Ds2hYql43A7K6BsslF4YlY/n2O8zmFDw+kDwHlCpj8eYRpT65DAe/PybVnkRcEIAABCBgFMM9hHMhQQF1SNL1Xi+m9WqhL8NwvGfZvw1PCCGm4oYRqoG6eW7BgQffu3X18fIKCgl544YULFy7wmizLJiQk6PV6T0/PiIiIs2fP8pvKysri4uICAwO9vb0jIyNv3LjBb8KCMgXcSovdSouVmTuytkYAI8QaJXnsQ908l5qaOnny5F9//XXfvn2VlZWDBg0qevgo3kWLFi1evHjlypVHjx7V6XQDBw4sKCjguiE+Pj45OXnr1q0HDx4sLCwcPnx4VVWVPHoIWUAAAhCAQEMEqLsP5bvvvuPzWb9+fVBQUFpa2jPPPMOy7NKlS+fOnTtq1ChCyIYNG7Ra7ZYtW2JiYvLy8tatW7dx48YBA4y3km/atCk4OHj//v2DBw/mq+IWyqpf3HJ+fr7JVqxCAAIQgID8BKg7nxMS5+XlEUL8/f0JIRkZGVlZWYMGDeJ2cHd379u376FDhwghaWlpFRUV/Ca9Xh8aGsptEtZGCFmwYIHm4Ss4ONhkK1YhAAEIQEB+AvTOcyzLTp8+vU+fPqGhoYSQrKwsQohWq+X7QKvVcoVZWVlubm6PPfZYzU18CbcwZ86cvIevzMxMk61YhQAEIAAB+QlQd92SJ3777bdPnTp18OBBvoQQwjAMv8qyrHCVLyeE1LbJvfol3BPLEIAABCAgbwFK57m4uLhdu3b99NNPzZo14zpAp9NxZ3VNmjThSrKzs7nTO51OV15enpOTw5/SZWdn9+rVS949h+wsCLCMy/Uw4wBgGXqvWFiIH5vsLWB2hAg/No7PjNu7CxxZP3XzHMuycXFxycnJBw4caNWqFW/RqlUrnU63b9++rl27EkLKy8tTU1MXLlxICAkLC1Or1fv27Rs9ejQh5Pbt22fOnFm0aBF/LBZkKSD8rWSSYKWH55bPvjYpxCoEeAGMEJ5CCQvUzXOTJ0/esmXL119/7ePjw739ptFoPD09GYaJj49PTExsXf1KTEz08vIaM2YMIUSj0UyYMGHGjBkBAQH+/v4zZ87s2LEjd++lEroQOUIAAjYXMPkrCqd3Nhd2ZIXUzXNr1qwhhERERPAK69evHzduHCFk1qxZJSUlsbGxOTk54eHhKSkpPj4+3G5LlixRqVSjR48uKSnp379/UlKSqyseVM8TYgECEICAcgXwfQX4vgKpjn6Tv7iFaahLit4aFkYIWbMnrcLTW7gJyxAghIgdITifo3zY4PsKKO8ghGcXAa/c+3apF5XKRQAjRC49WXceuButbiPsAQEIQAAC0hXAPCfdvkPkEIAABCBQtwDmubqNsAcEIAABCEhXAPOcdPsOkUMAAhCAQN0CmOfqNsIeEIAABCAgXQHqPj8nXUpETo8Ay7jcbt8Fz/2ip0doi0TsCDH5EAs+ZkBbh1qOB5+fw+fnLI8Qiraa/K6hKDKEojABzHO0dbjlz8/huiVt/YV4IAABCEDAlgKY52ypibogAAEIQIA2AcxztPUI4rGBgKqk+K1hT7417ElVSbENqkMVshPACJFdl1pKCPehWNLBNokKMITV3DZ+XzxDWImmgLDtKoARYlde2irH+RxtPYJ4IAABCEDAlgI4n7OlJuqyuQDusbQ5KSqEgNIEcD6ntB5HvhCAAASUJYB5Tln9jWwhAAEIKE0A85zSehz5QgACEFCWAN6fU1Z/KyRbljB3Q9oan/tFGIWkjDRFCWCEiOKS+s6Y56Teg4jfjEClp9e67QfNbEARBKoFMEIUNRBw3VJR3Y1kIQABCChOAPOc4rocCUMAAhBQlACuWyqquyWQrE0+MKcqKY6OGkQI2bAxpdLTSwJpI0THCmCEONbbya1hnnNyB6B5ewgwhG185QKe+2UPW3nUiREij360MgvMc1ZCYTcIQAAC/xEQXnXAd9HRPyzw/hz9fYQIIQABCECg/gI4n6u/HY6EAAQgIDy3I4Tg9I7CIYF5jsJOUVxIJr8pFJc/EoYABOwpgOuW9tRF3RCAAAQg4GwBnM85uwfQvh0EWMLkNQnGc7/sQCuTKu03QoQXJ3ANk5LhgnmOko5AGLYUqPT0WrPnuC1rRF3yEsAIkVd/1pENrlvWAYTNEIAABCAgaQHMc5LuPgQPAQhAAAJ1COC6ZR1A2CxFAVVpydg3Igkhmz/fVenhKcUUELNdBRwzQoTv1eEjB3btUMuVY56z7IOtkhRgWEOT9JPG536xBkkmgKDtLIARYmdguqrHdUu6+gPRQAACEICAbQUwz9nWE7VBAAIQgABdApjn6OoPRAMBCEAAArYVwDxnW0/UBgEIQAACdAlgnqOrPxANBCAAAQjYVgD3W9rWE7VZJWByv7VVx4jcqdgvQOQR2F1ZAhghyulvhmVZ5WQrzDQ/P1+j0eTl5fn6+grLsewAAQfMcw7IAk1AwFYCeBJmAyUt/z7HdcsG8uJwCEAAAhCgWgDXLanuHkkHh5M2SXcfgoeAbARwPiebrkQi/xVQlZaMeXPEmDdHqEpL/luKJQg8FMAIeSihiP/jfE4R3ay0JBnW0DztEJ77pbR+tz5fjBDrrWSwJ87nZNCJSAECEIAABGoVwPlcrTTYYI2AyZtwuG3MGjTsAwEIOFIA53OO1EZbEIAABCDgaAHMc44WR3sQgAAEIOBIAVy3dKS2/NsyuYwp/4SRIQQgQL0A5jnquwgB1kug3MOrXsfhIKUIUDVChH8g4k1umw9BPPcLz/1q0KAS/vtsUEU4GAIQMCeAac+cimmZ5ed+4XzO1AvrNQUwmdU0QQkEICAVAcxzUukph8aJic2h3GgMArULCP8x4tyudidLW3C/pSUdbJOogGtZ6YtTXn1xyquuZaUSTQFh21UAI8SuvLRVjvM52noE8dhAwMVQ9aeD+wkhLoaqKhvUhyrkJiDRESI8tyOE4PTOynGJec5KKBnuhn8zMuxUpAQBCNQQwDxXg0SpBSbTnlIZkDcEJClg8u8Xp3rCXpTV+3OrV69u1aqVh4dHWFjYzz//LMwTyxCAAARkJvDxiXv8j8xSs2068jmf27ZtW3x8/OrVq3v37r127drnnnsuPT29efPmtvWSXG34K09yXYaAIWBbAfwSkM88t3jx4gkTJrzxxhuEkKVLl+7du3fNmjULFiyw7YhxYm0WBqvJJgtBWr+nhUqwCQIQoFzAyn/pJrvJ9WqnTOa58vLytLS02bNn84Nv0KBBhw4Zv2lT+CqrfnEleXl5hJD8/HzhDmKXF/9+X3jI9M4B/KrJJr6cECLcjRAi3NPCJmENhJCEnwtMSrDKC1SVFnH9WlpUUFFl4MuxAAFOQMkjxMKvDgubLIwck99aFvYUbrLwe0+4m5XL3G9ylmXN78/K4nXz5k1CyC+//MJnM3/+/DZt2vCr3MIHH3xgXgGlEIAABCAgcYHMzEyT3/ncqkzO57jeYRiG7yaWZYWrXPmcOXOmT5/OLRsMhgcPHgQEBNTcja/E7EJ+fn5wcHBmZqavr6/ZHeRRiDTl0Y98FuhQnkIGC+hNk05kWbagoECv15uUc6symecCAwNdXV2zsrL4JLOzs7VaLb/KLbhXv/hCPz8/flnsgm/1S+xRktsfaUquyywHjA617COtrehNYX9pNBrhqnBZJp8rcHNzCwsL27dvH5/bvn37evXqxa9iAQIQgAAElCkgk/M5480d06dHRUV169atZ8+en3766fXr1ydNmqTMTkXWEIAABCDAC7gmJCTwK5JeCA0NDQgISExM/Pvf/15SUrJx48bOnTvbKSNXV9eIiAiVSj5/JZiFQppmWaRbiA6Vbt/VjBy9WdOkthLlfs9qbSIohwAEIAABOQnI5P05OXUJcoEABCAAARsKYJ6zISaqggAEIAAB6gQwz1HXJQgIAhCAAARsKIB5zoaYqAoCEIAABKgTwDxnbZfk5ORERUVpql9RUVG5ubm1HXnu3LnIyEiNRuPj49OjR4/r16/XtieF5danyQUfExPDMMzSpUspzMVCSNakWVFR8e6773bs2NHb21uv17/++uu3bt2yUCc9m6z5gqrU1NSwsDAPD4+QkJBPPvmEnuCtj6TONHfs2DFw4MDGjRv7+vr27Nlz79691ldOz551psmH+ssvv6hUqi5duvAlElqwJs2ysrK5c+e2aNHC3d398ccf/+KLL6xN0OzTwFBYU2DIkCGhoaGHql+hoaHDhw+vuQ/Lsn/88Ye/v/8777xz/Pjxy5cv7969+86dO2b3pLPQyjS54JOTkzt37qzX65csWUJnOrVFZU2aubm5AwYM2LZt2/nz5w8fPhweHh4WFlZbhfSUb926Va1Wf/bZZ+np6VOnTvX29r527ZpJeFeuXPHy8po6dWp6evpnn32mVqu3b99usg/lq9akOXXq1IULFx45cuTixYtz5sxRq9XHjx+nPC+T8KxJkzskNzc3JCRk0KBBnTt3NqmE/lUr04yMjAwPD9+3b19GRsZvv/0mfKCx5RyJ5c3Yygmkp6cTQn799Vdu9fDhw4SQ8+fP1/R5+eWXX3vttZrlkiixPk2WZW/cuNG0adMzZ860aNFCWvOcqDT5jjty5AghpOacwe9AycJTTz01adIkPpgnnnhi9uzZ/Cq3MGvWrCeeeIIvjImJ6dGjB78qiQVr0jRJpH379vPmzTMppHzV+jRffvnl995774MPPpDiPGdNmt9++61Go7l//349ugzXLa068T18+LBGowkPD+f27tGjh0ajqfm9PwaDYc+ePW3atBk8eHBQUFB4ePjOnTutaoCOnaxMkxBiMBiioqLeeeedDh060BG7iCisT1NYaV5eHsMwDXkmqrA2Oy1zX1A1aNAgvn6zX1B1+PBh4T6DBw8+duxYRUUFfxTlC1amKczCYDAUFBT4+/sLCylftj7N9evXX758WaLfx2Jlmrt27erWrduiRYuaNm3apk2bmTNnlpSUWNmDmOesgsrKygoKChLuGhQUJHxsNLcpOzu7sLDw448/HjJkSEpKysiRI0eNGpWamio8kOZlK9MkhCxcuFClUk2ZMoXmdGqLzfo0+RpKS0tnz549ZswYyr+k4t69e1VVVcInmGu12poDNSsry2SfysrKe/fu8flSvmBlmsIs/vGPfxQVFY0ePVpYSPmylWleunRp9uzZmzdvlugTmqxM88qVKwcPHjxz5kxycvLSpUu3b98+efJkK3sQ89x/oBISEphaXseOHSOEmHx9j9nv/TEYjF/pOWLEiGnTpnXp0mX27NnDhw+n6k1+m6SZlpa2bNmypKQkExMrx5wDdrNJmnycFRUVr7zyisFgWL16NV9I84KwX8wOVJPxzH07pfAomrPjYxMGXFua3M5fffVVQkLCtm3bTP5a5auiecFymlVVVWPGjJk3b16bNm1ozqLO2CynyV1DYhhm8+bNTz311NChQxcvXpyUlGTlKZ3Mn9BYJy6/w9tvv/3KK6/wq8KFli1bnjp16s6dO8LCu3fvCv8i5jYFBgaqVKr27dvze7Zr1+7gwYP8qtMXbJLmzz//nJ2d3bx5cy6dqqqqGTNmLF269OrVq05PkAvAJmlyVVVUVIwePTojI+OHH36g/GSOEGLlF1TpdDrhSV52drZKpQoICKCk++oMw8o0uXq2bds2YcKEf/3rXwMGDKizZqp2sCbNgoKCY8eOnThx4u233+YmA5ZlVSpVSkrKs88+S1U6tQVjTZqEkCZNmjRt2pT/8p127dpxdwm0bt26tpr/W16P9/QUeAh358Jvv/3G5f7rr7/Wdh9Kz549hfehvPDCC6+++qpUxKxM8969e6cFL71e/+6775q9K4fOxK1Mk2XZ8vLyF154oUOHDtnZ2XTmUjOqp5566q233uLL27VrZ/Y+FO7XBLfbpEmTpHgfSp1psiy7ZcsWDw+P5ORkHkRaC3X2ZlVVleDf4um33nqrbdu2p0+fLiwslFCmdabJsuzatWs9PT0LCgq4vHbu3Oni4lJcXGxNmrjf0hol4z5Dhgzp1KnT4epXx44dhZ8raNu27Y4dO7iKduzYoVarP/3000uXLq1YscLV1fXnn3+2tg0K9rMyTWGkkrvf0srerKioiIyMbNas2cmTJ28/fJWVlQlzp3CZu0V73bp16enp8fHx3t7eV69eZVl29uzZUVFRXMDc5wqmTZuWnp6+bt066X6uwHKaW7ZsUalUq1ateth7t3NzcynsMgshWdObwsMler+lNWkWFBQ0a9bsxRdfPHv2bGpqauvWrd944w1h7haWMc9ZwHlk0/3795BaeaIAAAbqSURBVMeOHetT/Ro7dmxOTg6/mRCyfv16fnXdunV/+tOfPDw8OnfuvHPnTr5cEgvWp8mnI8V5zpo0MzIy/nvd4+HSjz/+yCdO7cKqVatatGjh5ub25JNPpqamcnFGR0f37duXj/nAgQNdu3Z1c3Nr2bLlmjVr+HIJLdSZZt++fR/223/+Hx0dLaEEuVDrTFOYkUTnOZZlrUnz3LlzAwYM8PT0bNas2fTp0608mTO+d8u9BW0yGrAKAQhAAAIQkIcA7reURz8iCwhAAAIQMC+Aec68C0ohAAEIQEAeApjn5NGPyAICEIAABMwLYJ4z74JSCEAAAhCQhwDmOXn0I7KAAAQgAAHzApjnzLugFAIQgAAE5CGAeU4e/YgsIAABCEDAvADmOfMuKIUABCAAAXkIYJ6TRz8iC8UJtGzZkmGYAwcOWJN5REQEwzBJSUkmO6ekpPTv39/Pz8/FxcXsDib7YxUCUhTA9xVIsdcQs2wFcnJy1qxZs3v37vPnzxcUFPj5+TVu3Lht27ZPP/300KFDn3jiCRtm/vPPPz/33HMGgyE4OLhDhw4Mw2i12qtXryYlJfn5+cXHx9uwLVQFAScKYJ5zIj6ahsAjAmlpacOGDeO+ASooKKhTp04Gg+HKlSvnzp3buXNnenr6559//sgBVq80b968bdu2/HeacMctX77cYDDExMSsWbOG//avAwcOzJs3r0WLFpjnrNbFjrQLYJ6jvYcQn0IEioqKRowYcefOne7duy9fvrxHjx5c4izLnjp16l//+hc/FdUD5Msvv6x51NmzZwkhkZGRDam5ZrUogQBtApjnaOsRxKNQgT179ty8edPV1XXnzp16vZ5XYBimc/WLL7HVAvddzF5eXraqEPVAgE4B3IdCZ78gKsUJXL58mftCcOEkZ41CZmbmm2++2axZM3d39+Dg4EmTJmVnZ5scaHIfCncPC/f97/369WOqXxHVr379+hFCrl27xhVy/7XybheTRrEKAUoEcD5HSUcgDKUL+Pr6EkLu3Llz8eLFNm3aWMlx6tSpUaNGFRUVtW/f3tPT88qVK2vXrv3hhx+OHTvGVWi2nu7duzdr1uzYsWNlZWWhoaHc+3YdO3YkhNy/f//MmTPu7u7dunXjjzV5Y48vxwIEpCEg/I4+LEMAAs4SuHz5skpl/LuzefPmq1ev5r4E3EIwLVq0IISo1epXX331/v373J5paWlarZYQkpCQIDyW+8ZR4bcBsyzL1WDyzbE//vgjIaRFixbCw7EMAUkL4LqlNP4cQZSyFwgJCVm2bJmrq+v169djY2NbtmzZuHHjwYMHf/TRR9wNI2YFWrVqtWHDBn9/f27rk08+OWvWLELIrl27zO6PQggoUADznAI7HSlTKhAbG3v06NHXXnuNu0547969lJSU999/PzQ0dNSoUffv368Zd0xMjFqtFpb37NmTEHLp0iVhIZYhoGQBvD+n5N5H7tQJdO3adePGjQaDIT09/cSJE7/++uvXX3998+bN5OTka9eu/fbbb9y1TT7utm3b8svcAnfdsrCw0KQcqxBQrADO5xTb9UicXgEXF5fQ0NCoqKhVq1ZlZGTExcURQo4fP/7vf//bJGhvb2+TEhcX4z9qlmVNyrEKAcUKYJ5TbNcjcWkIqNXqJUuWBAUFEUIOHz4sjaARJQRoEsA8R1NvIBYImBNwdXVt1aoVIaS8vNzcdluW4dkottREXXQIYJ6jox8QheIF7t69azAYzDI8ePCAu+XS+s/Vma3HmkLu8Sjco1Ks2R/7QIB+Acxz9PcRIlSEwLZt29q3b79kyZLr168LE/7ll1+GDh1aWFjo6+v7yiuvCDfZY/nxxx9nGCY7O9vChxns0S7qhID9BHC/pf1sUTMERAgwDHPhwoXp1a+goKCmTZuyLHvjxo179+4RQnx9ff/5z3/qdDoRNdZrV39//2HDhu3evfvJJ58MDQ318fEhhCxdurRLly71qg8HQcD5ApjnnN8HiAAChJCYmJjOnTvv27fv559/zszMvHTpUllZmZ+f39NPPz1w4MCYmBjuVhQHWH355Zfvv//+N998c+bMGe4dwdzcXAe0iyYgYCcBBvcf20kW1UIAAhCAAA0CeH+Ohl5ADBCAAAQgYC8BzHP2kkW9EIAABCBAgwDmORp6ATFAAAIQgIC9BDDP2UsW9UIAAhCAAA0CmOdo6AXEAAEIQAAC9hLAPGcvWdQLAQhAAAI0CGCeo6EXEAMEIAABCNhLAPOcvWRRLwQgAAEI0CCAeY6GXkAMEIAABCBgLwHMc/aSRb0QgAAEIECDAOY5GnoBMUAAAhCAgL0EMM/ZSxb1QgACEIAADQKY52joBcQAAQhAAAL2Evh/4rRIEvGpbQwAAAAASUVORK5CYII=;fontSize=16;" vertex="1" parent="kIMGEz0QDYV-E_OhELrM-129">
          <mxGeometry x="-9.952522974323884" y="179.8780324229319" width="241.90504594864777" height="181.11989135339292" as="geometry" />
        </mxCell>
        <mxCell id="kIMGEz0QDYV-E_OhELrM-131" value="" style="shape=image;verticalLabelPosition=bottom;labelBackgroundColor=default;verticalAlign=top;aspect=fixed;imageAspect=0;image=data:image/png,iVBORw0KGgoAAAANSUhEUgAAAk0AAAG5CAIAAAAcc5edAAAAAXNSR0IArs4c6QAAIABJREFUeAHt3QtcFOX+P/BnYS9chEVuuyKgUooKagRmginmrWOGWl5OpuGlxDAL0byc/CeejmDk0Y7ipczEvFGZlCe1UEvU7HjBSwleOooeVBBN7nfY+b+W59c0Dcu6C7vs7OxnX/uqmed55pnv836QLzM7MythGIbgBQEIQAACEBCpgJ1Ix4VhQQACEIAABLQCyHP4OYAABCAAATELIM+JeXYxNghAAAIQQJ7DzwAEIAABCIhZAHlOzLOLsUEAAhCAAPIcfgYgAAEIQEDMAshzYp5djA0CEIAABKQ2S6DRaO7cuePi4iKRSGwWAQOHAAQgIAIBhmHKysp8fHzs7HQcvNlunrtz546fn58IJhhDgAAEIAABQkheXp6vr29TCtvNcy4uLtTF1dW1qQtKICBEgYoK4uOjDezOHeLsLMQIERMELCFQWlrq5+dHf6s33b/t5jl6utK18dXUBSUQEKKAvf3/ReXqijwnxAlCTBYVaO5DKB2nMi0aJ3YOAQhAAAIQMKUA8pwpNdEXBCAAAQgITcB2z1sKbSYQDwQeLiCVkuhobTMp/uU+XAstIEAF8K8FPwkQsB4BhYKkplpPuIgUAoIQwHlLQUwDgoAABCAAATMJ4HjOTLDoFgJmEGAYUlmp7dfJieD5BmYARpeiFMDxnCinFYMSqUBlJWnXTvum2U6ko8SwIGBaAeQ503qiNwhAAAIQEJYA8pyw5gPRQAACEICAaQWQ50zrid4gAAEIQEBYAshzwpoPRAMBCEAAAqYVQJ4zrSd6gwAEIAABYQlYLM8dPXr0ueee8/HxkUgkX331FavCMExCQoKPj4+jo2NkZGR2djZbVVNTM2fOHE9PT2dn56ioqFu3brFVRUVFU6ZMUTa+pkyZUlxczFZhAQIQgAAEbFnAYnmuoqKiT58+KSkpPP3k5ORVq1alpKScPn1arVYPGzasrKyMtomLi0tPT09LSzt+/Hh5efmoUaMaGhpo1aRJk86fP/9t4+v8+fNTpkzhdYtVCIhBwN6ejBunfbNfXCCGUWEMEDCzAGPpFyEkPT2dRqHRaNRq9YoVK+hqdXW1UqncuHEjwzDFxcUymSwtLY1W3b59287O7ttvv2UYJicnhxDyn//8h1b99NNPhJDLly/T1eb+W1JSQggpKSlprgHKIQABCEDAKgT0/z632PGczvSdm5tbUFAwfPhwWqtQKAYNGnTixAlCSFZWVl1dHVvl4+MTHBxMq3766SelUtmvXz+61ZNPPqlUKmkVby81NTWlnBevtvWrK87dZ9+t7w09QAACEIBA6wWElecKCgoIISqVih2YSqWihQUFBXK5vH379jqrvL292XJCiLe3N92KW0gISUpKop/hKZVKPz8/Xi1WIQABCEBAfAJCfL4l9zthGYbhrnIngFvFa8Ot4m6yePHi+Ph4WkK/Z51ba6nlFefus7teFOLJLmMBAnyBigrtQ78IIeXl+D5xPg7WIdCMgLCO59RqNSGEeyhWWFhID+/UanVtbW1RURE7EG7V3bt32XJCyL1797gHhWyVQqFw5bzYcixAAAIQgIBYBYSV57p06aJWqw8ePEi5a2trMzMzw8PDCSGhoaEymYytys/Pv3jxIq3q379/SUnJqVOn6FYnT54sKSmhVWKdNowLAhCAAAQMFLDYecvy8vL//ve/NMrc3Nzz58+7u7v7+/vHxcUlJiZ2bXwlJiY6OTlNmjSJEKJUKmfMmDFv3jwPDw93d/f58+f36tVr6NChhJAePXo888wzr7766ocffkgImTlz5qhRowIDAw0kQDMIQAACEBCxgMXy3JkzZwYPHkxl6Wdm0dHRqampCxYsqKqqio2NLSoq6tevX0ZGhouLC222evVqqVQ6YcKEqqqqIUOGpKam2v9+F9GOHTveeOMNejVmVFRU09vyRDyFGBoEIAABCOgRkDAMo6daxFWlpaVKpbKkpMTV1dVUw+ReUcLrU88FJtyt9DTjdYhVWxTAdSi2OOsY88MF9P8+F9bncw8fDVpAAAIQgAAEjBGw2HlLY4JEWwhAoFHA3p6MHKld+v2MPVwgAIGHCiDPPZQIDSAgGAEHB7Jvn2CiQSAQsA4B5DkLzBP3AzkL7B67hAAEIGBLAshzrZptZKxW8WFjCEAAAuYXwHUo5jfGHiBgKoGKCu3jvpydSUWFqbpEPxAQvQCO50Q/xRiguAQqK8U1HowGAmYXwPGc2YmxAwhAAAIQsKAA8pwF8bFrCEAAAhAwuwDynNmJsQMIQAACELCgAPKcBfGxawhAAAIQMLsArkMxO7FRO+DdqIDHXRqlh8YQgAAEmgogzzU1QQkEhCpgZ0cGDdIGZ4czMUKdI8QlPAHkuTaaE96BWhvtFbsRmYCjIzlyRGRjwnAgYG4B/FVobmH0DwEIQAAClhRAnrOkPvYNAQhAAALmFkCeM7cw+oeA6QQqKoiXl/aN536ZDhU9iV4An8+JfooxQHEJ3L8vrvFgNBAwuwDynNmJW7MD7tUruMegNZLYFgIQsFkB5DlrnXqkQGudOcQNAQi0rQA+n2tbb+wNAhCAAATaVgB5rm29sTcIQAACEGhbAeS5tvXG3iAAAQhAoG0F8Plc23pjbxBojYCdHQkL03aA5361hhHb2pgA8pwYJpx7TQohBFdmimFSdY7B0ZGcPq2zBoUQgEBzAjhv2ZwMyiEAAQhAQAwCyHNimEWMAQIQgAAEmhNAnmtOBuUQEJ5AZSXp3Fn7rqwUXnCICAICFcDncwKdGIQFAR0CDENu3tSWM4yOWhRBAAK6BHA8p0sFZRCAAAQgIBYB5DmxzCTGAQEIQAACugRw3lKXiiDLeDcPGBgjbyvccmCgG5pBAAKiEUCeE81U/jEQXm77owJLEIAABGxPAOctbW/OMWIIQAACtiSA4zlbmm2M1doFJBLSs6d2EBKJtQ8F8UOgzQSQ59qMGjuCQKsFnJxIdnare0EHELAtAZy3tK35xmghAAEI2JoA8pytzTjGCwEIQMC2BJDnbGu+MVrrFqisJEFB2jee+2XdE4no21QAn8+1KTd2BoFWCTAMycnR9oDnfrXKERvblgCO52xrvjFaCEAAArYmgOM525px7i3keDaKbc09RgsBWxXA8ZytzjzGDQEIQMA2BJDnbGOeMUoIQAACtiqAPGerM49xQwACELANAXw+ZxvzjFGKQ0AiIZ06aYeC536JY0IxijYRQJ5rE2bsBAImEXByIjdumKQndAIB2xHAeUvbmWuMFAIQgIAtCiDP2eKsY8wQgAAEbEcA5y1tZ675I+XeS0cIwe10fCABrldVkYEDtXEdPUocHQUYIEKCgAAFkOcEOCkICQLNCGg05MwZbZ1G00wLFEMAAnwBnLfki2AdAhCAAATEJIA8J6bZxFggAAEIQIAvgDzHF8E6BCAAAQiISQB5TkyzibFAAAIQgABfAHmOL4J1CEAAAhAQkwCutxTTbGIsNiDg6WkDg8QQIWBKAeQ5U2qiLwiYV8DZmdy7Z95doHcIiE4A5y1FN6UYEAQgAAEIcAQEl+fq6+uXLFnSpUsXR0fHgICAv//975rfb4llGCYhIcHHx8fR0TEyMjI7O5sdSE1NzZw5czw9PZ2dnaOiom7dusVWYcFAgRXn7rNvAzdBMwhAAALCFxBcnnvvvfc2btyYkpJy6dKl5OTk999/f+3atdQxOTl51apVKSkpp0+fVqvVw4YNKysro1VxcXHp6elpaWnHjx8vLy8fNWpUQ0OD8PURIQSME6iqIpGR2ndVlXEbojUEbFhAwjCMoIY/atQolUq1efNmGtULL7zg5OS0bds2hmF8fHzi4uIWLlxICKmpqVGpVO+9915MTExJSYmXl9e2bdsmTpxICLlz546fn9/+/ftHjBihZ2ilpaVKpbKkpMTV1VVPM/1VvEdE6m9sRbV41qVAJ6uigrRrp42tvJw4Ows0SIQFgTYX0P/7XHDHcwMGDDh8+PDVq1cJIRcuXDh+/PjIkSMJIbm5uQUFBcOHD6eACoVi0KBBJ06cIIRkZWXV1dWxVT4+PsHBwbSKp11TU1PKefFqsQoBCEAAAuITENz1lgsXLiwpKenevbu9vX1DQ8Py5ctffPFFQkhBQQEhRKVSsXOgUqlu3rxJq+Ryefv27blVtD1bQheSkpKWLVvGK8QqBCAAAQiIWEBwx3OfffbZ9u3bd+7cefbs2a1bt65cuXLr1q3sBEgkEnaZYRjuKltOCGmuavHixSW/v/Ly8ribYBkCEIAABEQpILjjubfeemvRokV//etfCSG9evW6efNmUlJSdHS0Wq2mh24dOnSgM1FYWEgP79RqdW1tbVFREXtIV1hYGB4e3nTCFI2vpuUogQAEIAABsQoI7niusrLSzu6PqOzt7el9BV26dFGr1QcPHqQzUVtbm5mZSZNZaGioTCZjq/Lz8y9evKgzz4l1FjEuCEAAAhBoTkBwx3PPPffc8uXL/f39g4KCzp07t2rVqunTpxNCJBJJXFxcYmJi18ZXYmKik5PTpEmTCCFKpXLGjBnz5s3z8PBwd3efP39+r169hg4d2tyYUQ4BKxZwcrLi4BE6BCwhILg8t3bt2v/3//5fbGxsYWGhj49PTEzMO++8Q2UWLFhQVVUVGxtbVFTUr1+/jIwMFxcXWrV69WqpVDphwoSqqqohQ4akpqba29tbwhP7hIA5BZydSUWFOXeAviEgQgHB3T/XZsb677cwMAzcP2cgFJpBAAIQMJ+A/t/nf3wSZr4I0DMEIAABCEDAUgKCO29pKQjslyvAO07F41G4OJZcrq4mL7ygDeDLL4mDgyUjwb4hYD0CyHPWM1eIFAINDWT/fi0DHt+KHwYIGCyA85YGU6EhBCAAAQhYoQDynBVOGkKGAAQgAAGDBZDnDKZCQwhAAAIQsEIB5DkrnDSEDAEIQAACBgsgzxlMhYYQgAAEIGCFAshzVjhpCBkCEIAABAwWwH0FBlOhIQQsLuDsTBjG4lEgAAhYlwDynHXNl2Wi5d42jnvGLTMH2CsEINBSAZy3bKkctoMABCAAAWsQQJ6zhllCjBCgAtXVZPx47bu6GiQQgICBAshzBkKhGQQEINDQQHbv1r7x3C8BzAZCsBYB5DlrmSnECQEIQAACLRFAnmuJGraBAAQgAAFrEUCes5aZQpwQgAAEINASAdxX0BI1W96Ge48BIQS3GdjyDwPGDgGrEECes4ppEm6QSHvCnRtEBgEINArgvCV+ECAAAQhAQMwCOJ4T8+xibGITcHIi5eXaQTk5iW1oGA8EzCaAPGc2WnQMAZMLSCTE2dnkvaJDCIhbAOctxT2/GB0EIAABWxdAnrP1nwCM35oEamrI1Knad02NNYWNWCFgUQHkOYvyY+cQMEqgvp5s3ap919cbtR0aQ8CWBZDnbHn2MXYIQAAC4hdAnhP/HGOEEIAABGxZANdb2vLsm37s3NvG8agU0/uiRwhAwHgBHM8Zb4YtIAABCEDAegSQ56xnrhApBCAAAQgYL4A8Z7wZtoAABCAAAesRwOdz1jNXiBQCTk6ksFDLgOd+4YcBAgYLIM8ZTIWGELC4gERCvLwsHgUCgIB1CRh93rKurs66RohoIQABCEDAlgWMznM+Pj7z58+/cuWKLath7BCwjEBNDZk9W/vGc78sMwHYq1UKGJ3nfvvtt9WrV/fs2TMyMnLnzp21tbVWOW4EDQFrFKivJ+vXa9947pc1Th9itpCA0Xnum2++iYqKsre3P3r06JQpU3x8fOLj4y9dumSh+LFbCEAAAhCAgD4Bo/PcyJEj09PT8/Lyli9fHhAQ8ODBg3/961/BwcEDBw7cvn17dXW1vr2hDgIQgAAEINC2AkbnORqeSqVavHjxr7/+eujQofHjx8tksuPHj0dHR/v4+Lz55psXL15s21FgbxCAAAQgAAHdAi3Mc2xnTz/9dFpa2u3bt1euXNm9e/fi4uKUlJQ+ffpERERs27YNn96xUFiAAAQgAAGLCLQ2z9GgPTw8hgwZEhkZKZVKmcbXTz/9NHXq1ICAgO3bt1tkYNgpBCAAAQhAgBDS2vvEKyoqdu3a9dFHH2VlZRFCGIYZPHhwTEzMnTt3PvzwwytXrkRHR9fW1k6fPh3cEGhOAN9y0JwMyiEAgdYLtDzPnTlzZtOmTWlpaeXl5QzDeHh4REdHx8TEdO3alYYVFxe3cePG2NjYVatWIc+1fqqsrgdu9iKE4Gt6TDCDjo4kN1fbj6OjCXpDFxCwDQGj81xpaemOHTs2bdp04cIFhmEIIeHh4bNmzRo/frxCoeChzZo1a/369VevXuWVYxUCEGiJgJ0d6dy5JRtiGwjYsIDRec7Hx6eqqophGFdX18mTJ8+aNSs4OFgPoLu7Ox4VpscHVRCAAAQgYFYBo/NcZWVlaGhoTEzMpEmTnAx4aPq//vWv4uJis44BnVudAO+UptXFb7GAa2vJ229r9758OZHLLRYGdgwBqxIwOs+dOnUqLCzM8DH26dPH8MZoCQEI6BOoqyMrV2obJCQgz+mDQh0EOAJG31dgVJLj7AiLEIAABCAAAQsIGJ3n8vLy1qxZc/jwYZ3BHjp0aM2aNbdv39ZZi0IIQAACEIBAGwsYnec+/vjjuXPnPnjwQGegxcXFc+fO/eSTT3TWohACEIAABCDQxgJG57kDBw7I5fKxY8fqDHT06NFyuXz//v06a1EIAQhAAAIQaGMBo/PczZs3/f39pVLdF7DIZDJ/f/8bN2608TCwOwhAAAIQgIBOAaPzXElJiZubm86+aKGbm1tRUZGeBqiCAAQgAAEItJmA7sMyPbv39PS8du1acw0Yhrl27Vr79u2ba4ByCECg5QKOjoR+6RWe+9VyRGxpcwJGH8/17du3qKjo888/10m1e/fuBw8e4N4DnTgohEBrBezsSFCQ9m1n9L/c1u4a20PAagWM/tcyffp0hmFiYmIOHjzIG/WhQ4dmzpwpkUjw1GaeDFYhAAEIQMBSAkaft3zuueeef/75PXv2PPPMM2FhYREREW5ubsXFxT/++OOZM2cYhhk9enRzV2NaapDYLwREIlBbSxITtWP529/wPBSRzCmGYX4Bo/McIWTHjh2xsbGpqamnT58+c+YMDZJhGIlEMm3atHXr1pk/bOwBAjYpUFdHli3Tjvytt5DnbPInAINuiUBL8pxCodi8eXN8fPzu3bt/+eWX0tJSV1fX3r17v/DCC0FBQS2JAttAAAIQgAAEzCPQkjxHIwlqfJknKvQKAQhAAAIQMI2A0dehmGa3enu5ffv25MmTPTw8nJycHnvssaysLNqcYZiEhAQfHx9HR8fIyMjs7Gy2m5qamjlz5nh6ejo7O0dFRd26dYutwgIEIAABCNiygODyXFFRUUREhEwmO3DgQE5Ozj//+U/2tvTk5ORVq1alpKScPn1arVYPGzasrKyMTl5cXFx6enpaWtrx48fLy8tHjRrV0NBgy/OKsUMAAhCAABVoyXnL8vLy1atX792799dffy0vL2cYhqcpkUjq6+t5hQauvvfee35+flu2bKHtO3fuTBcYhvnggw/efvvt559/nhCydetWlUq1c+fOmJiYkpKSzZs3b9u2bejQoYSQ7du3+/n5HTp0aMSIEbyd1jS+aGFpaSmvFqsQgAAEICA+AaOP5+7duxcWFpaQkJCVlVVaWqrRaJgmL41G02KpvXv3hoWFjR8/3tvbOyQkZNOmTbSr3NzcgoKC4cOH01WFQjFo0KATJ04QQrKysurq6tgqHx+f4OBgWsULIykpSfn7y8/Pj1eLVQhAAAIQEJ+A0cdz77zzztWrV1Uq1YIFC/r3769SqexM+miG69evb9iwIT4+/m9/+9upU6feeOMNhULx8ssvFxQUEEJUKhU7ByqV6ubNm4SQgoICuVzOfdiYSqWi7dnGdGHx4sXx8fF0ubS0FKmO54NVoQs4OJBTp7RBOjgIPVTEBwHBCBid5/bt22dvb3/gwIHHHnvMHKPQaDRhYWGJjTfDhoSEZGdnb9iw4eWXX6b7kkgk7E7pHXvsKnehuSpF44vbEssQsCYBe3vSt681BYxYISAAAaPzXGFhYUBAgJmSHCGkQ4cOPXv2ZGV69Ojx5ZdfEkLUajU9dOvQoQOtLSwspId3arW6tra2qKiIPaQrLCwMDw9nO8GCEARWnLsvhDAQAwQgYGsCRn8+5+Xl1a5dO/MxRUREXLlyhe3/6tWrnTp1IoR06dJFrVazD9Wsra3NzMykySw0NFQmk7FV+fn5Fy9eRJ5jDbEgHoHaWvL++9p3ba14BoWRQMDMAkYfzz3zzDPbt28vLi5mL/c3bYRz584NDw9PTEycMGHCqVOnPmp8EUIkEklcXFxiYmLXxldiYqKTk9OkSZMIIUqlcsaMGfPmzfPw8HB3d58/f36vXr3otZemjQ29QcDCAnV1ZMECbQyxsXjul4XnAru3HgGjj+eWLl3q5OQ0Z84cM92g1rdv3/T09F27dgUHB7/77rsffPDBSy+9RD0XLFgQFxcXGxsbFhZ2+/btjIwMFxcXWrV69eoxY8ZMmDAhIiLCycnp3//+t729vfXMAiKFAAQgAAFzCUia3v2mf1dHjx69cOHC/PnzH3nkkZkzZwYGBjo7OzfdZODAgU0LBVVSWlqqVCpLSkpcXV1bHBg+c2oxXXMbLgrxbK4K5aSigtBPDcrLia5/dyCCgG0K6P99bvR5y8jISHrR4+XLl+fNm6fTtDX3ievsEIUQgAAEIACBlgkYnef8/f25F/e3bK/YCgIQgAAEINA2AkbnuRs3brRNZNgLBCAAAQhAoPUCRl+H0vpdogcIQAACEIBAmwkYfTzXZpFhRxCAAF/AwYH88IO2EM/94tNgHQLNCrQwz2k0mj179hw+fDgvL6+qqurw4cN0D1lZWRUVFQMGDDDtQy+bDR8VELApAXt7EhlpUyPGYCHQeoGW5LmcnJxx48ZduXKF3pPAvSxl+/bta9asOXTo0ODBg1sfHHqAAAQgAAEItFLA6M/n7t27N2zYsMuXL/fp02fp0qWPPvooN4KXXnqJYZi9e/dyC7EMAQiYRqCujqxbp33X1ZmmQ/QCARsQMPp4Ljk5OT8/f8qUKVu2bLGzszt06NC1a9dYqLCwsHbt2un87je2DRYgoEeAd+s9bhv/k1VtLXn9dW3J1KlEJvtTFVYgAIFmBIw+nvvmm28UCsXatWub+wQuICDg9u3bzewOxRCAAAQgAIE2FTA6z928ebNr1656npXl6Oh4/z6+gaVNZxE7gwAEIACB5gSMznMymay6urq57gghhYWF7OOV9TRDFQQgAAEIQKANBIzOc4888sjNmzcfPHigM7hff/01NzeX+0WpOpuhEAIQgAAEINA2AkbnuWeffbauru7tt99uGl9DQ8Mbb7whkUjGjBnTtBYlEGiBwIpz99l3CzbHJhCAAASMznNz58719PT86KOPXnjhhYyMjJqaGkLIgwcPvv766wEDBnz33Xd+fn4zZ86ELAQgAAEIQEAIAkbfV+Du7r53797nnnsuPT39q6++omPw8vIihDAM4+npmZ6ervMb6YQwWsQAAesWUCjIN99oh6BQWPdAED0E2lDA6OM5QsiTTz75888/x8bGenl5Mb+/3NzcXnnllXPnzoWEhLRh/NgVBGxJQColzz6rfUuN/gvVlpgwVgj8SaCF/1o6dOiQ0vjKz88vKipq166dr69vc3fU/WmHWIEABCAAAQi0oUAL8xwbYYfGF7uKBQhAwIwCdXVkxw5t/y+9hOehmNEZXYtLoLV5TlwaGA0EhC1QW0umTdOGOH488pywpwrRCUjA6Dz36aefGhL+yy+/bEgztIEABCAAAQiYVcDoPDd16lTuF/E0FxzyXHMyKIcABCAAgbYUMDrPDRw4sGmeq62tvXbtWmFhoUKhePLJJ9tyANgXBCAAAQhAQI+A0XnuyJEjzXWXnp7+yiuvBAYGbty4sbk2KIcABCAAAQi0pYDReU5PcGPHjnVwcBg1atSAAQMmT56spyWqIAABCEAAAm0j0JL7xPVE9pe//KVjx47r1q3T0wZVEIAABCAAgTYTMOXxHA1apVJlZ2e32QCwIwjYkIBCQT7/XDtePPfLhmYdQ22tgInzXENDw3//+9/WBoXtIQABnQJSqfbOObwgAAFjBEyZ52pra+Pj40tKSsLDw42JAW0h0BKBFef++Nr6RSGeLekC20AAAjYgYHSemz59elMWhmHu3r179uzZe/fuSSSSefPmNW2DEghAoLUC9fUkPV3bydixeJRzazGxvc0IGJ3nUlNTJRIJwzA6idq1a5ecnDx27FidtSiEAARaJVBTQyZM0PZQXo481ypJbGxLAkbnuaVLlzb1kUgkzs7O3bp1e/rpp/Hlc019UAIBCEAAApYSME2es1T02C8EIAABCEBAv4CJ75/TvzPUQgACEIAABNpYAHmujcGxOwhAAAIQaFMBo89bGvi9PLxB4OsLeCBYhQAEIACBthEwOs8Z+L08vOiR53ggWG2BAPeGuRZsjk0gAAHbFDA6z9Hv5Tlx4kRdXZ1UKvX19VWpVHfv3r1161Z9fb1cLu/fv79tUmLUEDC7gFxOtmzR7kUuN/u+sAMIiEXA6Dz3ww8/TJw4USqVJiQkzJ4929XVlVKUlpauW7du+fLl3t7en332mVh8MA7rEOAd6on28SgyGZk61TqmBFFCQDACRue5NWvWfPnll3v27Bk9ejR3FK6urosXLw4KCho7duzatWvnzJnDrcUyBCAAAQhAwCICRl9vmZqa6ufnx0tybOhRUVF+fn6ffPIJW4IFCEDAZAL19WTfPu27vt5kfaIjCIhdwOjjuV9//TUoKEgPi7e396VLl/Q0QBUEINBCgZoaMmqUdls896uFgtjMFgWMPp6Ty+VXrlypqanRqVVdXX3lyhWZTKazFoUQgAAEIACBNhYwOs89+eTDRTcdAAAgAElEQVSTZWVlc+fO1RnovHnzysrKcMmlThwUQgACEIBA2wsYfd7yb3/7W0ZGxocffvjjjz/OmTMnODiY3leQnZ29Zs2aixcv2tnZLV68uO1Hgj1CAAIQgAAEmgoYnecGDBiwefPmWbNm/fLLLzExMdweGYaRy+Xr168fMGAAtxzLEIAABCAAAUsJGH3ekhASHR19/vz56dOnq9Vq5veXWq2ePn06LbfUYLBfCEAAAhCAAE/A6OM5un1gYODHH39MCCktLS0rK3NxcWFvGOftAKsQsKyArdxCblll7B0CAhZoYZ5jR+Ta+GJXsQABCJhRQC4nKSna/vHcLzMqo2uxCbQ8z9XX12dlZeXl5VVWVuIxzWL7ubDy8fCO4ax8NJzwZTIyezZnHYsQgMDDBVry+RzDMMuXL1epVOHh4RMnTpw2bRq7n1dffTUgIODatWtsCRYgAAEIQAACFhQwOs8xDDN+/Ph33nmnuLjY39+/Xbt23OifeeaZGzdufP3119xCLEMAAqYRaGggR45o3w0NpukQvUDABgSMznOffvrpnj17AgICTp06lZub27t3b67SM888Y2dn9+2333ILsQwBCJhGoLqaDB6sfVdXm6ZD9AIBGxAwOs9t2bJFIpHs2rUrNDS0qY+zs3NAQMCNGzeaVqEEAhCAAAQg0PYCRue5n3/+2dfXNywsrLlYPTw88vPzm6tFOQQgAAEIQKAtBYzOc5WVlR4eHnpCrKqq0lOLKghAAAIQgEBbChid51Qq1fXr15sLsbKy8vLly35+fs01QDkEIAABCECgLQWMznNPPfVUWVnZjh07dEaZkpJSW1s7ePBgnbUohAAEIAABCLSxgNF5bs6cOQzDvPHGG3v37uXGqtFo1q5du2TJEnt7+9dff51bhWUIQAACEICApQSMznP9+vV7++23i4qKxo4d27Fjx+zsbELIc889p1ar4+Li6uvr//GPf/To0cMk40lKSpJIJHFxcbQ3hmESEhJ8fHwcHR0jIyPprmlVTU3NnDlzPD09nZ2do6Kibt26ZZIA0Im4BVacu899W8FgZTKSnKx946uMrWC2EKJQBIzOc4SQd999d+PGje7u7vn5+cXFxQzD7Nu37/79+25ubhs2bFi4cKFJBnf69OmPPvqIe39ecnLyqlWrUlJSTp8+rVarhw0bVlZWRvcVFxeXnp6elpZ2/Pjx8vLyUaNGNeBGWpNMAzoRlIBcTt56S/vG8y0FNS8IRtgCLXy+5cyZM19++eXvv//+woULRUVF7dq1692797Bhw5ydnU0y3vLy8pdeemnTpk3/+Mc/aIcMw3zwwQdvv/32888/TwjZunWrSqXauXNnTExMSUnJ5s2bt23bNnToUELI9u3b/fz8Dh06NGLECF4wNY0vWlhaWsqrxSoEIAABCIhPwOg8Fx8fL5FIEhMTHRwcRja+zIEye/bsZ599dujQoWyey83NLSgoGD58ON2dQqEYNGjQiRMnYmJisrKy6urq2CofH5/g4OATJ040zXNJSUnLli0zR8DoEwJtIdDQQM6e1e7o8ceJvX1b7BH7gID1Cxh93nLNmjXfffedQqEw39jT0tLOnj2blJTE3UVBQQEhRKVSsYUqlYoWFhQUyOXy9u3bN61iS+jC4sWLS35/5eXl8WqxCgGhC1RXkyee0L7x3C+hTxXiE5CA0cdz3t7eTk5O5htBXl7em2++mZGR4eDg0HQvEomELWQYhrvKlhNCmqtSNL64LbEMAQhAAALiFjD6eC4iIuLy5cs1NTVmcsnKyiosLAwNDZU2vjIzM9esWSOVSumRHD2Ao7suLCykhWq1ura2tqioiA2JrWJLsAABCEAAArYpYHSeW7BgQXV19ZIlS8zkNWTIkF9++eX876+wsLCXXnrp/PnzAQEBarX64MGDdL+1tbWZmZnh4eGEkNDQUJlMxlbl5+dfvHiRVpkpSHQLAQhAAALWImD0eUuVSrVixYpFixZlZ2dPnz49KChI5zWW/v7+LSNwcXEJDg5mt3V2dvbw8KAlcXFxiYmJXRtfiYmJTk5OkyZNIoQolcoZM2bMmzfPw8PD3d19/vz5vXr1otdesv1gAQJUQLRfNY4JhgAEmhEwOs916dKFdvVd40tntxKJpL6+XmdVawoXLFhQVVUVGxtbVFTUr1+/jIwMFxcX2uHq1aulUumECROqqqqGDBmSmppqj6vRWmONbSEAAQiIRUDCMIxRY7GzM+hUp0ajMarbtm9cWlqqVCpLSkpcXV1bvHccHLSYToAbLgrxFGBUfwqpooK0a6ctKS8nJrpX9U/9YwUC1img//e5QcdzR48eVSqVffr0IYQIP4FZ5zQhaggYICCTkaVLte3w3C8DtNAEAlTAoDwXGRn51FNPZWZmctX+/ve/d+rUKTo6mluIZQhAwIwCcjlJSDBj/+gaAmIUMOgkJL0jjTf8hISEzZs38wqxCgEIQAACEBCUgEHHc4KKGMFAwHYFNBpy6ZJ2+D16EMM+KbddK4wcAr8LIM/9LoH/Q0D4AlVVhN51g+tQhD9ZiFAwAoaetxRMwAgEAhCAAAQgYIQAjueMwEJTcQtw7xKxgnsMxD0ZGB0ETCeA4znTWaInCEAAAhAQnoChx3O//PLL008/zYtfZyEhRCKRHD58mNcYqxCAAAQgAIG2FzA0z5WUlBw5coQXn85Cmud4LbEKAQhAAAIQsIiAQXkON4NbZG6wU+EI4KM74cwFIoGAsQIG5bktW7YY2y/aQwACpheQycj8+dpu8dwv0+OiR9EKGJTnRDt6DAwC1iUgl5P337eukBEtBCwugOstLT4FCAACEIAABMwogOM5M+KiawiYWECjIf/7n7ZPf38898vEtuhOvALIc+KdW4xMfAJVVYR+0TGe+yW+ycWIzCaA85Zmo0XHEIAABCAgAAEczwlgEhCC8AS4NxIILzpEBAEIGCGA4zkjsNAUAhCAAASsTgB5zuqmDAFDAAIQgIARAshzRmChKQQgAAEIWJ0A8pzVTRkChgAEIAABIwRwHYoRWGgKAQsLSKUkNlYbgxT/ci08Fdi9FQngX4sVTRZCtXkBhYKsW2fzCgCAgHECOG9pnBdaQwACEICAdQngeM665gvR2rYAw5D797UEnp5EIrFtC4weAoYKIM8ZKoV2ELC8QGUl8fbWhoHnfll+MhCB1QjgvKXVTBUChQAEIACBFgggz7UADZtAAAIQgIDVCCDPWc1UIVAIQAACEGiBAD6fawEaNoHAHwLcJz4vCvH8owJLEICAMARwPCeMeUAUEIAABCBgHgEcz5nHFb2KV4B7ACfeUWJkEBCPAPKceOYSIxG/gFRKoqO1w8Rzv8Q/2RihyQSQ50xGiY4gYHYBhYKkppp9L9gBBMQlgM/nxDWfGA0EIAABCPxZAMdzf/bAGgRaIcD76M70l18yDKms1Abo5ITnfrViorCpbQngeM625hujtW6BykrSrp32TbOddQ8G0UOgjQSQ59oIGruBAAQgAAGLCCDPWYQdO4UABCAAgTYSQJ5rI2jsBgIQgAAELCKAPGcRduwUAhCAAATaSADXW7YRNHZjgwLcyy9Nf+2lDYJiyBBokQCO51rEho0gAAEIQMBKBHA8ZyUThTAhQAixtyfjxmkl7O3hAQEIGCiAPGcgFJpBQAACDg7kiy8EEAdCgIA1CeC8pTXNFmKFAAQgAAFjBZDnjBVDewhAAAIQsCYB5Dlrmi3EausCFRXax1pKJKSiwtYpMH4IGCyAPGcwFRpCAAIQgIAVCiDPWeGkIWQIQAACEDBYAHnOYCo0hAAEIAABKxRAnrPCSUPIEIAABCBgsADynMFUaAgBCEAAAlYogPvErXDSELL1C+DRl9Y/hxiB1Qggz1nNVCFQCGgf9zVypNYBz/3CTwMEDBZAnjOYCg0hYHEBBweyb5/Fo0AAELAuAXw+Z13zhWghAAEIQMA4AeQ547zQGgIQgAAErEtAcHkuKSmpb9++Li4u3t7eY8aMuXLlCgvKMExCQoKPj4+jo2NkZGR2djZbVVNTM2fOHE9PT2dn56ioqFu3brFVWICAEARWnLvPfbcwpIoK4uysfeO5Xy0UxGa2KCC4PJeZmTl79uz//Oc/Bw8erK+vHz58eMXv/6STk5NXrVqVkpJy+vRptVo9bNiwsrIyOmlxcXHp6elpaWnHjx8vLy8fNWpUQ0ODLc4nxix6gcpKUlkp+lFigBAwoYCEYRgTdmfaru7du+ft7Z2ZmTlw4ECGYXx8fOLi4hYuXEgIqampUalU7733XkxMTElJiZeX17Zt2yZOnEgIuXPnjp+f3/79+0eMGKEnntLSUqVSWVJS4urqqqeZ/iru1eH6W6IWAs0JLArxbK6KX15RQdq10xaWl2uP6vCCAAQaBfT/Phfc8Rx31kpKSggh7u7uhJDc3NyCgoLhw4fTBgqFYtCgQSdOnCCEZGVl1dXVsVU+Pj7BwcG0itsbzY6lnBevFqsQgAAEICA+AeHmOYZh4uPjBwwYEBwcTAgpKCgghKhUKnYOVCoVLSwoKJDL5e3bt29axZbQhaSkJOXvLz8/P14tViEAAQhAQHwCwr1/7vXXX//555+PHz/ORZdIJOwqwzDcVbacENJc1eLFi+Pj42nL0tJSpDouGpYtJcA7+809jcmv6uZoqSCxXwhYr4BA89ycOXP27t179OhRX19fiqtWq+lRXYcOHWhJYWEhPbxTq9W1tbVFRUXsIV1hYWF4eHjTWVE0vpqWowQCwhHg5TbhBIZIIGClAoI7b8kwzOuvv75nz57vv/++S5cuLGuXLl3UavXBgwdpSW1tbWZmJk1moaGhMpmMrcrPz7948aLOPMf2hgUIWKWAnR0ZNEj7thPcv1yr9ETQtiEguOO52bNn79y58+uvv3ZxcaEfvymVSkdHR4lEEhcXl5iY2LXxlZiY6OTkNGnSJEKIUqmcMWPGvHnzPDw83N3d58+f36tXr6FDh9rGDGKUtiTg6EiOHLGlAWOsEDCBgODy3IYNGwghkZGR7OC2bNkydepUQsiCBQuqqqpiY2OLior69euXkZHh4uJCm61evVoqlU6YMKGqqmrIkCGpqan2eNAtK4gFCEAAAjYsIOj758w6L/rvtzBw1/goxUAoNDOJAPcSFZN0iE4gIA4B/b/PcZZfHLOMUdiGQEUF8fLSvn9/SJBtDBujhECrBAR33rJVo8HGEBC9wP37oh8iBggB0wrgeM60nugNAhCAAASEJYA8J6z5QDQQgAAEIGBaAeQ503qiNwhAAAIQEJYA8pyw5gPRQAACEICAaQWQ50zrid4gAAEIQEBYArjeUljzgWggoE/Azo6EhWkb4Llf+phQB4E/CSDP/YkDKxAQssCKyxXkowPaCC9XLArBdxcIea4Qm4AEcN5SQJOBUCAAAQhAwOQCyHMmJ0WHEIAABCAgIAHkOQFNBkKBgH4BaVXla88+/tqzj0urKvW3RC0EIMAK4PM5lgILEBC6gIQwyvw8QoiEMEKPFfFBQDACOJ4TzFQgEAhAAAIQMIMA8pwZUNElBCAAAQgIRgB5TjBTgUAgAAEIQMAMAvh8zgyo6BIC5hfQ8x2/+DpW8/NjD9YkgOM5a5otxAoBCEAAAsYK4HjOWDG0h4DFBBgiuRcQSAhhiMRiQWDHELA2AeQ5a5sxxGvDAvWOTpt3H7dhAAwdAi0RwHnLlqhhGwhAAAIQsBYB5DlrmSnECQEIQAACLRFAnmuJGraBgEUEpFWVM8YNmDFuAJ77ZRF/7NRKBfD5nJVOHMK2RQEJYbyuX3noc794txzgNgNb/FnBmDkCyHMcDCxCQIwC3LSHnCfGGcaYHiKAPPcQIFRDQMQCSIEinlwMjRXA53MsBRYgAAEIQECEAshzIpxUDAkCEIAABFgB5DmWAgsQgAAEICBCAXw+J8JJxZDEKsAQSUkHPzz3S6zzi3GZSQB5zkyw6BYCpheod3TasO+s6ftFjxAQtQDOW4p6ejE4CEAAAjYvgDxn8z8CAIAABCAgagHkOVFPLwYnLgFpdVX05GHRk4dJq6vENTKMBgJmFMDnc2bERdcQMK2AhNF0yDmvfe4Xo2lZz9wbw1vWA7aCgNUJIM9Z3ZQhYAiYRYCXAvGEMLMoo1NLCOC8pSXUsU8IQAACEGgrAeS5tpLGfiAAAQhAwBICyHOWUMc+IQABCECgrQSQ59pKGvuBAAQgAAFLCOA6FEuoY58QaKlApZtHSzc1bjvuZSm4JsU4O7QWmADynMAmBOFAoHmBOkfnNd9fbr4eNRCAgA4BnLfUgYIiCEAAAhAQjQCO50QzlRgIBNpIAKc02wgauzGRAPKciSDRDQTMLyCtrpow56+EkM/XptU7OJp/h/+3B25ia7OdYkcQMJUA8pypJNEPBMwuIGE0/lknWvPcL7OHiB1AQHgCyHPCmxNEBAHrEeAd6uHKTOuZOhuKFNeh2NBkY6gQgAAEbFAAx3M2OOkYMgTaQoB3qMfdpZ7DPt5WelpyO8QyBPQIIM/pwUEVBCBgFgEkM7OwotNmBJDnmoFBMQQgYLwAL4EZ3wG2gIDpBZDnTG+KHiFgPoFaByfzdY6eISBKAeQ5UU4rBiVOgTpH51UnbopvbDgKFN+cCmpEuN5SUNOBYCAAAQhAwMQCOJ4zMSi6gwAETCjAPdTjXXvJreLtkduS14xbxdsKq2IVQJ4T68xiXCIUsK+pHvvWNEJI+vtbGhQOIhyh3iHxMpbetqiEwB8CyHN/WGAJAgIXsNM0PHr8ECHETtPQIPBYER4EBCOAz+cEMxUIBAIQgAAEzCCA4zkzoKJLCEDAogI4w2lRfsHtXFR5bv369e+//35+fn5QUNAHH3zw1FNPCc4bAUEAAhYV0JMCuZeo8JpxqywaPnbeEgHx5LnPPvssLi5u/fr1ERERH3744V/+8pecnBx/f/+WqGAbCEAAAhwBpD0OhvUtShiGsb6odUXcr1+/xx9/fMOGDbSyR48eY8aMSUpK0tVWW1ZaWqpUKktKSlxdXZtr89By3k//Q9ujAQRaIyCrqpgX0ZkQ8s8fb9Q5OremK2zb9gI4KDSfuf7f5yI5nqutrc3Kylq0aBHrOHz48BMntN9IyX3VNL5oSUlJCc123AbGLleXlxm7CdpDoMUCDdUVpY0bV1eU1TVoWtwPNrSIQMIxK/51Ed/HwxC0VRd+4zbTsxW3pZ5m3N70LJeWav9lNHvYxojidfv2bULIjz/+yI5m+fLl3bp1Y1fpwtKlS/VIoQoCEIAABKxXIC8vj/c7n66K5HiOToxEImFniGEY7iotX7x4cXx8PF3WaDQPHjzw8PBo2oztRP9CaWmpn59fXl5ea8586t+FuGsB2Mr5BSAAWynQys2F8xPIMExZWZmPj4/OEYkkz3l6etrb2xcUFLCDLCwsVKlU7CpdUDS+2EI3Nzd2ucULro2vFm+ODQHYyp8BAAKwlQKt3FwgP4FKpbK5gYjkPnG5XB4aGnrw4EF2nAcPHgwPD2dXsQABCEAAArYpIJLjOUJIfHz8lClTwsLC+vfv/9FHH/3vf/+bNWuWbU4qRg0BCEAAAqyAfUJCArti1QvBwcEeHh6JiYkrV66sqqratm1bnz59zD0ie3v7yMhIqVQ8fy6YW4zXPwB5IMauAtBYMV57APJAjF21CkDx3D9n7PSgPQQgAAEI2IKASD6fs4WpwhghAAEIQKAFAshzLUDDJhCAAAQgYDUCyHNWM1UIFAIQgAAEWiCAPNcCNGwCAQhAAAJWI4A8Z9BUrV+/vkuXLg4ODqGhoceOHdO5TWZmZmhoqIODQ0BAwMaNG3W2sdnChwLu2bNn2LBhXl5erq6u/fv3/+6772zWSufAHwrIbvXjjz9KpdLHHnuMLcECIcQQwJqamrfffrtTp04KheKRRx755JNPQMcKGAK4Y8eOPn36ODk5dejQYdq0ab/99qdnXbJdWWBB59PAUMgVSEtLk8lkmzZtysnJefPNN52dnW/evMltwDDM9evXnZyc3nzzzZycnE2bNslkst27d/Pa2OyqIYBvvvnme++9d+rUqatXry5evFgmk509e9ZmxXgDNwSQblJcXBwQEDB8+PA+ffrwOrHlVQMBo6Ki+vXrd/Dgwdzc3JMnT3Kfl2vLegzDGAJ47NgxOzu7f/3rX9evXz927FhQUNCYMWME4qZ9wDNe+gWeeOKJWbNmsW26d+++aNEidpUuLFiwoHv37mxhTEzMk08+ya7a+IIhgDyinj17Llu2jFdos6uGA06cOHHJkiVLly5FnuP+tBgCeODAAaVS+dtvv3E3xDIVMATw/fffDwgIYMXWrFnj6+vLrlp2AectH3IMTb/xZ/jw4Ww7nd/489NPP3HbjBgx4syZM3V1dexWNrtgICDXR6PRlJWVubu7cwttdtlwwC1btly7dg1fysH7UTEQcO/evWFhYcnJyR07duzWrdv8+fOrqqp4XdnmqoGA4eHht27d2r9/P8Mwd+/e3b1797PPPisQMTzI4yETcf/+/YaGBu4joVUqFfeB0XT7goICXpv6+vr79+936NDhITsQe7WBgFyGf/7znxUVFRMmTOAW2uyygYC//vrrokWLjh07hqfz8H5UDAS8fv368ePHHRwc0tPT79+/Hxsb++DBA3xERwgxEDA8PHzHjh0TJ06srq6ur6+Piopau3Ytby4stYrjOYPkud/do/MbfwghvDa8EoN2I95GPBzuKm/Qu3btSkhI+Oyzz7y9vXlVtrzKFWv6E9jQ0DBp0qRly5Z169bNlpX0jF0/ICFEo9FIJJIdO3Y88cQTI0eOXLVqVWpqKg7pWNKHAubk5LzxxhvvvPNOVlbWt99+m5ubK5wnDON4jp1H3QsGfuOPWq3mHuQVFhZKpVIPD4O+gVf3jsVSaiAgHe5nn302Y8aML774YujQoWIBaO04DAEsKys7c+bMuXPnXn/9dform2EYqVSakZHx9NNPtzYCK9/eEEBCSIcOHTp27Mh+t0uPHj0Yhrl161bXrl2tHKC14RsImJSUFBER8dZbbxFCevfu7ezs/NRTT/3jH/8QwjktHM895IfAwG/86d+/P/dbgTIyMsLCwmQy2UN6t4FqAwEJIbt27Zo6derOnTuFc1pfCPNjCKCrq+svv/xy/vfXrFmzAgMDz58/369fPyEMwbIxGAJICImIiLhz5055eTmN9urVq3Z2dr6+vpYNXgh7NxCwsrLSzu6PhGJvb0+I9jpHIQwB11s+/Dogek3t5s2bc3Jy4uLinJ2db9y4wTDMokWLpkyZQren9xXMnTs3Jydn8+bNuK+Ay2oI4M6dO6VS6bp16/J/fxUXF3M7seVlQwC5PrjekqvBXhav/59wWVmZr6/vuHHjsrOzMzMzu3bt+sorr/D6sdlVQ34Ct2zZIpVK169ff+3atePHj4eFhT3xxBMCEUOeM2gi1q1b16lTJ7lc/vjjj2dmZtJtoqOjBw0axG5/5MiRkJAQuVzeuXPnDRs2sOVYYBjmoYCDBg3i/d0XHR0NOlbgoYBsS4ZhkOe4GnTZEMBLly4NHTrU0dHR19c3Pj6+srKyaT82W2II4Jo1a3r27Ono6NihQ4eXXnrp1q1bAuHC9/LwfrtiFQIQgAAERCXwx+lUUQ0Lg4EABCAAAQg0CiDP4QcBAhCAAATELIA8J+bZxdggAAEIQAB5Dj8DEIAABCAgZgHkOTHPLsYGAQhAAALIc/gZgAAEIAABMQsgz4l5djE2CEAAAhBAnsPPAAQgAAEIiFkAeU7Ms2sLY4uMjJRIJKmpqRYZbOfOnSUSyZEjRyyy9xbvdOrUqRKJJCEhge3hxo0bksYXW0IXamtr33333R49ejg4OPAaZGRkDBkyxM3Nzc7OzoJTwAsYqxBoKoDvK2hqghKhCKxatWrevHmEkNmzZ6ekpAglLNPFcf78+a+++qpz585Tp041Xa+m7Gn27Nkff/yxVCrt2bOni4sL2/WxY8f+8pe/aDQaPz+/oKAgiUTC/f5FthkWICAEAeQ5IcwCYtAtwH7L5Y4dO1auXOng4KC7ndWWnj9/ftmyZYMGDbJ4npPJZIGBgTzIkpISeqCcmZkZHh7OrV2zZo1Go4mJidmwYQP3m8m4bbAMAYEI4LylQCYCYfAFTp48mZ2dbWdn5+rqWlxcvGfPHn4LrJtOoGPHjpcbX9wur1y5Ul9f7+XlxUtyhJDs7GxCSFRUFJIcVwzLwhRAnhPmvCAqsnnzZkLIkCFDpkyZQsj/rcKlLQXot2k7OTk13ameqqaNUQIBywogz1nWH3vXLVBZWZmWlkYImdr4IoT88MMPubm5uls3lt6+fXvmzJn+/v4ODg5+fn6zZs3Kz8/nta+rq0tJSYmIiGjfvr1MJvP29u7du/crr7zy/fff81qePXt28uTJfn5+CoXC3d09MjJyy5YtDQ0NvGZNVxMSEiQSic7zkLxLZjp37jxt2jRCSGZmJr3Eg/73xo0bbLd1dXUffvjh4MGDPTw85HK5r6/v5MmTf/75Z7bBQxcuXrw4fvx4Ly8vR0fH7t27JyQkVFdXN92Kdx3KkSNHJBJJZGQkIeTmzZtseKmpqfTSGxrk4MGDaRVtyXb77bffPv/88z4+PnK53MPD45lnnvn666/ZWrqQmppKd6HRaDZu3Pjkk0+6ublJJJLz58/TBgaOnb2mpqqqatmyZT169HB0dPTw8Bg9ejTbFW/XFy5ceOWVV7p27erk5KRUKoOCgl577bWTJ0/ymv3nP/+ZPHmyv7+/QqFo3779oEGDUlNTNRoNrxlWrUBAIN8PhDAgwBXYsmULIUSpVNLvAAsODiaELFmyhNuGLtMvrlu6dKmXl5ednV2vxhf9XmOVSnXp0iV2k4aGhqFDh9J/k/7+/n379qW/6QghEydOZJsxDLN+/Xrag6ura1hYWKdOnehWw4cP530nGa364Ycf2M2XLl1KCG6Xn54AAAx2SURBVNH55Xk01C1bttDG48aN69q1KyHE1dU1gvPKz8+nDQoKCsLCwgghEonEx8cnJCSEXgkik8l27drF7lHPwnfffUc/1HRwcHj88ccfeeQRQkh4ePiLL75ICFm6dCm7Lfs3BC05e/ZsREQEZVcoFGx0+/fvHzduXEREhEKhIIQEBwfTqtdff51uWF9fz+b49u3bh4SEeHt7U705c+awu2MYhk7xwIEDn3/+eUKIr69v3759vb29z507xzCM4WOPjo4mhMTHx4eEhEgkksDAwF69etHwnJyczpw5w90pwzArVqygk6tQKPr06dOrV6927doRQkaPHs1tuWTJEhq2i4tLnz592C8WHzt2bH19PbclloUvgO9ZFf4c2WKETz31FCFk5syZdPDvv/8+/VXY0NDA46DJQyaThYaG5ubm0trr16+HhoYSQnr37l1XV0cLv/rqK0JIx44d6W9SWqjRaI4cOcJNG8eOHaO/BxcsWFBdXU2bHThwwNXVlRASGxtLS+h/W5Pn2N/13G/rZTtvaGiIiIgghAwYMODixYu0vL6+fuXKlXZ2dg4ODleuXGEb61y4d++eh4cH/RTtwYMHtM2xY8c8PT1lMpn+PEcb//DDD4SQTp06Ne2/6cBpm8WLF9OZ+ve//81utX//fi8vL0LIp59+yhbSPGdvb+/m5nbgwAFaXl9fX1NTY9TYaZ6TyWR9+vS5fPky7efu3bv0M8XIyEh2jwzDfPrpp/TvhiVLlpSXl7NVR48e3bRpE7v64YcfEkLc3Ny2bt2q0Who+cmTJ+kfCn//+9/ZlliwCgHkOauYJtsK8sqVK/RP6RMnTtCR5+fnS6Xaa4PZX4isCM1zUqn02rVrbCHDMNeuXaObfPHFF7Q8KSmJEBIXF8dt1nR52LBh9HNBXhX93SeTybjfktz0173hx3P689wXX3xBCPH39y8qKuJFMnv2bELIa6+9xivnrb777ruEEE9PT+4vdIZhduzYQXn1HM/RrozNc7du3ZLL5fb29qdPn+YFQ4fTo0cPtpzmOULIjh072EK6YNTYaZ6Ty+VXr17l9pOVlUVTWnFxMS2vqanx8fEhhCxcuJDbkrdcWVnp6elJCNmzZw+v6tSpUxKJxM3NraamhleFVSEL4PM5+k8e/xWQAL2dIDAwsH///jQstVo9YsQIPVejjBkzJiAggDuGgICA0aNHE0K++eYbWk5zUkZGxt27d7ktucuVlZX0l/v8+fO55YSQadOmeXl51dXVZWRk8KrMsfrZZ58RQl588UU3Nzde/+PGjSOEHD58mFfOW923bx8h5NVXX3V2duZWTZw4Ua1Wc0tMtfzVV1/V1taGNb54fY4ePVomk126dIn3oamLi8uECRN4jVsw9hEjRtCTwGxXISEhCoWC/sVDC0+cOHHnzh2ZTLZo0SK2WdOF77///v79+2q1euzYsbzavn37+vv7FxcX0yTKq8WqYAVw/5xgp8ZGA6uvr6cnl9iPeSjE1KlT9+3bt3fv3vv379M/t7lA9JMkbgn99OjLL7/Mycmh5WPGjAkMDMzJyfH394+MjBwwYED//v3Dw8O51xP+97//ra+vJ4T06tWL15tMJuvRo8e9e/cuX77MqzLH6oULF+ghxfHjx3n90wtJ8vLyeOW8VRpnUxl7e/vu3bsXFBTw2rd+lcacm5s7YMCApr3ROxDy8vI6dOjA1gYGBtLDbraEENKCsTe9+U8ikXh7e+fl5ZWXl9POf/nlF0JIz549m/7p0HTvVVVVOkfx4MEDQkheXh77Rxh3WywLUwB5TpjzYrtR7d+/Pz8/387Ojt5OwEJERUW5u7s/ePBg27Ztc+fOZcvpgs4DFFpYVlZG2zg6Oh47dmz58uW7du3KaHwRQpycnCZNmpSUlERzZ2lpKW2s8+ke9Bc024YXg2lXi4qKCCG/Nr509kyv7NdZRQvpwHUORGehnq4MrKIxFza+mtuksrKSW8U71qRVLRi7zn7o56zsFZJ04vQnOUII3XtJScmPP/7IDZW7zBsFtwrLAhTAeUsBTopNh0Rvm9NoNL6+vuzl7BKJRKFQ0D+laQOekc5TkbSQ+7QqLy+vDz744O7du5cvX/7kk09efPFFjUbz8ccfR0VF0XsG6MUmhBCdHdJzbmwbXgx0lR61MAzTtLa2trZpYXMl9CLAzz//XM/HHs1tS8vpwHUORGeh/t4MqaUx8y7V4cXPuwNBZ7etH7vObunEFRcX66xlC+neR44cyYucu8o72cBuiwVhCiDPCXNebDSqu3fv7t+/nxDi4eGh0vWiT+I4deoUD+jixYu8EkIILezZs2fTqsDAwGnTpu3cufPEiRMSieSnn346c+YMIeTRRx+lp9HoOS7uhnV1dfRMYI8ePbjlvGV6YKEzkVy7do3XWM/DRHr37k0IaXrSkteDntXu3buzDy7hNmtoaGCv9OGWt3659THTGEzVD29EtNucnBz9qY42O3nyJD2DzesEq9YogDxnjbMm2pi3bt1aX1+vVCrz8vIKdL1CQkJ0Xo2Snp7Ovb2aEHLjxg16I8Gzzz6rxyskJESpVBJCbt++TU9jDh48mBCycuVK3lZbt24tLCyUyWTDhw/nVXFXu3XrRgg5e/Ys73bs9PT0wsJCbku6O0KIzjOQ9OqMLVu2PPRzOF6f7OrIkSMJIZs2beKdZPv88895F4Owm7RyYezYsVKp9Oeff256V7hRPbd+7Dp3Fx4e7uPjU1dXl5ycrLMBLRw2bFj79u1/++23devW6WmGKmsS4B6MYxkClhWgVxPExMQ0F8aaNWvojdUVFRW0DXv/XN++fW/cuEELb9y40bdvX0JIUFAQe//cypUrV6xYcf36dbbzmpqaFStWEELs7OzYe+/Y++cWLlzI3j/33Xff0XQ4e/ZsdnOGYZreV1BWVkZPfL322mvsrvfv39++fXu5XE4IYe8TZxjm7NmzhBBnZ+eCggJutwzDNDQ00DvAHn300cOHD3Nrr1+//t5773Hv9+LWssuFhYXu7u6EkLFjx7I3J/z444/e3t7mu39u4cKFhJB27dpt2rSJe/H9b7/9tnXr1vnz57Ph0fsKmrt30PCx0/sKuPdIsLtoOjtbt26lNxssXbqU/RFiGObYsWNczw0bNhBCpFLpihUruHdllJWV7d69e8aMGewusGAVArh/ziqmySaCPHbsGP0L8eTJk80N+LfffqOPukhNTaVtaJ575513vLy87O3teze+7O3tCSFeXl7Z2dlsV2+++SbtX6VShYaGPvbYYzR1EUKSk5PZZgzDrFu3jn0eSt++fTt37kw3NOR5KPRxKrS9UqkMDQ2lj9J49dVXaajcPKfRaOiFnc7Ozn379h3U+GKfh3Lv3r2BAwfSrry8vPr27RsaGso+XkTnb3buKBiGOXDgAOVycHAIDQ2lV94b8jwU2o+x98/R9Exv76NHqyEhIU888QR9VBghhJvV9OQ5hmEMH7tReY5hmHfffZeeLnZwcHjsscd69epFP8jkPQ8lMTGR/gzI5fLevXv369fv0UcfpSU6b5znyWNVUALIc4KaDpsOhn62HxQUpF+BntR66qmnaDM2edy6deuVV17x9fWVy+UdO3acOXPm7du3uV1dvnx5+fLlw4YN69Spk5OTk1wu9/f3/+tf/3rs2DFuM7p85syZSZMmdezYUSaTubm5DRw4cPPmzU0f+NT0iIFuvnv37v79+zs3vp544gmaldlQubvLy8uLjo728/Ojx1iEEPbIkmGY+vr6tLS0UaNGqdVqmUzm4eHRq1evSZMmpaWllZSUcPtpbvnChQsvvPCCh4eHQqEIDAx85513qqqqmuYG3nO/aG8tyHN0wxMnTrz88ssBAQEODg7t2rXr1q3byJEjU1JS8vLy2Dj15znDx950LOwumpudM2fOTJkypVOnTnK53M3NLSgoKDY29tSpU+yGdOHixYuzZs0KDAx0anw98sgjQ4YMSU5O5t2QztsKqwIUkOi8MIz+CYn/QgACEIAABKxdANehWPsMIn4IQAACENAngDynTwd1EIAABCBg7QLIc9Y+g4gfAhCAAAT0CSDP6dNBHQQgAAEIWLsA8py1zyDihwAEIAABfQLIc/p0UAcBCEAAAtYugDxn7TOI+CEAAQhAQJ8A8pw+HdRBAAIQgIC1CyDPWfsMIn4IQAACENAngDynTwd1EIAABCBg7QLIc9Y+g4gfAhCAAAT0CSDP6dNBHQQgAAEIWLsA8py1zyDihwAEIAABfQL/H6oL+sCpgaBiAAAAAElFTkSuQmCC;fontSize=16;" vertex="1" parent="kIMGEz0QDYV-E_OhELrM-129">
          <mxGeometry x="-9.117676736234955" width="240.2353534724699" height="179.8759704586404" as="geometry" />
        </mxCell>
        <mxCell id="kIMGEz0QDYV-E_OhELrM-132" value="Association shift" style="text;html=1;align=center;verticalAlign=middle;resizable=0;points=[];autosize=1;strokeColor=none;fillColor=none;" vertex="1" parent="1">
          <mxGeometry x="-551.5" y="-2300.5299999999997" width="105" height="26" as="geometry" />
        </mxCell>
        <mxCell id="kIMGEz0QDYV-E_OhELrM-133" value="&lt;b&gt;1) expression dataset&lt;/b&gt;" style="text;html=1;align=center;verticalAlign=middle;resizable=0;points=[];autosize=1;strokeColor=none;fillColor=none;" vertex="1" parent="1">
          <mxGeometry x="-1091.97" y="-2422" width="150" height="30" as="geometry" />
        </mxCell>
        <mxCell id="kIMGEz0QDYV-E_OhELrM-134" value="&lt;b&gt;2) condition dataset&lt;br&gt;&lt;/b&gt;&lt;div style=&quot;text-align: justify;&quot;&gt;&lt;span style=&quot;background-color: initial;&quot;&gt;&amp;nbsp;specifying the label of each sample&lt;/span&gt;&lt;/div&gt;" style="text;html=1;align=center;verticalAlign=middle;resizable=0;points=[];autosize=1;strokeColor=none;fillColor=none;" vertex="1" parent="1">
          <mxGeometry x="-1121.97" y="-2172.3900000000003" width="210" height="40" as="geometry" />
        </mxCell>
        <mxCell id="kIMGEz0QDYV-E_OhELrM-135" value="&lt;div style=&quot;text-align: center;&quot;&gt;&lt;b&gt;3) structure dataset,&lt;/b&gt;&lt;/div&gt;&lt;span style=&quot;color: rgb(0, 0, 0); font-family: Helvetica; font-size: 12px; font-style: normal; font-variant-ligatures: normal; font-variant-caps: normal; letter-spacing: normal; orphans: 2; text-indent: 0px; text-transform: none; widows: 2; word-spacing: 0px; -webkit-text-stroke-width: 0px; background-color: rgb(251, 251, 251); text-decoration-thickness: initial; text-decoration-style: initial; text-decoration-color: initial; float: none; display: inline !important;&quot;&gt;&lt;div style=&quot;text-align: center;&quot;&gt;&amp;nbsp;specifying gene-gene associations (mode 2), or the genes that are TFs (mode 3)&lt;/div&gt;&lt;/span&gt;" style="text;whiteSpace=wrap;html=1;" vertex="1" parent="1">
          <mxGeometry x="-1129.22" y="-1921" width="224.5" height="51" as="geometry" />
        </mxCell>
        <mxCell id="kIMGEz0QDYV-E_OhELrM-201" value="" style="group;fontSize=14;" vertex="1" connectable="0" parent="1">
          <mxGeometry x="-331.99999999999994" y="-2023.51" width="149.74" height="166.10404807810346" as="geometry" />
        </mxCell>
        <mxCell id="kIMGEz0QDYV-E_OhELrM-202" style="rounded=0;orthogonalLoop=1;jettySize=auto;html=1;exitX=1;exitY=0;exitDx=0;exitDy=0;entryX=0.021;entryY=0.67;entryDx=0;entryDy=0;entryPerimeter=0;strokeWidth=2;strokeColor=#666666;endArrow=block;endFill=1;endSize=0;targetPerimeterSpacing=0;startSize=3;" edge="1" parent="kIMGEz0QDYV-E_OhELrM-201" source="kIMGEz0QDYV-E_OhELrM-204" target="kIMGEz0QDYV-E_OhELrM-219">
          <mxGeometry relative="1" as="geometry" />
        </mxCell>
        <mxCell id="kIMGEz0QDYV-E_OhELrM-203" style="rounded=0;orthogonalLoop=1;jettySize=auto;html=1;exitX=0;exitY=1;exitDx=0;exitDy=0;entryX=1;entryY=0;entryDx=0;entryDy=0;strokeWidth=2;strokeColor=#666666;endArrow=block;endFill=1;endSize=0;targetPerimeterSpacing=0;startSize=3;" edge="1" parent="kIMGEz0QDYV-E_OhELrM-201" source="kIMGEz0QDYV-E_OhELrM-204" target="kIMGEz0QDYV-E_OhELrM-229">
          <mxGeometry relative="1" as="geometry" />
        </mxCell>
        <mxCell id="kIMGEz0QDYV-E_OhELrM-204" value="&lt;font style=&quot;font-size: 9px;&quot;&gt;TF&lt;sub&gt;2&lt;/sub&gt;&lt;/font&gt;" style="ellipse;whiteSpace=wrap;html=1;aspect=fixed;strokeColor=#666666;strokeWidth=1;fillColor=#f5f5f5;fontColor=#333333;" vertex="1" parent="kIMGEz0QDYV-E_OhELrM-201">
          <mxGeometry x="12.517297297297304" y="37.837837837837846" width="18.00097546200999" height="18.00097546200999" as="geometry" />
        </mxCell>
        <mxCell id="kIMGEz0QDYV-E_OhELrM-205" style="rounded=0;orthogonalLoop=1;jettySize=auto;html=1;endArrow=block;endFill=1;strokeWidth=2;strokeColor=#ffb366;endSize=0;targetPerimeterSpacing=0;startSize=3;" edge="1" parent="kIMGEz0QDYV-E_OhELrM-201" source="kIMGEz0QDYV-E_OhELrM-206" target="kIMGEz0QDYV-E_OhELrM-204">
          <mxGeometry relative="1" as="geometry" />
        </mxCell>
        <mxCell id="kIMGEz0QDYV-E_OhELrM-206" value="&lt;font style=&quot;font-size: 9px;&quot;&gt;TF&lt;sub&gt;1&lt;/sub&gt;&lt;/font&gt;" style="ellipse;whiteSpace=wrap;html=1;aspect=fixed;strokeColor=#666666;strokeWidth=1;fillColor=#f5f5f5;fontColor=#333333;" vertex="1" parent="kIMGEz0QDYV-E_OhELrM-201">
          <mxGeometry x="35.450450450450475" y="63.06306306306307" width="18.00097546200999" height="18.00097546200999" as="geometry" />
        </mxCell>
        <mxCell id="kIMGEz0QDYV-E_OhELrM-207" style="rounded=0;orthogonalLoop=1;jettySize=auto;html=1;exitX=1;exitY=1;exitDx=0;exitDy=0;entryX=0;entryY=0;entryDx=0;entryDy=0;strokeWidth=2;strokeColor=#cc0000;endArrow=block;endFill=1;endSize=0;targetPerimeterSpacing=0;startSize=3;" edge="1" parent="kIMGEz0QDYV-E_OhELrM-201" source="kIMGEz0QDYV-E_OhELrM-209" target="kIMGEz0QDYV-E_OhELrM-223">
          <mxGeometry relative="1" as="geometry" />
        </mxCell>
        <mxCell id="kIMGEz0QDYV-E_OhELrM-208" style="rounded=0;orthogonalLoop=1;jettySize=auto;html=1;exitX=0;exitY=0;exitDx=0;exitDy=0;entryX=0.939;entryY=0.654;entryDx=0;entryDy=0;entryPerimeter=0;strokeWidth=2;strokeColor=#ffb366;endArrow=block;endFill=1;endSize=0;targetPerimeterSpacing=0;startSize=3;" edge="1" parent="kIMGEz0QDYV-E_OhELrM-201" source="kIMGEz0QDYV-E_OhELrM-209" target="kIMGEz0QDYV-E_OhELrM-231">
          <mxGeometry relative="1" as="geometry" />
        </mxCell>
        <mxCell id="kIMGEz0QDYV-E_OhELrM-209" value="&lt;font style=&quot;font-size: 9px;&quot;&gt;TF&lt;sub&gt;3&lt;/sub&gt;&lt;/font&gt;" style="ellipse;whiteSpace=wrap;html=1;aspect=fixed;strokeColor=#666666;strokeWidth=1;fillColor=#f5f5f5;fontColor=#333333;" vertex="1" parent="kIMGEz0QDYV-E_OhELrM-201">
          <mxGeometry x="58.379999999999995" y="37.84" width="18.16" height="18.16" as="geometry" />
        </mxCell>
        <mxCell id="kIMGEz0QDYV-E_OhELrM-210" style="edgeStyle=none;rounded=0;orthogonalLoop=1;jettySize=auto;html=1;endArrow=block;endFill=1;strokeColor=#6F0000;strokeWidth=2;endSize=0;targetPerimeterSpacing=0;startSize=3;fillColor=#a20025;" edge="1" parent="kIMGEz0QDYV-E_OhELrM-201" source="kIMGEz0QDYV-E_OhELrM-206" target="kIMGEz0QDYV-E_OhELrM-209">
          <mxGeometry relative="1" as="geometry" />
        </mxCell>
        <mxCell id="kIMGEz0QDYV-E_OhELrM-211" style="rounded=0;orthogonalLoop=1;jettySize=auto;html=1;exitX=1;exitY=0;exitDx=0;exitDy=0;entryX=0;entryY=1;entryDx=0;entryDy=0;strokeWidth=2;endArrow=block;endFill=1;strokeColor=#666666;endSize=0;targetPerimeterSpacing=0;startSize=3;" edge="1" parent="kIMGEz0QDYV-E_OhELrM-201" source="kIMGEz0QDYV-E_OhELrM-213" target="kIMGEz0QDYV-E_OhELrM-221">
          <mxGeometry relative="1" as="geometry" />
        </mxCell>
        <mxCell id="kIMGEz0QDYV-E_OhELrM-212" style="rounded=0;orthogonalLoop=1;jettySize=auto;html=1;exitX=0;exitY=1;exitDx=0;exitDy=0;entryX=0.792;entryY=0.297;entryDx=0;entryDy=0;entryPerimeter=0;strokeWidth=2;strokeColor=#666666;endArrow=block;endFill=1;endSize=0;targetPerimeterSpacing=0;startSize=3;" edge="1" parent="kIMGEz0QDYV-E_OhELrM-201" source="kIMGEz0QDYV-E_OhELrM-213" target="kIMGEz0QDYV-E_OhELrM-227">
          <mxGeometry relative="1" as="geometry" />
        </mxCell>
        <mxCell id="kIMGEz0QDYV-E_OhELrM-213" value="&lt;font style=&quot;font-size: 9px;&quot;&gt;TF&lt;sub&gt;4&lt;/sub&gt;&lt;/font&gt;" style="ellipse;whiteSpace=wrap;html=1;aspect=fixed;strokeColor=#666666;strokeWidth=1;fillColor=#f5f5f5;fontColor=#333333;" vertex="1" parent="kIMGEz0QDYV-E_OhELrM-201">
          <mxGeometry x="58.383603603603646" y="88.28828828828827" width="18.00097546200999" height="18.00097546200999" as="geometry" />
        </mxCell>
        <mxCell id="kIMGEz0QDYV-E_OhELrM-214" style="edgeStyle=none;rounded=0;orthogonalLoop=1;jettySize=auto;html=1;entryX=0;entryY=0;entryDx=0;entryDy=0;endArrow=block;endFill=1;strokeColor=#ffb366;strokeWidth=2;endSize=0;targetPerimeterSpacing=0;startSize=3;" edge="1" parent="kIMGEz0QDYV-E_OhELrM-201" source="kIMGEz0QDYV-E_OhELrM-206" target="kIMGEz0QDYV-E_OhELrM-213">
          <mxGeometry relative="1" as="geometry" />
        </mxCell>
        <mxCell id="kIMGEz0QDYV-E_OhELrM-215" style="rounded=0;orthogonalLoop=1;jettySize=auto;html=1;exitX=0;exitY=0;exitDx=0;exitDy=0;entryX=1;entryY=1;entryDx=0;entryDy=0;strokeWidth=2;strokeColor=#666666;endArrow=block;endFill=1;endSize=0;targetPerimeterSpacing=0;startSize=3;" edge="1" parent="kIMGEz0QDYV-E_OhELrM-201" source="kIMGEz0QDYV-E_OhELrM-217" target="kIMGEz0QDYV-E_OhELrM-233">
          <mxGeometry relative="1" as="geometry" />
        </mxCell>
        <mxCell id="kIMGEz0QDYV-E_OhELrM-216" style="rounded=0;orthogonalLoop=1;jettySize=auto;html=1;exitX=1;exitY=1;exitDx=0;exitDy=0;entryX=0;entryY=0;entryDx=0;entryDy=0;strokeWidth=2;strokeColor=#ffb366;endArrow=block;endFill=1;endSize=0;targetPerimeterSpacing=0;startSize=3;" edge="1" parent="kIMGEz0QDYV-E_OhELrM-201" source="kIMGEz0QDYV-E_OhELrM-217" target="kIMGEz0QDYV-E_OhELrM-225">
          <mxGeometry relative="1" as="geometry" />
        </mxCell>
        <mxCell id="kIMGEz0QDYV-E_OhELrM-217" value="&lt;font style=&quot;font-size: 9px;&quot;&gt;TF&lt;sub&gt;5&lt;/sub&gt;&lt;/font&gt;" style="ellipse;whiteSpace=wrap;html=1;aspect=fixed;strokeColor=#666666;strokeWidth=1;fillColor=#f5f5f5;fontColor=#333333;" vertex="1" parent="kIMGEz0QDYV-E_OhELrM-201">
          <mxGeometry x="12.517297297297304" y="88.28828828828827" width="18.00097546200999" height="18.00097546200999" as="geometry" />
        </mxCell>
        <mxCell id="kIMGEz0QDYV-E_OhELrM-218" style="edgeStyle=none;rounded=0;orthogonalLoop=1;jettySize=auto;html=1;entryX=1;entryY=0;entryDx=0;entryDy=0;endArrow=block;endFill=1;strokeColor=#cc0000;strokeWidth=2;endSize=0;targetPerimeterSpacing=0;startSize=3;" edge="1" parent="kIMGEz0QDYV-E_OhELrM-201" source="kIMGEz0QDYV-E_OhELrM-206" target="kIMGEz0QDYV-E_OhELrM-217">
          <mxGeometry relative="1" as="geometry" />
        </mxCell>
        <mxCell id="kIMGEz0QDYV-E_OhELrM-219" value="&lt;font style=&quot;font-size: 9px;&quot;&gt;g&lt;sub&gt;3&lt;/sub&gt;&lt;/font&gt;" style="ellipse;whiteSpace=wrap;html=1;aspect=fixed;strokeColor=#666666;strokeWidth=1;fillColor=#f5f5f5;fontColor=#333333;" vertex="1" parent="kIMGEz0QDYV-E_OhELrM-201">
          <mxGeometry x="75.92072072072077" width="18.00097546200999" height="18.00097546200999" as="geometry" />
        </mxCell>
        <mxCell id="kIMGEz0QDYV-E_OhELrM-220" style="edgeStyle=none;rounded=0;orthogonalLoop=1;jettySize=auto;html=1;endArrow=block;endFill=1;strokeColor=#6F0000;strokeWidth=2;endSize=0;targetPerimeterSpacing=0;startSize=3;fillColor=#a20025;" edge="1" parent="kIMGEz0QDYV-E_OhELrM-201" source="kIMGEz0QDYV-E_OhELrM-209" target="kIMGEz0QDYV-E_OhELrM-219">
          <mxGeometry relative="1" as="geometry" />
        </mxCell>
        <mxCell id="kIMGEz0QDYV-E_OhELrM-221" value="&lt;font style=&quot;font-size: 9px; line-height: 1;&quot;&gt;g&lt;sub&gt;4&lt;/sub&gt;&lt;/font&gt;" style="ellipse;whiteSpace=wrap;html=1;aspect=fixed;strokeColor=#666666;strokeWidth=1;fillColor=#f5f5f5;fontColor=#333333;" vertex="1" parent="kIMGEz0QDYV-E_OhELrM-201">
          <mxGeometry x="102.90090090090095" y="37.837837837837846" width="18.00097546200999" height="18.00097546200999" as="geometry" />
        </mxCell>
        <mxCell id="kIMGEz0QDYV-E_OhELrM-222" style="edgeStyle=none;rounded=0;orthogonalLoop=1;jettySize=auto;html=1;entryX=0;entryY=0.5;entryDx=0;entryDy=0;endArrow=block;endFill=1;strokeColor=#cc0000;strokeWidth=2;endSize=0;targetPerimeterSpacing=0;startSize=3;" edge="1" parent="kIMGEz0QDYV-E_OhELrM-201" source="kIMGEz0QDYV-E_OhELrM-209" target="kIMGEz0QDYV-E_OhELrM-221">
          <mxGeometry relative="1" as="geometry" />
        </mxCell>
        <mxCell id="kIMGEz0QDYV-E_OhELrM-223" value="&lt;font style=&quot;font-size: 9px;&quot;&gt;g&lt;sub&gt;5&lt;/sub&gt;&lt;/font&gt;" style="ellipse;whiteSpace=wrap;html=1;aspect=fixed;strokeColor=#666666;strokeWidth=1;fillColor=#f5f5f5;fontColor=#333333;" vertex="1" parent="kIMGEz0QDYV-E_OhELrM-201">
          <mxGeometry x="102.90090090090095" y="88.28828828828827" width="18.00097546200999" height="18.00097546200999" as="geometry" />
        </mxCell>
        <mxCell id="kIMGEz0QDYV-E_OhELrM-224" style="edgeStyle=none;rounded=0;orthogonalLoop=1;jettySize=auto;html=1;endArrow=block;endFill=1;strokeColor=#666666;strokeWidth=2;endSize=0;targetPerimeterSpacing=0;startSize=3;" edge="1" parent="kIMGEz0QDYV-E_OhELrM-201" source="kIMGEz0QDYV-E_OhELrM-213" target="kIMGEz0QDYV-E_OhELrM-223">
          <mxGeometry relative="1" as="geometry" />
        </mxCell>
        <mxCell id="kIMGEz0QDYV-E_OhELrM-225" value="&lt;font style=&quot;font-size: 9px;&quot;&gt;g&lt;sub&gt;6&lt;/sub&gt;&lt;/font&gt;" style="ellipse;whiteSpace=wrap;html=1;aspect=fixed;strokeColor=#666666;strokeWidth=1;fillColor=#f5f5f5;fontColor=#333333;" vertex="1" parent="kIMGEz0QDYV-E_OhELrM-201">
          <mxGeometry x="75.92072072072077" y="126.12612612612614" width="18.00097546200999" height="18.00097546200999" as="geometry" />
        </mxCell>
        <mxCell id="kIMGEz0QDYV-E_OhELrM-226" style="edgeStyle=none;rounded=0;orthogonalLoop=1;jettySize=auto;html=1;endArrow=block;endFill=1;strokeColor=#666666;strokeWidth=2;endSize=0;targetPerimeterSpacing=0;startSize=3;" edge="1" parent="kIMGEz0QDYV-E_OhELrM-201" source="kIMGEz0QDYV-E_OhELrM-213" target="kIMGEz0QDYV-E_OhELrM-225">
          <mxGeometry relative="1" as="geometry" />
        </mxCell>
        <mxCell id="kIMGEz0QDYV-E_OhELrM-227" value="&lt;font style=&quot;font-size: 9px;&quot;&gt;g&lt;sub&gt;7&lt;/sub&gt;&lt;/font&gt;" style="ellipse;whiteSpace=wrap;html=1;aspect=fixed;strokeColor=#666666;strokeWidth=1;fillColor=#f5f5f5;fontColor=#333333;" vertex="1" parent="kIMGEz0QDYV-E_OhELrM-201">
          <mxGeometry x="-5.0198198198198085" y="126.12612612612614" width="18.00097546200999" height="18.00097546200999" as="geometry" />
        </mxCell>
        <mxCell id="kIMGEz0QDYV-E_OhELrM-228" style="edgeStyle=none;rounded=0;orthogonalLoop=1;jettySize=auto;html=1;endArrow=block;endFill=1;strokeColor=#6F0000;strokeWidth=2;endSize=0;targetPerimeterSpacing=0;startSize=3;fillColor=#a20025;" edge="1" parent="kIMGEz0QDYV-E_OhELrM-201" source="kIMGEz0QDYV-E_OhELrM-217" target="kIMGEz0QDYV-E_OhELrM-227">
          <mxGeometry relative="1" as="geometry" />
        </mxCell>
        <mxCell id="kIMGEz0QDYV-E_OhELrM-229" value="&lt;font style=&quot;font-size: 9px;&quot;&gt;g&lt;sub&gt;8&lt;/sub&gt;&lt;/font&gt;" style="ellipse;whiteSpace=wrap;html=1;aspect=fixed;strokeColor=#666666;strokeWidth=1;fillColor=#f5f5f5;fontColor=#333333;" vertex="1" parent="kIMGEz0QDYV-E_OhELrM-201">
          <mxGeometry x="-32" y="88.28828828828827" width="18.00097546200999" height="18.00097546200999" as="geometry" />
        </mxCell>
        <mxCell id="kIMGEz0QDYV-E_OhELrM-230" style="edgeStyle=none;rounded=0;orthogonalLoop=1;jettySize=auto;html=1;entryX=1;entryY=0.5;entryDx=0;entryDy=0;endArrow=block;endFill=1;strokeColor=#cc0000;strokeWidth=2;endSize=0;targetPerimeterSpacing=0;startSize=3;sourcePerimeterSpacing=1;" edge="1" parent="kIMGEz0QDYV-E_OhELrM-201" source="kIMGEz0QDYV-E_OhELrM-217" target="kIMGEz0QDYV-E_OhELrM-229">
          <mxGeometry relative="1" as="geometry" />
        </mxCell>
        <mxCell id="kIMGEz0QDYV-E_OhELrM-231" value="&lt;font style=&quot;font-size: 9px;&quot;&gt;g&lt;sub&gt;2&lt;/sub&gt;&lt;/font&gt;" style="ellipse;whiteSpace=wrap;html=1;aspect=fixed;strokeColor=#666666;strokeWidth=1;fillColor=#f5f5f5;fontColor=#333333;" vertex="1" parent="kIMGEz0QDYV-E_OhELrM-201">
          <mxGeometry x="-5.0198198198198085" width="18.00097546200999" height="18.00097546200999" as="geometry" />
        </mxCell>
        <mxCell id="kIMGEz0QDYV-E_OhELrM-232" style="edgeStyle=none;rounded=0;orthogonalLoop=1;jettySize=auto;html=1;endArrow=block;endFill=1;strokeColor=#666666;strokeWidth=2;endSize=0;targetPerimeterSpacing=0;startSize=3;" edge="1" parent="kIMGEz0QDYV-E_OhELrM-201" source="kIMGEz0QDYV-E_OhELrM-204" target="kIMGEz0QDYV-E_OhELrM-231">
          <mxGeometry relative="1" as="geometry" />
        </mxCell>
        <mxCell id="kIMGEz0QDYV-E_OhELrM-233" value="&lt;font style=&quot;font-size: 9px;&quot;&gt;g&lt;sub&gt;1&lt;/sub&gt;&lt;/font&gt;" style="ellipse;whiteSpace=wrap;html=1;aspect=fixed;strokeColor=#666666;strokeWidth=1;fillColor=#f5f5f5;fontColor=#333333;" vertex="1" parent="kIMGEz0QDYV-E_OhELrM-201">
          <mxGeometry x="-32" y="37.837837837837846" width="18.00097546200999" height="18.00097546200999" as="geometry" />
        </mxCell>
        <mxCell id="kIMGEz0QDYV-E_OhELrM-234" style="edgeStyle=none;rounded=0;orthogonalLoop=1;jettySize=auto;html=1;endArrow=block;endFill=1;strokeColor=#ffb366;strokeWidth=2;endSize=0;targetPerimeterSpacing=0;startSize=3;" edge="1" parent="kIMGEz0QDYV-E_OhELrM-201" source="kIMGEz0QDYV-E_OhELrM-204" target="kIMGEz0QDYV-E_OhELrM-233">
          <mxGeometry relative="1" as="geometry" />
        </mxCell>
        <mxCell id="kIMGEz0QDYV-E_OhELrM-236" value="" style="group;fontSize=14;" vertex="1" connectable="0" parent="1">
          <mxGeometry x="-191.41394895443955" y="-2201.23398741511" width="141.9943041547222" height="129.29398741510968" as="geometry" />
        </mxCell>
        <mxCell id="kIMGEz0QDYV-E_OhELrM-237" value="&lt;font style=&quot;font-size: 9px;&quot;&gt;TF&lt;sub&gt;1&lt;/sub&gt;&lt;/font&gt;" style="ellipse;whiteSpace=wrap;html=1;aspect=fixed;strokeColor=#666666;strokeWidth=1;fillColor=#f5f5f5;fontColor=#333333;" vertex="1" parent="kIMGEz0QDYV-E_OhELrM-236">
          <mxGeometry x="60.68278774845882" y="58.24053487167103" width="19.353378623198882" height="19.353378623198882" as="geometry" />
        </mxCell>
        <mxCell id="kIMGEz0QDYV-E_OhELrM-238" value="&lt;font style=&quot;font-size: 9px;&quot;&gt;TF&lt;sub&gt;3&lt;/sub&gt;&lt;/font&gt;" style="ellipse;whiteSpace=wrap;html=1;aspect=fixed;strokeColor=#666666;strokeWidth=1;fillColor=#f5f5f5;fontColor=#333333;" vertex="1" parent="kIMGEz0QDYV-E_OhELrM-236">
          <mxGeometry x="81.31493558293482" y="34.94432092300262" width="19.353378623198882" height="19.353378623198882" as="geometry" />
        </mxCell>
        <mxCell id="kIMGEz0QDYV-E_OhELrM-239" style="edgeStyle=none;rounded=0;orthogonalLoop=1;jettySize=auto;html=1;endArrow=openThin;endFill=0;strokeColor=#CC0000;strokeWidth=2;endSize=3;fillColor=#f8cecc;" edge="1" parent="kIMGEz0QDYV-E_OhELrM-236" source="kIMGEz0QDYV-E_OhELrM-237" target="kIMGEz0QDYV-E_OhELrM-238">
          <mxGeometry relative="1" as="geometry" />
        </mxCell>
        <mxCell id="kIMGEz0QDYV-E_OhELrM-240" value="&lt;font style=&quot;font-size: 9px;&quot;&gt;TF&lt;sub&gt;5&lt;/sub&gt;&lt;/font&gt;" style="ellipse;whiteSpace=wrap;html=1;aspect=fixed;strokeColor=#666666;strokeWidth=1;fillColor=#f5f5f5;fontColor=#333333;" vertex="1" parent="kIMGEz0QDYV-E_OhELrM-236">
          <mxGeometry x="40.05063991398282" y="81.53674882033943" width="19.353378623198882" height="19.353378623198882" as="geometry" />
        </mxCell>
        <mxCell id="kIMGEz0QDYV-E_OhELrM-241" style="edgeStyle=none;rounded=0;orthogonalLoop=1;jettySize=auto;html=1;entryX=1;entryY=0;entryDx=0;entryDy=0;endArrow=openThin;endFill=0;strokeColor=#FFB366;strokeWidth=2;endSize=3;fillColor=#f8cecc;" edge="1" parent="kIMGEz0QDYV-E_OhELrM-236" source="kIMGEz0QDYV-E_OhELrM-237" target="kIMGEz0QDYV-E_OhELrM-240">
          <mxGeometry relative="1" as="geometry" />
        </mxCell>
        <mxCell id="kIMGEz0QDYV-E_OhELrM-242" value="&lt;font style=&quot;font-size: 9px;&quot;&gt;g&lt;sub&gt;3&lt;/sub&gt;&lt;/font&gt;" style="ellipse;whiteSpace=wrap;html=1;aspect=fixed;strokeColor=#666666;strokeWidth=1;fillColor=#f5f5f5;fontColor=#333333;" vertex="1" parent="kIMGEz0QDYV-E_OhELrM-236">
          <mxGeometry x="97.09246039753413" width="19.353378623198882" height="19.353378623198882" as="geometry" />
        </mxCell>
        <mxCell id="kIMGEz0QDYV-E_OhELrM-243" style="edgeStyle=none;rounded=0;orthogonalLoop=1;jettySize=auto;html=1;endArrow=openThin;endFill=0;strokeColor=#CC0000;strokeWidth=2;endSize=3;fillColor=#f8cecc;" edge="1" parent="kIMGEz0QDYV-E_OhELrM-236" source="kIMGEz0QDYV-E_OhELrM-238" target="kIMGEz0QDYV-E_OhELrM-242">
          <mxGeometry relative="1" as="geometry" />
        </mxCell>
        <mxCell id="kIMGEz0QDYV-E_OhELrM-244" value="&lt;font style=&quot;font-size: 9px; line-height: 1;&quot;&gt;g&lt;sub&gt;4&lt;/sub&gt;&lt;/font&gt;" style="ellipse;whiteSpace=wrap;html=1;aspect=fixed;strokeColor=#666666;strokeWidth=1;fillColor=#f5f5f5;fontColor=#333333;" vertex="1" parent="kIMGEz0QDYV-E_OhELrM-236">
          <mxGeometry x="121.36557549691764" y="34.94432092300262" width="19.353378623198882" height="19.353378623198882" as="geometry" />
        </mxCell>
        <mxCell id="kIMGEz0QDYV-E_OhELrM-245" style="edgeStyle=none;rounded=0;orthogonalLoop=1;jettySize=auto;html=1;entryX=0;entryY=0.5;entryDx=0;entryDy=0;endArrow=openThin;endFill=0;strokeColor=#FF8000;strokeWidth=2;endSize=3;fillColor=#f8cecc;" edge="1" parent="kIMGEz0QDYV-E_OhELrM-236" source="kIMGEz0QDYV-E_OhELrM-238" target="kIMGEz0QDYV-E_OhELrM-244">
          <mxGeometry relative="1" as="geometry" />
        </mxCell>
        <mxCell id="kIMGEz0QDYV-E_OhELrM-246" value="&lt;font style=&quot;font-size: 9px;&quot;&gt;g&lt;sub&gt;7&lt;/sub&gt;&lt;/font&gt;" style="ellipse;whiteSpace=wrap;html=1;aspect=fixed;strokeColor=#666666;strokeWidth=1;fillColor=#f5f5f5;fontColor=#333333;" vertex="1" parent="kIMGEz0QDYV-E_OhELrM-236">
          <mxGeometry x="24.27311509938353" y="116.48106974334206" width="19.353378623198882" height="19.353378623198882" as="geometry" />
        </mxCell>
        <mxCell id="kIMGEz0QDYV-E_OhELrM-247" style="edgeStyle=none;rounded=0;orthogonalLoop=1;jettySize=auto;html=1;endArrow=openThin;endFill=0;strokeColor=#CC0000;strokeWidth=2;endSize=3;fillColor=#f8cecc;" edge="1" parent="kIMGEz0QDYV-E_OhELrM-236" source="kIMGEz0QDYV-E_OhELrM-240" target="kIMGEz0QDYV-E_OhELrM-246">
          <mxGeometry relative="1" as="geometry" />
        </mxCell>
        <mxCell id="kIMGEz0QDYV-E_OhELrM-248" value="&lt;font style=&quot;font-size: 9px;&quot;&gt;g&lt;sub&gt;8&lt;/sub&gt;&lt;/font&gt;" style="ellipse;whiteSpace=wrap;html=1;aspect=fixed;strokeColor=#666666;strokeWidth=1;fillColor=#f5f5f5;fontColor=#333333;" vertex="1" parent="kIMGEz0QDYV-E_OhELrM-236">
          <mxGeometry y="81.53674882033943" width="19.353378623198882" height="19.353378623198882" as="geometry" />
        </mxCell>
        <mxCell id="kIMGEz0QDYV-E_OhELrM-249" style="edgeStyle=none;rounded=0;orthogonalLoop=1;jettySize=auto;html=1;entryX=1;entryY=0.5;entryDx=0;entryDy=0;endArrow=openThin;endFill=0;strokeColor=#FF8000;strokeWidth=2;endSize=3;fillColor=#f8cecc;" edge="1" parent="kIMGEz0QDYV-E_OhELrM-236" source="kIMGEz0QDYV-E_OhELrM-240" target="kIMGEz0QDYV-E_OhELrM-248">
          <mxGeometry relative="1" as="geometry" />
        </mxCell>
        <mxCell id="kIMGEz0QDYV-E_OhELrM-250" value="" style="group;fontSize=14;" vertex="1" connectable="0" parent="1">
          <mxGeometry x="-194.99998779654356" y="-2013.5114098264692" width="134.71578880157858" height="129.29398741510968" as="geometry" />
        </mxCell>
        <mxCell id="kIMGEz0QDYV-E_OhELrM-251" value="&lt;font style=&quot;font-size: 9px;&quot;&gt;TF&lt;sub&gt;1&lt;/sub&gt;&lt;/font&gt;" style="ellipse;whiteSpace=wrap;html=1;aspect=fixed;strokeColor=#666666;strokeWidth=1;fillColor=#f5f5f5;fontColor=#333333;" vertex="1" parent="kIMGEz0QDYV-E_OhELrM-250">
          <mxGeometry x="60.682787748458836" y="58.24053487167103" width="19.353378623198882" height="19.353378623198882" as="geometry" />
        </mxCell>
        <mxCell id="kIMGEz0QDYV-E_OhELrM-252" value="&lt;font style=&quot;font-size: 9px;&quot;&gt;TF&lt;sub&gt;3&lt;/sub&gt;&lt;/font&gt;" style="ellipse;whiteSpace=wrap;html=1;aspect=fixed;strokeColor=#666666;strokeWidth=1;fillColor=#f5f5f5;fontColor=#333333;" vertex="1" parent="kIMGEz0QDYV-E_OhELrM-250">
          <mxGeometry x="81.31493558293484" y="34.94432092300262" width="19.353378623198882" height="19.353378623198882" as="geometry" />
        </mxCell>
        <mxCell id="kIMGEz0QDYV-E_OhELrM-253" style="edgeStyle=none;rounded=0;orthogonalLoop=1;jettySize=auto;html=1;endArrow=openThin;endFill=0;strokeColor=#CC0000;strokeWidth=2;endSize=3;fillColor=#f8cecc;" edge="1" parent="kIMGEz0QDYV-E_OhELrM-250" source="kIMGEz0QDYV-E_OhELrM-251" target="kIMGEz0QDYV-E_OhELrM-252">
          <mxGeometry relative="1" as="geometry" />
        </mxCell>
        <mxCell id="kIMGEz0QDYV-E_OhELrM-254" value="&lt;font style=&quot;font-size: 9px;&quot;&gt;TF&lt;sub&gt;5&lt;/sub&gt;&lt;/font&gt;" style="ellipse;whiteSpace=wrap;html=1;aspect=fixed;strokeColor=#666666;strokeWidth=1;fillColor=#f5f5f5;fontColor=#333333;" vertex="1" parent="kIMGEz0QDYV-E_OhELrM-250">
          <mxGeometry x="40.050639913982835" y="81.53674882033943" width="19.353378623198882" height="19.353378623198882" as="geometry" />
        </mxCell>
        <mxCell id="kIMGEz0QDYV-E_OhELrM-255" style="edgeStyle=none;rounded=0;orthogonalLoop=1;jettySize=auto;html=1;entryX=1;entryY=0;entryDx=0;entryDy=0;endArrow=openThin;endFill=0;strokeColor=#FFB366;strokeWidth=2;endSize=3;fillColor=#f8cecc;" edge="1" parent="kIMGEz0QDYV-E_OhELrM-250" source="kIMGEz0QDYV-E_OhELrM-251" target="kIMGEz0QDYV-E_OhELrM-254">
          <mxGeometry relative="1" as="geometry" />
        </mxCell>
        <mxCell id="kIMGEz0QDYV-E_OhELrM-256" value="&lt;font style=&quot;font-size: 9px;&quot;&gt;g&lt;sub&gt;3&lt;/sub&gt;&lt;/font&gt;" style="ellipse;whiteSpace=wrap;html=1;aspect=fixed;strokeColor=#666666;strokeWidth=1;fillColor=#f5f5f5;fontColor=#333333;" vertex="1" parent="kIMGEz0QDYV-E_OhELrM-250">
          <mxGeometry x="97.09246039753413" width="19.353378623198882" height="19.353378623198882" as="geometry" />
        </mxCell>
        <mxCell id="kIMGEz0QDYV-E_OhELrM-257" style="edgeStyle=none;rounded=0;orthogonalLoop=1;jettySize=auto;html=1;endArrow=openThin;endFill=0;strokeColor=#CC0000;strokeWidth=2;endSize=3;fillColor=#f8cecc;" edge="1" parent="kIMGEz0QDYV-E_OhELrM-250" source="kIMGEz0QDYV-E_OhELrM-252" target="kIMGEz0QDYV-E_OhELrM-256">
          <mxGeometry relative="1" as="geometry" />
        </mxCell>
        <mxCell id="kIMGEz0QDYV-E_OhELrM-258" value="&lt;font style=&quot;font-size: 9px; line-height: 1;&quot;&gt;g&lt;sub&gt;4&lt;/sub&gt;&lt;/font&gt;" style="ellipse;whiteSpace=wrap;html=1;aspect=fixed;strokeColor=#666666;strokeWidth=1;fillColor=#f5f5f5;fontColor=#333333;" vertex="1" parent="kIMGEz0QDYV-E_OhELrM-250">
          <mxGeometry x="121.36557549691767" y="34.94432092300262" width="19.353378623198882" height="19.353378623198882" as="geometry" />
        </mxCell>
        <mxCell id="kIMGEz0QDYV-E_OhELrM-259" style="edgeStyle=none;rounded=0;orthogonalLoop=1;jettySize=auto;html=1;entryX=0;entryY=0.5;entryDx=0;entryDy=0;endArrow=openThin;endFill=0;strokeColor=#FF8000;strokeWidth=2;endSize=3;fillColor=#f8cecc;" edge="1" parent="kIMGEz0QDYV-E_OhELrM-250" source="kIMGEz0QDYV-E_OhELrM-252" target="kIMGEz0QDYV-E_OhELrM-258">
          <mxGeometry relative="1" as="geometry" />
        </mxCell>
        <mxCell id="kIMGEz0QDYV-E_OhELrM-260" value="&lt;font style=&quot;font-size: 9px;&quot;&gt;g&lt;sub&gt;5&lt;/sub&gt;&lt;/font&gt;" style="ellipse;whiteSpace=wrap;html=1;aspect=fixed;strokeColor=#666666;strokeWidth=1;fillColor=#f5f5f5;fontColor=#333333;" vertex="1" parent="kIMGEz0QDYV-E_OhELrM-250">
          <mxGeometry x="121.36557549691767" y="81.53674882033943" width="19.353378623198882" height="19.353378623198882" as="geometry" />
        </mxCell>
        <mxCell id="kIMGEz0QDYV-E_OhELrM-261" value="&lt;font style=&quot;font-size: 9px;&quot;&gt;g&lt;sub&gt;7&lt;/sub&gt;&lt;/font&gt;" style="ellipse;whiteSpace=wrap;html=1;aspect=fixed;strokeColor=#666666;strokeWidth=1;fillColor=#f5f5f5;fontColor=#333333;" vertex="1" parent="kIMGEz0QDYV-E_OhELrM-250">
          <mxGeometry x="24.27311509938353" y="116.48106974334206" width="19.353378623198882" height="19.353378623198882" as="geometry" />
        </mxCell>
        <mxCell id="kIMGEz0QDYV-E_OhELrM-262" style="edgeStyle=none;rounded=0;orthogonalLoop=1;jettySize=auto;html=1;endArrow=openThin;endFill=0;strokeColor=#CC0000;strokeWidth=2;endSize=3;fillColor=#f8cecc;" edge="1" parent="kIMGEz0QDYV-E_OhELrM-250" source="kIMGEz0QDYV-E_OhELrM-254" target="kIMGEz0QDYV-E_OhELrM-261">
          <mxGeometry relative="1" as="geometry" />
        </mxCell>
        <mxCell id="kIMGEz0QDYV-E_OhELrM-263" value="&lt;font style=&quot;font-size: 9px;&quot;&gt;g&lt;sub&gt;8&lt;/sub&gt;&lt;/font&gt;" style="ellipse;whiteSpace=wrap;html=1;aspect=fixed;strokeColor=#666666;strokeWidth=1;fillColor=#f5f5f5;fontColor=#333333;" vertex="1" parent="kIMGEz0QDYV-E_OhELrM-250">
          <mxGeometry y="81.53674882033943" width="19.353378623198882" height="19.353378623198882" as="geometry" />
        </mxCell>
        <mxCell id="kIMGEz0QDYV-E_OhELrM-264" style="edgeStyle=none;rounded=0;orthogonalLoop=1;jettySize=auto;html=1;entryX=1;entryY=0.5;entryDx=0;entryDy=0;endArrow=openThin;endFill=0;strokeColor=#FF8000;strokeWidth=2;endSize=3;fillColor=#f8cecc;" edge="1" parent="kIMGEz0QDYV-E_OhELrM-250" source="kIMGEz0QDYV-E_OhELrM-254" target="kIMGEz0QDYV-E_OhELrM-263">
          <mxGeometry relative="1" as="geometry" />
        </mxCell>
        <mxCell id="kIMGEz0QDYV-E_OhELrM-265" style="edgeStyle=none;rounded=0;orthogonalLoop=1;jettySize=auto;html=1;endArrow=openThin;endFill=0;strokeColor=#FF8000;strokeWidth=2;endSize=3;fillColor=#f8cecc;" edge="1" parent="kIMGEz0QDYV-E_OhELrM-250" source="kIMGEz0QDYV-E_OhELrM-252" target="kIMGEz0QDYV-E_OhELrM-260">
          <mxGeometry relative="1" as="geometry">
            <mxPoint x="109.43129390640905" y="52.028211152026316" as="sourcePoint" />
            <mxPoint x="128.84978598590914" y="52.028211152026316" as="targetPoint" />
          </mxGeometry>
        </mxCell>
        <mxCell id="kIMGEz0QDYV-E_OhELrM-267" value="" style="group;fontSize=14;" vertex="1" connectable="0" parent="1">
          <mxGeometry x="-363.99999999999994" y="-2212.51" width="149.74" height="140" as="geometry" />
        </mxCell>
        <mxCell id="kIMGEz0QDYV-E_OhELrM-268" value="&lt;font style=&quot;font-size: 9px;&quot;&gt;TF&lt;sub&gt;2&lt;/sub&gt;&lt;/font&gt;" style="ellipse;whiteSpace=wrap;html=1;aspect=fixed;strokeColor=#666666;strokeWidth=1;fillColor=#f5f5f5;fontColor=#333333;" vertex="1" parent="kIMGEz0QDYV-E_OhELrM-267">
          <mxGeometry x="44.517297297297304" y="37.837837837837846" width="18.00097546200999" height="18.00097546200999" as="geometry" />
        </mxCell>
        <mxCell id="kIMGEz0QDYV-E_OhELrM-269" style="rounded=0;orthogonalLoop=1;jettySize=auto;html=1;endArrow=block;endFill=1;strokeWidth=2;strokeColor=#ffb366;endSize=0;targetPerimeterSpacing=0;startSize=3;" edge="1" parent="kIMGEz0QDYV-E_OhELrM-267" source="kIMGEz0QDYV-E_OhELrM-270" target="kIMGEz0QDYV-E_OhELrM-268">
          <mxGeometry relative="1" as="geometry" />
        </mxCell>
        <mxCell id="kIMGEz0QDYV-E_OhELrM-270" value="&lt;font style=&quot;font-size: 9px;&quot;&gt;TF&lt;sub&gt;1&lt;/sub&gt;&lt;/font&gt;" style="ellipse;whiteSpace=wrap;html=1;aspect=fixed;strokeColor=#666666;strokeWidth=1;fillColor=#f5f5f5;fontColor=#333333;" vertex="1" parent="kIMGEz0QDYV-E_OhELrM-267">
          <mxGeometry x="67.45045045045048" y="63.06306306306307" width="18.00097546200999" height="18.00097546200999" as="geometry" />
        </mxCell>
        <mxCell id="kIMGEz0QDYV-E_OhELrM-271" value="&lt;font style=&quot;font-size: 9px;&quot;&gt;TF&lt;sub&gt;3&lt;/sub&gt;&lt;/font&gt;" style="ellipse;whiteSpace=wrap;html=1;aspect=fixed;strokeColor=#666666;strokeWidth=1;fillColor=#f5f5f5;fontColor=#333333;" vertex="1" parent="kIMGEz0QDYV-E_OhELrM-267">
          <mxGeometry x="90.38" y="37.84" width="18.16" height="18.16" as="geometry" />
        </mxCell>
        <mxCell id="kIMGEz0QDYV-E_OhELrM-272" style="edgeStyle=none;rounded=0;orthogonalLoop=1;jettySize=auto;html=1;endArrow=block;endFill=1;strokeColor=#6F0000;strokeWidth=2;endSize=0;targetPerimeterSpacing=0;startSize=3;fillColor=#a20025;" edge="1" parent="kIMGEz0QDYV-E_OhELrM-267" source="kIMGEz0QDYV-E_OhELrM-270" target="kIMGEz0QDYV-E_OhELrM-271">
          <mxGeometry relative="1" as="geometry" />
        </mxCell>
        <mxCell id="kIMGEz0QDYV-E_OhELrM-273" value="&lt;font style=&quot;font-size: 9px;&quot;&gt;TF&lt;sub&gt;4&lt;/sub&gt;&lt;/font&gt;" style="ellipse;whiteSpace=wrap;html=1;aspect=fixed;strokeColor=#666666;strokeWidth=1;fillColor=#f5f5f5;fontColor=#333333;" vertex="1" parent="kIMGEz0QDYV-E_OhELrM-267">
          <mxGeometry x="90.38360360360365" y="88.28828828828827" width="18.00097546200999" height="18.00097546200999" as="geometry" />
        </mxCell>
        <mxCell id="kIMGEz0QDYV-E_OhELrM-274" style="edgeStyle=none;rounded=0;orthogonalLoop=1;jettySize=auto;html=1;entryX=0;entryY=0;entryDx=0;entryDy=0;endArrow=block;endFill=1;strokeColor=#ffb366;strokeWidth=2;endSize=0;targetPerimeterSpacing=0;startSize=3;" edge="1" parent="kIMGEz0QDYV-E_OhELrM-267" source="kIMGEz0QDYV-E_OhELrM-270" target="kIMGEz0QDYV-E_OhELrM-273">
          <mxGeometry relative="1" as="geometry" />
        </mxCell>
        <mxCell id="kIMGEz0QDYV-E_OhELrM-275" value="&lt;font style=&quot;font-size: 9px;&quot;&gt;TF&lt;sub&gt;5&lt;/sub&gt;&lt;/font&gt;" style="ellipse;whiteSpace=wrap;html=1;aspect=fixed;strokeColor=#666666;strokeWidth=1;fillColor=#f5f5f5;fontColor=#333333;" vertex="1" parent="kIMGEz0QDYV-E_OhELrM-267">
          <mxGeometry x="44.517297297297304" y="88.28828828828827" width="18.00097546200999" height="18.00097546200999" as="geometry" />
        </mxCell>
        <mxCell id="kIMGEz0QDYV-E_OhELrM-276" style="edgeStyle=none;rounded=0;orthogonalLoop=1;jettySize=auto;html=1;entryX=1;entryY=0;entryDx=0;entryDy=0;endArrow=block;endFill=1;strokeColor=#cc0000;strokeWidth=2;endSize=0;targetPerimeterSpacing=0;startSize=3;" edge="1" parent="kIMGEz0QDYV-E_OhELrM-267" source="kIMGEz0QDYV-E_OhELrM-270" target="kIMGEz0QDYV-E_OhELrM-275">
          <mxGeometry relative="1" as="geometry" />
        </mxCell>
        <mxCell id="kIMGEz0QDYV-E_OhELrM-277" value="&lt;font style=&quot;font-size: 9px;&quot;&gt;g&lt;sub&gt;3&lt;/sub&gt;&lt;/font&gt;" style="ellipse;whiteSpace=wrap;html=1;aspect=fixed;strokeColor=#666666;strokeWidth=1;fillColor=#f5f5f5;fontColor=#333333;" vertex="1" parent="kIMGEz0QDYV-E_OhELrM-267">
          <mxGeometry x="107.92072072072077" width="18.00097546200999" height="18.00097546200999" as="geometry" />
        </mxCell>
        <mxCell id="kIMGEz0QDYV-E_OhELrM-278" style="edgeStyle=none;rounded=0;orthogonalLoop=1;jettySize=auto;html=1;endArrow=block;endFill=1;strokeColor=#6F0000;strokeWidth=2;endSize=0;targetPerimeterSpacing=0;startSize=3;fillColor=#a20025;" edge="1" parent="kIMGEz0QDYV-E_OhELrM-267" source="kIMGEz0QDYV-E_OhELrM-271" target="kIMGEz0QDYV-E_OhELrM-277">
          <mxGeometry relative="1" as="geometry" />
        </mxCell>
        <mxCell id="kIMGEz0QDYV-E_OhELrM-279" value="&lt;font style=&quot;font-size: 9px; line-height: 1;&quot;&gt;g&lt;sub&gt;4&lt;/sub&gt;&lt;/font&gt;" style="ellipse;whiteSpace=wrap;html=1;aspect=fixed;strokeColor=#666666;strokeWidth=1;fillColor=#f5f5f5;fontColor=#333333;" vertex="1" parent="kIMGEz0QDYV-E_OhELrM-267">
          <mxGeometry x="134.90090090090095" y="37.837837837837846" width="18.00097546200999" height="18.00097546200999" as="geometry" />
        </mxCell>
        <mxCell id="kIMGEz0QDYV-E_OhELrM-280" style="edgeStyle=none;rounded=0;orthogonalLoop=1;jettySize=auto;html=1;entryX=0;entryY=0.5;entryDx=0;entryDy=0;endArrow=block;endFill=1;strokeColor=#cc0000;strokeWidth=2;endSize=0;targetPerimeterSpacing=0;startSize=3;" edge="1" parent="kIMGEz0QDYV-E_OhELrM-267" source="kIMGEz0QDYV-E_OhELrM-271" target="kIMGEz0QDYV-E_OhELrM-279">
          <mxGeometry relative="1" as="geometry" />
        </mxCell>
        <mxCell id="kIMGEz0QDYV-E_OhELrM-281" value="&lt;font style=&quot;font-size: 9px;&quot;&gt;g&lt;sub&gt;5&lt;/sub&gt;&lt;/font&gt;" style="ellipse;whiteSpace=wrap;html=1;aspect=fixed;strokeColor=#666666;strokeWidth=1;fillColor=#f5f5f5;fontColor=#333333;" vertex="1" parent="kIMGEz0QDYV-E_OhELrM-267">
          <mxGeometry x="134.90090090090095" y="88.28828828828827" width="18.00097546200999" height="18.00097546200999" as="geometry" />
        </mxCell>
        <mxCell id="kIMGEz0QDYV-E_OhELrM-282" style="edgeStyle=none;rounded=0;orthogonalLoop=1;jettySize=auto;html=1;endArrow=block;endFill=1;strokeColor=#666666;strokeWidth=2;endSize=0;targetPerimeterSpacing=0;startSize=3;" edge="1" parent="kIMGEz0QDYV-E_OhELrM-267" source="kIMGEz0QDYV-E_OhELrM-273" target="kIMGEz0QDYV-E_OhELrM-281">
          <mxGeometry relative="1" as="geometry" />
        </mxCell>
        <mxCell id="kIMGEz0QDYV-E_OhELrM-283" value="&lt;font style=&quot;font-size: 9px;&quot;&gt;g&lt;sub&gt;6&lt;/sub&gt;&lt;/font&gt;" style="ellipse;whiteSpace=wrap;html=1;aspect=fixed;strokeColor=#666666;strokeWidth=1;fillColor=#f5f5f5;fontColor=#333333;" vertex="1" parent="kIMGEz0QDYV-E_OhELrM-267">
          <mxGeometry x="107.92072072072077" y="126.12612612612614" width="18.00097546200999" height="18.00097546200999" as="geometry" />
        </mxCell>
        <mxCell id="kIMGEz0QDYV-E_OhELrM-284" style="edgeStyle=none;rounded=0;orthogonalLoop=1;jettySize=auto;html=1;endArrow=block;endFill=1;strokeColor=#666666;strokeWidth=2;endSize=0;targetPerimeterSpacing=0;startSize=3;" edge="1" parent="kIMGEz0QDYV-E_OhELrM-267" source="kIMGEz0QDYV-E_OhELrM-273" target="kIMGEz0QDYV-E_OhELrM-283">
          <mxGeometry relative="1" as="geometry" />
        </mxCell>
        <mxCell id="kIMGEz0QDYV-E_OhELrM-285" value="&lt;font style=&quot;font-size: 9px;&quot;&gt;g&lt;sub&gt;7&lt;/sub&gt;&lt;/font&gt;" style="ellipse;whiteSpace=wrap;html=1;aspect=fixed;strokeColor=#666666;strokeWidth=1;fillColor=#f5f5f5;fontColor=#333333;" vertex="1" parent="kIMGEz0QDYV-E_OhELrM-267">
          <mxGeometry x="26.98018018018019" y="126.12612612612614" width="18.00097546200999" height="18.00097546200999" as="geometry" />
        </mxCell>
        <mxCell id="kIMGEz0QDYV-E_OhELrM-286" style="edgeStyle=none;rounded=0;orthogonalLoop=1;jettySize=auto;html=1;endArrow=block;endFill=1;strokeColor=#6F0000;strokeWidth=2;endSize=0;targetPerimeterSpacing=0;startSize=3;fillColor=#a20025;" edge="1" parent="kIMGEz0QDYV-E_OhELrM-267" source="kIMGEz0QDYV-E_OhELrM-275" target="kIMGEz0QDYV-E_OhELrM-285">
          <mxGeometry relative="1" as="geometry" />
        </mxCell>
        <mxCell id="kIMGEz0QDYV-E_OhELrM-287" value="&lt;font style=&quot;font-size: 9px;&quot;&gt;g&lt;sub&gt;8&lt;/sub&gt;&lt;/font&gt;" style="ellipse;whiteSpace=wrap;html=1;aspect=fixed;strokeColor=#666666;strokeWidth=1;fillColor=#f5f5f5;fontColor=#333333;" vertex="1" parent="kIMGEz0QDYV-E_OhELrM-267">
          <mxGeometry y="88.28828828828827" width="18.00097546200999" height="18.00097546200999" as="geometry" />
        </mxCell>
        <mxCell id="kIMGEz0QDYV-E_OhELrM-288" style="edgeStyle=none;rounded=0;orthogonalLoop=1;jettySize=auto;html=1;entryX=1;entryY=0.5;entryDx=0;entryDy=0;endArrow=block;endFill=1;strokeColor=#cc0000;strokeWidth=2;endSize=0;targetPerimeterSpacing=0;startSize=3;sourcePerimeterSpacing=1;" edge="1" parent="kIMGEz0QDYV-E_OhELrM-267" source="kIMGEz0QDYV-E_OhELrM-275" target="kIMGEz0QDYV-E_OhELrM-287">
          <mxGeometry relative="1" as="geometry" />
        </mxCell>
        <mxCell id="kIMGEz0QDYV-E_OhELrM-289" value="&lt;font style=&quot;font-size: 9px;&quot;&gt;g&lt;sub&gt;2&lt;/sub&gt;&lt;/font&gt;" style="ellipse;whiteSpace=wrap;html=1;aspect=fixed;strokeColor=#666666;strokeWidth=1;fillColor=#f5f5f5;fontColor=#333333;" vertex="1" parent="kIMGEz0QDYV-E_OhELrM-267">
          <mxGeometry x="26.98018018018019" width="18.00097546200999" height="18.00097546200999" as="geometry" />
        </mxCell>
        <mxCell id="kIMGEz0QDYV-E_OhELrM-290" style="edgeStyle=none;rounded=0;orthogonalLoop=1;jettySize=auto;html=1;endArrow=block;endFill=1;strokeColor=#666666;strokeWidth=2;endSize=0;targetPerimeterSpacing=0;startSize=3;" edge="1" parent="kIMGEz0QDYV-E_OhELrM-267" source="kIMGEz0QDYV-E_OhELrM-268" target="kIMGEz0QDYV-E_OhELrM-289">
          <mxGeometry relative="1" as="geometry" />
        </mxCell>
        <mxCell id="kIMGEz0QDYV-E_OhELrM-291" value="&lt;font style=&quot;font-size: 9px;&quot;&gt;g&lt;sub&gt;1&lt;/sub&gt;&lt;/font&gt;" style="ellipse;whiteSpace=wrap;html=1;aspect=fixed;strokeColor=#666666;strokeWidth=1;fillColor=#f5f5f5;fontColor=#333333;" vertex="1" parent="kIMGEz0QDYV-E_OhELrM-267">
          <mxGeometry y="37.837837837837846" width="18.00097546200999" height="18.00097546200999" as="geometry" />
        </mxCell>
        <mxCell id="kIMGEz0QDYV-E_OhELrM-292" style="edgeStyle=none;rounded=0;orthogonalLoop=1;jettySize=auto;html=1;endArrow=block;endFill=1;strokeColor=#ffb366;strokeWidth=2;endSize=0;targetPerimeterSpacing=0;startSize=3;" edge="1" parent="kIMGEz0QDYV-E_OhELrM-267" source="kIMGEz0QDYV-E_OhELrM-268" target="kIMGEz0QDYV-E_OhELrM-291">
          <mxGeometry relative="1" as="geometry" />
        </mxCell>
        <mxCell id="kIMGEz0QDYV-E_OhELrM-293" value="" style="group;fontSize=14;opacity=50;" vertex="1" connectable="0" parent="1">
          <mxGeometry x="-364" y="-2390" width="149.74" height="140" as="geometry" />
        </mxCell>
        <mxCell id="kIMGEz0QDYV-E_OhELrM-294" style="rounded=0;orthogonalLoop=1;jettySize=auto;html=1;exitX=1;exitY=0;exitDx=0;exitDy=0;entryX=0.118;entryY=0.667;entryDx=0;entryDy=0;entryPerimeter=0;startArrow=none;startFill=0;endArrow=none;endFill=0;strokeWidth=2;strokeColor=#ffb366;" edge="1" parent="kIMGEz0QDYV-E_OhELrM-293" source="kIMGEz0QDYV-E_OhELrM-297" target="kIMGEz0QDYV-E_OhELrM-314">
          <mxGeometry relative="1" as="geometry" />
        </mxCell>
        <mxCell id="kIMGEz0QDYV-E_OhELrM-295" style="edgeStyle=orthogonalEdgeStyle;rounded=0;orthogonalLoop=1;jettySize=auto;html=1;exitX=0.5;exitY=1;exitDx=0;exitDy=0;startArrow=none;startFill=0;endArrow=none;endFill=0;strokeWidth=2;strokeColor=#666666;entryX=0.505;entryY=0.028;entryDx=0;entryDy=0;entryPerimeter=0;" edge="1" parent="kIMGEz0QDYV-E_OhELrM-293" source="kIMGEz0QDYV-E_OhELrM-297" target="kIMGEz0QDYV-E_OhELrM-311">
          <mxGeometry relative="1" as="geometry">
            <mxPoint x="53.60011363636363" y="86.57224353299898" as="targetPoint" />
          </mxGeometry>
        </mxCell>
        <mxCell id="kIMGEz0QDYV-E_OhELrM-296" style="edgeStyle=orthogonalEdgeStyle;rounded=0;orthogonalLoop=1;jettySize=auto;html=1;exitX=1;exitY=0.5;exitDx=0;exitDy=0;startArrow=none;startFill=0;endArrow=none;endFill=0;strokeWidth=2;strokeColor=#666666;" edge="1" parent="kIMGEz0QDYV-E_OhELrM-293" source="kIMGEz0QDYV-E_OhELrM-297">
          <mxGeometry relative="1" as="geometry">
            <mxPoint x="89.90071969696974" y="46.63912658601362" as="targetPoint" />
          </mxGeometry>
        </mxCell>
        <mxCell id="kIMGEz0QDYV-E_OhELrM-297" value="" style="ellipse;whiteSpace=wrap;html=1;aspect=fixed;strokeColor=#666666;strokeWidth=1;fillColor=#f5f5f5;fontColor=#333333;" vertex="1" parent="kIMGEz0QDYV-E_OhELrM-293">
          <mxGeometry x="44.517297297297304" y="37.83783783783784" width="17.348003726639604" height="17.348003726639604" as="geometry" />
        </mxCell>
        <mxCell id="kIMGEz0QDYV-E_OhELrM-298" style="rounded=0;orthogonalLoop=1;jettySize=auto;html=1;endArrow=none;endFill=0;strokeWidth=2;strokeColor=#ffb366;endSize=3;startArrow=none;startFill=0;" edge="1" parent="kIMGEz0QDYV-E_OhELrM-293" source="kIMGEz0QDYV-E_OhELrM-299" target="kIMGEz0QDYV-E_OhELrM-297">
          <mxGeometry relative="1" as="geometry" />
        </mxCell>
        <mxCell id="kIMGEz0QDYV-E_OhELrM-299" value="" style="ellipse;whiteSpace=wrap;html=1;aspect=fixed;strokeColor=#666666;strokeWidth=1;fillColor=#f5f5f5;fontColor=#333333;" vertex="1" parent="kIMGEz0QDYV-E_OhELrM-293">
          <mxGeometry x="67.45045045045046" y="63.06306306306306" width="17.348003726639604" height="17.348003726639604" as="geometry" />
        </mxCell>
        <mxCell id="kIMGEz0QDYV-E_OhELrM-300" style="rounded=0;orthogonalLoop=1;jettySize=auto;html=1;exitX=0;exitY=0;exitDx=0;exitDy=0;entryX=1;entryY=1;entryDx=0;entryDy=0;startArrow=none;startFill=0;endArrow=none;endFill=0;strokeWidth=2;strokeColor=#ffb366;" edge="1" parent="kIMGEz0QDYV-E_OhELrM-293" source="kIMGEz0QDYV-E_OhELrM-303" target="kIMGEz0QDYV-E_OhELrM-332">
          <mxGeometry relative="1" as="geometry" />
        </mxCell>
        <mxCell id="kIMGEz0QDYV-E_OhELrM-301" style="rounded=0;orthogonalLoop=1;jettySize=auto;html=1;exitX=1;exitY=1;exitDx=0;exitDy=0;entryX=0;entryY=0;entryDx=0;entryDy=0;startArrow=none;startFill=0;endArrow=none;endFill=0;strokeWidth=2;strokeColor=#cc0000;" edge="1" parent="kIMGEz0QDYV-E_OhELrM-293" source="kIMGEz0QDYV-E_OhELrM-303" target="kIMGEz0QDYV-E_OhELrM-320">
          <mxGeometry relative="1" as="geometry" />
        </mxCell>
        <mxCell id="kIMGEz0QDYV-E_OhELrM-302" style="edgeStyle=orthogonalEdgeStyle;rounded=0;orthogonalLoop=1;jettySize=auto;html=1;exitX=0.5;exitY=1;exitDx=0;exitDy=0;startArrow=none;startFill=0;endArrow=none;endFill=0;strokeWidth=2;strokeColor=#666666;" edge="1" parent="kIMGEz0QDYV-E_OhELrM-293" source="kIMGEz0QDYV-E_OhELrM-303">
          <mxGeometry relative="1" as="geometry">
            <mxPoint x="99.54306818181817" y="87.94924756565362" as="targetPoint" />
          </mxGeometry>
        </mxCell>
        <mxCell id="kIMGEz0QDYV-E_OhELrM-303" value="" style="ellipse;whiteSpace=wrap;html=1;aspect=fixed;strokeColor=#666666;strokeWidth=1;fillColor=#f5f5f5;fontColor=#333333;" vertex="1" parent="kIMGEz0QDYV-E_OhELrM-293">
          <mxGeometry x="90.38360360360363" y="37.83783783783784" width="17.348003726639604" height="17.348003726639604" as="geometry" />
        </mxCell>
        <mxCell id="kIMGEz0QDYV-E_OhELrM-304" style="edgeStyle=none;rounded=0;orthogonalLoop=1;jettySize=auto;html=1;endArrow=none;endFill=0;strokeColor=#6F0000;strokeWidth=2;endSize=3;startArrow=none;startFill=0;fillColor=#a20025;" edge="1" parent="kIMGEz0QDYV-E_OhELrM-293" source="kIMGEz0QDYV-E_OhELrM-299" target="kIMGEz0QDYV-E_OhELrM-303">
          <mxGeometry relative="1" as="geometry" />
        </mxCell>
        <mxCell id="kIMGEz0QDYV-E_OhELrM-305" style="rounded=0;orthogonalLoop=1;jettySize=auto;html=1;exitX=0;exitY=1;exitDx=0;exitDy=0;entryX=0.896;entryY=0.305;entryDx=0;entryDy=0;entryPerimeter=0;startArrow=none;startFill=0;endArrow=none;endFill=0;strokeWidth=2;strokeColor=#666666;" edge="1" parent="kIMGEz0QDYV-E_OhELrM-293" source="kIMGEz0QDYV-E_OhELrM-307" target="kIMGEz0QDYV-E_OhELrM-326">
          <mxGeometry relative="1" as="geometry" />
        </mxCell>
        <mxCell id="kIMGEz0QDYV-E_OhELrM-306" style="rounded=0;orthogonalLoop=1;jettySize=auto;html=1;exitX=1;exitY=0;exitDx=0;exitDy=0;entryX=0;entryY=1;entryDx=0;entryDy=0;startArrow=none;startFill=0;endArrow=none;endFill=0;strokeWidth=2;strokeColor=#666666;" edge="1" parent="kIMGEz0QDYV-E_OhELrM-293" source="kIMGEz0QDYV-E_OhELrM-307" target="kIMGEz0QDYV-E_OhELrM-316">
          <mxGeometry relative="1" as="geometry" />
        </mxCell>
        <mxCell id="kIMGEz0QDYV-E_OhELrM-307" value="" style="ellipse;whiteSpace=wrap;html=1;aspect=fixed;strokeColor=#666666;strokeWidth=1;fillColor=#f5f5f5;fontColor=#333333;" vertex="1" parent="kIMGEz0QDYV-E_OhELrM-293">
          <mxGeometry x="90.38360360360363" y="88.28828828828824" width="17.348003726639604" height="17.348003726639604" as="geometry" />
        </mxCell>
        <mxCell id="kIMGEz0QDYV-E_OhELrM-308" style="edgeStyle=none;rounded=0;orthogonalLoop=1;jettySize=auto;html=1;entryX=0;entryY=0;entryDx=0;entryDy=0;endArrow=none;endFill=0;strokeColor=#666666;strokeWidth=2;endSize=3;startArrow=none;startFill=0;" edge="1" parent="kIMGEz0QDYV-E_OhELrM-293" source="kIMGEz0QDYV-E_OhELrM-299" target="kIMGEz0QDYV-E_OhELrM-307">
          <mxGeometry relative="1" as="geometry" />
        </mxCell>
        <mxCell id="kIMGEz0QDYV-E_OhELrM-309" style="rounded=0;orthogonalLoop=1;jettySize=auto;html=1;exitX=1;exitY=1;exitDx=0;exitDy=0;entryX=0.07;entryY=0.337;entryDx=0;entryDy=0;entryPerimeter=0;startArrow=none;startFill=0;endArrow=none;endFill=0;strokeWidth=2;strokeColor=#666666;" edge="1" parent="kIMGEz0QDYV-E_OhELrM-293" source="kIMGEz0QDYV-E_OhELrM-311" target="kIMGEz0QDYV-E_OhELrM-322">
          <mxGeometry relative="1" as="geometry" />
        </mxCell>
        <mxCell id="kIMGEz0QDYV-E_OhELrM-310" style="edgeStyle=orthogonalEdgeStyle;rounded=0;orthogonalLoop=1;jettySize=auto;html=1;exitX=1;exitY=0.5;exitDx=0;exitDy=0;entryX=0;entryY=0.5;entryDx=0;entryDy=0;startArrow=none;startFill=0;endArrow=none;endFill=0;strokeWidth=2;strokeColor=#666666;" edge="1" parent="kIMGEz0QDYV-E_OhELrM-293" source="kIMGEz0QDYV-E_OhELrM-311" target="kIMGEz0QDYV-E_OhELrM-307">
          <mxGeometry relative="1" as="geometry" />
        </mxCell>
        <mxCell id="kIMGEz0QDYV-E_OhELrM-311" value="" style="ellipse;whiteSpace=wrap;html=1;aspect=fixed;strokeColor=#666666;strokeWidth=1;fillColor=#f5f5f5;fontColor=#333333;" vertex="1" parent="kIMGEz0QDYV-E_OhELrM-293">
          <mxGeometry x="44.517297297297304" y="88.28828828828824" width="17.348003726639604" height="17.348003726639604" as="geometry" />
        </mxCell>
        <mxCell id="kIMGEz0QDYV-E_OhELrM-312" style="edgeStyle=none;rounded=0;orthogonalLoop=1;jettySize=auto;html=1;entryX=1;entryY=0;entryDx=0;entryDy=0;endArrow=none;endFill=0;strokeColor=#cc0000;strokeWidth=2;endSize=3;startArrow=none;startFill=0;fillColor=#a20025;" edge="1" parent="kIMGEz0QDYV-E_OhELrM-293" source="kIMGEz0QDYV-E_OhELrM-299" target="kIMGEz0QDYV-E_OhELrM-311">
          <mxGeometry relative="1" as="geometry" />
        </mxCell>
        <mxCell id="kIMGEz0QDYV-E_OhELrM-313" style="rounded=0;orthogonalLoop=1;jettySize=auto;html=1;exitX=1;exitY=1;exitDx=0;exitDy=0;entryX=0.257;entryY=0.125;entryDx=0;entryDy=0;entryPerimeter=0;endArrow=none;endFill=0;startArrow=none;startFill=0;strokeWidth=2;strokeColor=#6F0000;fillColor=#a20025;" edge="1" parent="kIMGEz0QDYV-E_OhELrM-293" source="kIMGEz0QDYV-E_OhELrM-314" target="kIMGEz0QDYV-E_OhELrM-316">
          <mxGeometry relative="1" as="geometry" />
        </mxCell>
        <mxCell id="kIMGEz0QDYV-E_OhELrM-314" value="" style="ellipse;whiteSpace=wrap;html=1;aspect=fixed;strokeColor=#666666;strokeWidth=1;fillColor=#f5f5f5;fontColor=#333333;" vertex="1" parent="kIMGEz0QDYV-E_OhELrM-293">
          <mxGeometry x="107.92072072072077" width="17.348003726639604" height="17.348003726639604" as="geometry" />
        </mxCell>
        <mxCell id="kIMGEz0QDYV-E_OhELrM-315" style="edgeStyle=none;rounded=0;orthogonalLoop=1;jettySize=auto;html=1;endArrow=none;endFill=0;strokeColor=#6F0000;strokeWidth=2;endSize=3;startArrow=none;startFill=0;fillColor=#a20025;" edge="1" parent="kIMGEz0QDYV-E_OhELrM-293" source="kIMGEz0QDYV-E_OhELrM-303" target="kIMGEz0QDYV-E_OhELrM-314">
          <mxGeometry relative="1" as="geometry" />
        </mxCell>
        <mxCell id="kIMGEz0QDYV-E_OhELrM-316" value="" style="ellipse;whiteSpace=wrap;html=1;aspect=fixed;strokeColor=#666666;strokeWidth=1;fillColor=#f5f5f5;fontColor=#333333;" vertex="1" parent="kIMGEz0QDYV-E_OhELrM-293">
          <mxGeometry x="134.90090090090092" y="37.83783783783784" width="17.348003726639604" height="17.348003726639604" as="geometry" />
        </mxCell>
        <mxCell id="kIMGEz0QDYV-E_OhELrM-317" style="edgeStyle=none;rounded=0;orthogonalLoop=1;jettySize=auto;html=1;entryX=0;entryY=0.5;entryDx=0;entryDy=0;endArrow=none;endFill=0;strokeColor=#cc0000;strokeWidth=2;endSize=3;startArrow=none;startFill=0;" edge="1" parent="kIMGEz0QDYV-E_OhELrM-293" source="kIMGEz0QDYV-E_OhELrM-303" target="kIMGEz0QDYV-E_OhELrM-316">
          <mxGeometry relative="1" as="geometry" />
        </mxCell>
        <mxCell id="kIMGEz0QDYV-E_OhELrM-318" style="edgeStyle=orthogonalEdgeStyle;rounded=0;orthogonalLoop=1;jettySize=auto;html=1;exitX=0.5;exitY=0;exitDx=0;exitDy=0;entryX=0.5;entryY=1;entryDx=0;entryDy=0;startArrow=none;startFill=0;endArrow=none;endFill=0;strokeWidth=2;strokeColor=#6F0000;fillColor=#a20025;" edge="1" parent="kIMGEz0QDYV-E_OhELrM-293" source="kIMGEz0QDYV-E_OhELrM-320" target="kIMGEz0QDYV-E_OhELrM-316">
          <mxGeometry relative="1" as="geometry" />
        </mxCell>
        <mxCell id="kIMGEz0QDYV-E_OhELrM-319" style="rounded=0;orthogonalLoop=1;jettySize=auto;html=1;startArrow=none;startFill=0;endArrow=none;endFill=0;strokeWidth=2;strokeColor=#666666;exitX=0.21;exitY=0.973;exitDx=0;exitDy=0;exitPerimeter=0;" edge="1" parent="kIMGEz0QDYV-E_OhELrM-293" source="kIMGEz0QDYV-E_OhELrM-320">
          <mxGeometry relative="1" as="geometry">
            <mxPoint x="122.79814393939387" y="127.60696370610806" as="targetPoint" />
            <mxPoint x="137.82886363636365" y="106.12570079669523" as="sourcePoint" />
          </mxGeometry>
        </mxCell>
        <mxCell id="kIMGEz0QDYV-E_OhELrM-320" value="" style="ellipse;whiteSpace=wrap;html=1;aspect=fixed;strokeColor=#666666;strokeWidth=1;fillColor=#f5f5f5;fontColor=#333333;" vertex="1" parent="kIMGEz0QDYV-E_OhELrM-293">
          <mxGeometry x="134.90090090090092" y="88.28828828828824" width="17.348003726639604" height="17.348003726639604" as="geometry" />
        </mxCell>
        <mxCell id="kIMGEz0QDYV-E_OhELrM-321" style="edgeStyle=none;rounded=0;orthogonalLoop=1;jettySize=auto;html=1;endArrow=none;endFill=0;strokeColor=#ffb366;strokeWidth=2;endSize=3;startArrow=none;startFill=0;" edge="1" parent="kIMGEz0QDYV-E_OhELrM-293" source="kIMGEz0QDYV-E_OhELrM-307" target="kIMGEz0QDYV-E_OhELrM-320">
          <mxGeometry relative="1" as="geometry" />
        </mxCell>
        <mxCell id="kIMGEz0QDYV-E_OhELrM-322" value="" style="ellipse;whiteSpace=wrap;html=1;aspect=fixed;strokeColor=#666666;strokeWidth=1;fillColor=#f5f5f5;fontColor=#333333;" vertex="1" parent="kIMGEz0QDYV-E_OhELrM-293">
          <mxGeometry x="107.92072072072077" y="126.12612612612612" width="17.348003726639604" height="17.348003726639604" as="geometry" />
        </mxCell>
        <mxCell id="kIMGEz0QDYV-E_OhELrM-323" style="edgeStyle=none;rounded=0;orthogonalLoop=1;jettySize=auto;html=1;endArrow=none;endFill=0;strokeColor=#ffb366;strokeWidth=2;endSize=3;startArrow=none;startFill=0;" edge="1" parent="kIMGEz0QDYV-E_OhELrM-293" source="kIMGEz0QDYV-E_OhELrM-307" target="kIMGEz0QDYV-E_OhELrM-322">
          <mxGeometry relative="1" as="geometry" />
        </mxCell>
        <mxCell id="kIMGEz0QDYV-E_OhELrM-324" style="rounded=0;orthogonalLoop=1;jettySize=auto;html=1;exitX=0;exitY=0;exitDx=0;exitDy=0;entryX=0.74;entryY=0.957;entryDx=0;entryDy=0;entryPerimeter=0;startArrow=none;startFill=0;endArrow=none;endFill=0;strokeWidth=2;strokeColor=#6F0000;fillColor=#a20025;" edge="1" parent="kIMGEz0QDYV-E_OhELrM-293" source="kIMGEz0QDYV-E_OhELrM-326" target="kIMGEz0QDYV-E_OhELrM-329">
          <mxGeometry relative="1" as="geometry" />
        </mxCell>
        <mxCell id="kIMGEz0QDYV-E_OhELrM-325" style="edgeStyle=orthogonalEdgeStyle;rounded=0;orthogonalLoop=1;jettySize=auto;html=1;exitX=1;exitY=0.5;exitDx=0;exitDy=0;entryX=0;entryY=0.5;entryDx=0;entryDy=0;startArrow=none;startFill=0;endArrow=none;endFill=0;strokeWidth=2;strokeColor=#ffb366;" edge="1" parent="kIMGEz0QDYV-E_OhELrM-293" source="kIMGEz0QDYV-E_OhELrM-326" target="kIMGEz0QDYV-E_OhELrM-322">
          <mxGeometry relative="1" as="geometry" />
        </mxCell>
        <mxCell id="kIMGEz0QDYV-E_OhELrM-326" value="" style="ellipse;whiteSpace=wrap;html=1;aspect=fixed;strokeColor=#666666;strokeWidth=1;fillColor=#f5f5f5;fontColor=#333333;" vertex="1" parent="kIMGEz0QDYV-E_OhELrM-293">
          <mxGeometry x="26.98018018018019" y="126.12612612612612" width="17.348003726639604" height="17.348003726639604" as="geometry" />
        </mxCell>
        <mxCell id="kIMGEz0QDYV-E_OhELrM-327" style="edgeStyle=none;rounded=0;orthogonalLoop=1;jettySize=auto;html=1;endArrow=none;endFill=0;strokeColor=#6F0000;strokeWidth=2;endSize=3;startArrow=none;startFill=0;fillColor=#a20025;" edge="1" parent="kIMGEz0QDYV-E_OhELrM-293" source="kIMGEz0QDYV-E_OhELrM-311" target="kIMGEz0QDYV-E_OhELrM-326">
          <mxGeometry relative="1" as="geometry" />
        </mxCell>
        <mxCell id="kIMGEz0QDYV-E_OhELrM-328" style="rounded=0;orthogonalLoop=1;jettySize=auto;html=1;exitX=1;exitY=0;exitDx=0;exitDy=0;entryX=0;entryY=1;entryDx=0;entryDy=0;startArrow=none;startFill=0;endArrow=none;endFill=0;strokeWidth=2;strokeColor=#ffb366;" edge="1" parent="kIMGEz0QDYV-E_OhELrM-293" source="kIMGEz0QDYV-E_OhELrM-329" target="kIMGEz0QDYV-E_OhELrM-297">
          <mxGeometry relative="1" as="geometry" />
        </mxCell>
        <mxCell id="kIMGEz0QDYV-E_OhELrM-329" value="" style="ellipse;whiteSpace=wrap;html=1;aspect=fixed;strokeColor=#666666;strokeWidth=1;fillColor=#f5f5f5;fontColor=#333333;" vertex="1" parent="kIMGEz0QDYV-E_OhELrM-293">
          <mxGeometry y="88.28828828828824" width="17.348003726639604" height="17.348003726639604" as="geometry" />
        </mxCell>
        <mxCell id="kIMGEz0QDYV-E_OhELrM-330" style="edgeStyle=none;rounded=0;orthogonalLoop=1;jettySize=auto;html=1;entryX=1;entryY=0.5;entryDx=0;entryDy=0;endArrow=none;endFill=0;strokeColor=#cc0000;strokeWidth=2;endSize=3;startArrow=none;startFill=0;" edge="1" parent="kIMGEz0QDYV-E_OhELrM-293" source="kIMGEz0QDYV-E_OhELrM-311" target="kIMGEz0QDYV-E_OhELrM-329">
          <mxGeometry relative="1" as="geometry" />
        </mxCell>
        <mxCell id="kIMGEz0QDYV-E_OhELrM-331" style="rounded=0;orthogonalLoop=1;jettySize=auto;html=1;exitX=1;exitY=0.5;exitDx=0;exitDy=0;startArrow=none;startFill=0;endArrow=none;endFill=0;strokeWidth=2;strokeColor=#ffb366;" edge="1" parent="kIMGEz0QDYV-E_OhELrM-293" source="kIMGEz0QDYV-E_OhELrM-332">
          <mxGeometry relative="1" as="geometry">
            <mxPoint x="107.20022727272726" y="9.460017704337604" as="targetPoint" />
          </mxGeometry>
        </mxCell>
        <mxCell id="kIMGEz0QDYV-E_OhELrM-332" value="" style="ellipse;whiteSpace=wrap;html=1;aspect=fixed;strokeColor=#666666;strokeWidth=1;fillColor=#f5f5f5;fontColor=#333333;" vertex="1" parent="kIMGEz0QDYV-E_OhELrM-293">
          <mxGeometry x="26.98018018018019" width="17.348003726639604" height="17.348003726639604" as="geometry" />
        </mxCell>
        <mxCell id="kIMGEz0QDYV-E_OhELrM-333" style="edgeStyle=none;rounded=0;orthogonalLoop=1;jettySize=auto;html=1;endArrow=none;endFill=0;strokeColor=#666666;strokeWidth=2;endSize=3;startArrow=none;startFill=0;" edge="1" parent="kIMGEz0QDYV-E_OhELrM-293" source="kIMGEz0QDYV-E_OhELrM-297" target="kIMGEz0QDYV-E_OhELrM-332">
          <mxGeometry relative="1" as="geometry" />
        </mxCell>
        <mxCell id="kIMGEz0QDYV-E_OhELrM-334" style="edgeStyle=orthogonalEdgeStyle;rounded=0;orthogonalLoop=1;jettySize=auto;html=1;exitX=0.5;exitY=1;exitDx=0;exitDy=0;entryX=0.5;entryY=0;entryDx=0;entryDy=0;startArrow=none;startFill=0;endArrow=none;endFill=0;strokeWidth=2;strokeColor=#ffb366;" edge="1" parent="kIMGEz0QDYV-E_OhELrM-293" source="kIMGEz0QDYV-E_OhELrM-337" target="kIMGEz0QDYV-E_OhELrM-329">
          <mxGeometry relative="1" as="geometry" />
        </mxCell>
        <mxCell id="kIMGEz0QDYV-E_OhELrM-335" style="rounded=0;orthogonalLoop=1;jettySize=auto;html=1;exitX=1;exitY=0;exitDx=0;exitDy=0;startArrow=none;startFill=0;endArrow=none;endFill=0;strokeWidth=2;strokeColor=#ffb366;" edge="1" parent="kIMGEz0QDYV-E_OhELrM-293" source="kIMGEz0QDYV-E_OhELrM-337">
          <mxGeometry relative="1" as="geometry">
            <mxPoint x="29.777840909090912" y="16.069637061080005" as="targetPoint" />
          </mxGeometry>
        </mxCell>
        <mxCell id="kIMGEz0QDYV-E_OhELrM-336" style="rounded=0;orthogonalLoop=1;jettySize=auto;html=1;exitX=1;exitY=1;exitDx=0;exitDy=0;startArrow=none;startFill=0;endArrow=none;endFill=0;strokeWidth=2;strokeColor=#666666;" edge="1" parent="kIMGEz0QDYV-E_OhELrM-293" source="kIMGEz0QDYV-E_OhELrM-337">
          <mxGeometry relative="1" as="geometry">
            <mxPoint x="47.92814393939386" y="89.87705321137018" as="targetPoint" />
          </mxGeometry>
        </mxCell>
        <mxCell id="kIMGEz0QDYV-E_OhELrM-337" value="" style="ellipse;whiteSpace=wrap;html=1;aspect=fixed;strokeColor=#666666;strokeWidth=1;fillColor=#f5f5f5;fontColor=#333333;" vertex="1" parent="kIMGEz0QDYV-E_OhELrM-293">
          <mxGeometry y="37.83783783783784" width="17.348003726639604" height="17.348003726639604" as="geometry" />
        </mxCell>
        <mxCell id="kIMGEz0QDYV-E_OhELrM-338" style="edgeStyle=none;rounded=0;orthogonalLoop=1;jettySize=auto;html=1;endArrow=none;endFill=0;strokeColor=#666666;strokeWidth=2;endSize=3;startArrow=none;startFill=0;" edge="1" parent="kIMGEz0QDYV-E_OhELrM-293" source="kIMGEz0QDYV-E_OhELrM-297" target="kIMGEz0QDYV-E_OhELrM-337">
          <mxGeometry relative="1" as="geometry" />
        </mxCell>
        <mxCell id="kIMGEz0QDYV-E_OhELrM-340" value="" style="group;fontSize=16;" vertex="1" connectable="0" parent="1">
          <mxGeometry x="-189.40710523353778" y="-2384.648651238751" width="134.71578880157858" height="129.29398741510968" as="geometry" />
        </mxCell>
        <mxCell id="kIMGEz0QDYV-E_OhELrM-341" value="" style="ellipse;whiteSpace=wrap;html=1;aspect=fixed;strokeColor=#666666;strokeWidth=1;fillColor=#f5f5f5;fontColor=#333333;" vertex="1" parent="kIMGEz0QDYV-E_OhELrM-340">
          <mxGeometry x="60.682787748458836" y="58.24053487167103" width="19.353378623198882" height="19.353378623198882" as="geometry" />
        </mxCell>
        <mxCell id="kIMGEz0QDYV-E_OhELrM-342" value="" style="ellipse;whiteSpace=wrap;html=1;aspect=fixed;strokeColor=#666666;strokeWidth=1;fillColor=#f5f5f5;fontColor=#333333;" vertex="1" parent="kIMGEz0QDYV-E_OhELrM-340">
          <mxGeometry x="81.31493558293484" y="34.94432092300262" width="19.353378623198882" height="19.353378623198882" as="geometry" />
        </mxCell>
        <mxCell id="kIMGEz0QDYV-E_OhELrM-343" style="edgeStyle=none;orthogonalLoop=1;jettySize=auto;html=1;endArrow=none;endFill=0;strokeColor=#CC0000;strokeWidth=2;endSize=3;rounded=0;shadow=0;" edge="1" parent="kIMGEz0QDYV-E_OhELrM-340" source="kIMGEz0QDYV-E_OhELrM-341" target="kIMGEz0QDYV-E_OhELrM-342">
          <mxGeometry relative="1" as="geometry" />
        </mxCell>
        <mxCell id="kIMGEz0QDYV-E_OhELrM-344" value="" style="ellipse;whiteSpace=wrap;html=1;aspect=fixed;strokeColor=#666666;strokeWidth=1;fillColor=#f5f5f5;fontColor=#333333;" vertex="1" parent="kIMGEz0QDYV-E_OhELrM-340">
          <mxGeometry x="40.050639913982835" y="81.53674882033943" width="19.353378623198882" height="19.353378623198882" as="geometry" />
        </mxCell>
        <mxCell id="kIMGEz0QDYV-E_OhELrM-345" style="edgeStyle=none;orthogonalLoop=1;jettySize=auto;html=1;entryX=1;entryY=0;entryDx=0;entryDy=0;endArrow=none;endFill=0;strokeColor=#FFB366;strokeWidth=2;endSize=3;rounded=0;shadow=0;" edge="1" parent="kIMGEz0QDYV-E_OhELrM-340" source="kIMGEz0QDYV-E_OhELrM-341" target="kIMGEz0QDYV-E_OhELrM-344">
          <mxGeometry relative="1" as="geometry" />
        </mxCell>
        <mxCell id="kIMGEz0QDYV-E_OhELrM-346" value="" style="ellipse;whiteSpace=wrap;html=1;aspect=fixed;strokeColor=#666666;strokeWidth=1;fillColor=#f5f5f5;fontColor=#333333;" vertex="1" parent="kIMGEz0QDYV-E_OhELrM-340">
          <mxGeometry x="97.09246039753413" width="19.353378623198882" height="19.353378623198882" as="geometry" />
        </mxCell>
        <mxCell id="kIMGEz0QDYV-E_OhELrM-347" style="edgeStyle=none;orthogonalLoop=1;jettySize=auto;html=1;endArrow=none;endFill=0;strokeColor=#CC0000;strokeWidth=2;endSize=3;rounded=0;shadow=0;" edge="1" parent="kIMGEz0QDYV-E_OhELrM-340" source="kIMGEz0QDYV-E_OhELrM-342" target="kIMGEz0QDYV-E_OhELrM-346">
          <mxGeometry relative="1" as="geometry" />
        </mxCell>
        <mxCell id="kIMGEz0QDYV-E_OhELrM-348" value="" style="ellipse;whiteSpace=wrap;html=1;aspect=fixed;strokeColor=#666666;strokeWidth=1;fillColor=#f5f5f5;fontColor=#333333;" vertex="1" parent="kIMGEz0QDYV-E_OhELrM-340">
          <mxGeometry x="121.36557549691767" y="34.94432092300262" width="19.353378623198882" height="19.353378623198882" as="geometry" />
        </mxCell>
        <mxCell id="kIMGEz0QDYV-E_OhELrM-349" style="edgeStyle=none;orthogonalLoop=1;jettySize=auto;html=1;entryX=0;entryY=0.5;entryDx=0;entryDy=0;endArrow=none;endFill=0;strokeColor=#FF8000;strokeWidth=2;endSize=3;rounded=0;shadow=0;" edge="1" parent="kIMGEz0QDYV-E_OhELrM-340" source="kIMGEz0QDYV-E_OhELrM-342" target="kIMGEz0QDYV-E_OhELrM-348">
          <mxGeometry relative="1" as="geometry" />
        </mxCell>
        <mxCell id="kIMGEz0QDYV-E_OhELrM-350" value="" style="ellipse;whiteSpace=wrap;html=1;aspect=fixed;strokeColor=#666666;strokeWidth=1;fillColor=#f5f5f5;fontColor=#333333;" vertex="1" parent="kIMGEz0QDYV-E_OhELrM-340">
          <mxGeometry x="121.36557549691767" y="81.53674882033943" width="19.353378623198882" height="19.353378623198882" as="geometry" />
        </mxCell>
        <mxCell id="kIMGEz0QDYV-E_OhELrM-351" value="" style="ellipse;whiteSpace=wrap;html=1;aspect=fixed;strokeColor=#666666;strokeWidth=1;fillColor=#f5f5f5;fontColor=#333333;" vertex="1" parent="kIMGEz0QDYV-E_OhELrM-340">
          <mxGeometry x="24.27311509938353" y="116.48106974334206" width="19.353378623198882" height="19.353378623198882" as="geometry" />
        </mxCell>
        <mxCell id="kIMGEz0QDYV-E_OhELrM-352" style="edgeStyle=none;orthogonalLoop=1;jettySize=auto;html=1;endArrow=none;endFill=0;strokeColor=#CC0000;strokeWidth=2;endSize=3;rounded=0;shadow=0;" edge="1" parent="kIMGEz0QDYV-E_OhELrM-340" source="kIMGEz0QDYV-E_OhELrM-344" target="kIMGEz0QDYV-E_OhELrM-351">
          <mxGeometry relative="1" as="geometry" />
        </mxCell>
        <mxCell id="kIMGEz0QDYV-E_OhELrM-353" value="" style="ellipse;whiteSpace=wrap;html=1;aspect=fixed;strokeColor=#666666;strokeWidth=1;fillColor=#f5f5f5;fontColor=#333333;" vertex="1" parent="kIMGEz0QDYV-E_OhELrM-340">
          <mxGeometry y="81.53674882033943" width="19.353378623198882" height="19.353378623198882" as="geometry" />
        </mxCell>
        <mxCell id="kIMGEz0QDYV-E_OhELrM-354" style="edgeStyle=none;orthogonalLoop=1;jettySize=auto;html=1;entryX=1;entryY=0.5;entryDx=0;entryDy=0;endArrow=none;endFill=0;strokeColor=#FF8000;strokeWidth=2;endSize=3;rounded=0;shadow=0;" edge="1" parent="kIMGEz0QDYV-E_OhELrM-340" source="kIMGEz0QDYV-E_OhELrM-344" target="kIMGEz0QDYV-E_OhELrM-353">
          <mxGeometry relative="1" as="geometry" />
        </mxCell>
        <mxCell id="kIMGEz0QDYV-E_OhELrM-355" style="edgeStyle=none;orthogonalLoop=1;jettySize=auto;html=1;endArrow=none;endFill=0;strokeColor=#CC0000;strokeWidth=2;endSize=3;rounded=0;shadow=0;" edge="1" parent="kIMGEz0QDYV-E_OhELrM-340" source="kIMGEz0QDYV-E_OhELrM-348" target="kIMGEz0QDYV-E_OhELrM-346">
          <mxGeometry relative="1" as="geometry">
            <mxPoint x="103.22314271553844" y="42.946163427217265" as="sourcePoint" />
            <mxPoint x="110.82904420217" y="26.18424491843565" as="targetPoint" />
          </mxGeometry>
        </mxCell>
        <mxCell id="kIMGEz0QDYV-E_OhELrM-356" style="edgeStyle=none;orthogonalLoop=1;jettySize=auto;html=1;endArrow=none;endFill=0;strokeColor=#CC0000;strokeWidth=2;endSize=3;rounded=0;shadow=0;" edge="1" parent="kIMGEz0QDYV-E_OhELrM-340" source="kIMGEz0QDYV-E_OhELrM-348" target="kIMGEz0QDYV-E_OhELrM-350">
          <mxGeometry relative="1" as="geometry">
            <mxPoint x="140.91287471226502" y="50.98270184247883" as="sourcePoint" />
            <mxPoint x="105.7690764142061" y="91.05454166192261" as="targetPoint" />
          </mxGeometry>
        </mxCell>
        <mxCell id="kIMGEz0QDYV-E_OhELrM-357" style="edgeStyle=none;orthogonalLoop=1;jettySize=auto;html=1;endArrow=none;endFill=0;strokeColor=#FF8000;strokeWidth=2;endSize=3;rounded=0;shadow=0;" edge="1" parent="kIMGEz0QDYV-E_OhELrM-340" source="kIMGEz0QDYV-E_OhELrM-350" target="kIMGEz0QDYV-E_OhELrM-342">
          <mxGeometry relative="1" as="geometry">
            <mxPoint x="133.42866422328856" y="43.799702541639405" as="sourcePoint" />
            <mxPoint x="120.59237548282888" y="25.336410614481782" as="targetPoint" />
          </mxGeometry>
        </mxCell>
        <mxCell id="kIMGEz0QDYV-E_OhELrM-358" style="edgeStyle=none;orthogonalLoop=1;jettySize=auto;html=1;endArrow=none;endFill=0;strokeColor=#CC0000;strokeWidth=2;endSize=3;rounded=0;shadow=0;" edge="1" parent="kIMGEz0QDYV-E_OhELrM-340" source="kIMGEz0QDYV-E_OhELrM-353" target="kIMGEz0QDYV-E_OhELrM-351">
          <mxGeometry relative="1" as="geometry">
            <mxPoint x="54.718279559632606" y="108.6250172754259" as="sourcePoint" />
            <mxPoint x="47.12783137140299" y="125.39336155214171" as="targetPoint" />
          </mxGeometry>
        </mxCell>
        <mxCell id="kIMGEz0QDYV-E_OhELrM-362" value="" style="group;rotation=90;" vertex="1" connectable="0" parent="1">
          <mxGeometry x="-230.00307371702363" y="-1917.004932378597" width="49.37307371702354" height="90.50986475719401" as="geometry" />
        </mxCell>
        <mxCell id="kIMGEz0QDYV-E_OhELrM-127" value="" style="verticalLabelPosition=bottom;verticalAlign=top;html=1;shape=mxgraph.basic.orthogonal_triangle;gradientColor=#CC0000;fillColor=#FFB366;strokeColor=none;gradientDirection=east;rotation=180;flipH=0;flipV=1;" vertex="1" parent="kIMGEz0QDYV-E_OhELrM-362">
          <mxGeometry x="-18" y="50" width="76" height="20" as="geometry" />
        </mxCell>
        <mxCell id="kIMGEz0QDYV-E_OhELrM-128" value="Adj. p-value" style="text;html=1;align=center;verticalAlign=middle;resizable=0;points=[];autosize=1;strokeColor=none;fillColor=none;rotation=1;" vertex="1" parent="1">
          <mxGeometry x="-252.00307371702363" y="-1847.004932378597" width="90" height="30" as="geometry" />
        </mxCell>
      </root>
    </mxGraphModel>
  </diagram>
</mxfile>
